<svg xmlns="http://www.w3.org/2000/svg" width="135.742" height="39.745" viewBox="0 0 135.742 39.745"><path d="M52.756,32.96c-1.664,2.22-4.8,3.044-7.792,3.094h-.958l2.314-8.2h5.259l.407-1.46H46.727l2.061-7.33h1.654a3.963,3.963,0,0,1,3.173,1.212A5,5,0,0,1,54.7,23.584c0,.243-.01.487-.03.72h.477l1.713-6H41.915l-.263.75H42.67a.6.6,0,0,1,.606.606.4.4,0,0,1-.02.159L38.89,35.3a1.108,1.108,0,0,1-1.043.8h-.9l-.228.77H51.072L53.9,32.791H52.85l-.089.154Z" transform="translate(-18.484 -9.212)" fill="#fff"/><path d="M252.186,19.761a4.65,4.65,0,0,0-2.672-1.281,11.2,11.2,0,0,0-1.53-.109c-.536.02-1.048.03-1.53.03h-6.327l-.164.561h.01l-4.609,16.334a1.1,1.1,0,0,1-1.063.809h-.824l-.228.829h8.716l.223-.829h-1.078a.616.616,0,0,1-.616-.616.6.6,0,0,1,.025-.164l1.887-6.714h2.573a22.767,22.767,0,0,0,3.044-.154,5.405,5.405,0,0,0,2.736-1.112,7.272,7.272,0,0,0,1.684-2.021,5.435,5.435,0,0,0,.71-2.493,4.4,4.4,0,0,0-.968-3.069m-4.008,2.3a11.494,11.494,0,0,1-.238,1.266,13.058,13.058,0,0,1-.78,2.27,4.251,4.251,0,0,1-1.346,1.9,3.745,3.745,0,0,1-2.205.377h-1l2.483-8.815h.9c1.47-.035,2.245.551,2.26,1.967a8.433,8.433,0,0,1-.079,1.043" transform="translate(-117.413 -9.247)" fill="#fff"/><path d="M157.321,27.52a4,4,0,0,0-1.266-1.41,10.707,10.707,0,0,0-1.654-.924L153.04,24.5c-.323-.184-.66-.372-1-.561a5.733,5.733,0,0,1-.889-.611,2.7,2.7,0,0,1-.636-.8,2.366,2.366,0,0,1,.109-2.359,2.855,2.855,0,0,1,.849-.924,4.374,4.374,0,0,1,2.359-.71,3.769,3.769,0,0,1,3.034,1.3,4.991,4.991,0,0,1,1.073,3.283v.631h.442l1.6-5.587s-4.961-.273-6.9-.228a7.647,7.647,0,0,0-4.713,1.485,5.336,5.336,0,0,0-2.15,4.485,4.118,4.118,0,0,0,1.083,3.039,9.35,9.35,0,0,0,2.617,1.917l1.609.879a10.983,10.983,0,0,1,1.023.531,3.793,3.793,0,0,1,.829.661,2.5,2.5,0,0,1,.814,2,3.008,3.008,0,0,1-1.376,2.538,4.855,4.855,0,0,1-2.841.919,4.7,4.7,0,0,1-3.541-1.569,5.125,5.125,0,0,1-1.48-3.68c0-.164.079-.75.094-.874h-.566l-1.763,6.2s5.448.536,7.365.536a8.869,8.869,0,0,0,5.373-1.828,5.962,5.962,0,0,0,2.5-4.966,5.641,5.641,0,0,0-.641-2.667" transform="translate(-71.847 -9.021)" fill="#fff"/><path d="M12.714,15.177h6.923l.482-1.833H13.19L16.691.958h4.539a6.288,6.288,0,0,1,5.021,2c1.227,1.336,1.033,3.894.924,4.266h.631L29.842,0H7.857L7.583.919H8.919A1.05,1.05,0,0,1,9.972,1.972a1.3,1.3,0,0,1-.035.283L3.178,26.127a1.052,1.052,0,0,1-1.018.765H.223L0,27.652H12.262l.214-.715H10.762A1.056,1.056,0,0,1,9.7,25.879a.923.923,0,0,1,.035-.268Z" fill="#fff"/><path d="M220.612,35.534a.925.925,0,0,1,.02-.169l4.345-15.47a1.11,1.11,0,0,1,1.063-.8h.879l.179-.661h-6.565L215.77,35.335a1.1,1.1,0,0,1-1.053.8h-.894l-.233.834h8.279l.238-.834h-.884a.609.609,0,0,1-.611-.606" transform="translate(-107.516 -9.277)" fill="#fff"/><path d="M105.734,22.108a5.632,5.632,0,0,0-2-2.647,6.669,6.669,0,0,0-2.786-1.033,26.8,26.8,0,0,0-2.811-.164H91.61l-.219.661h.884a.606.606,0,0,1,.606.611.478.478,0,0,1-.02.169l-4.43,15.465h0a1.1,1.1,0,0,1-1.063.809H86.128L84.171,18.1H81.966L68.15,36.808h3.963l.348-.874H71.274s-.184.01-.248-.109.084-.293.084-.293l3.1-4.191h6.148l.392,4.594H78.961l-.313.874H94.387a19.647,19.647,0,0,0,4.405-.561,9.462,9.462,0,0,0,6.322-5.309,13.965,13.965,0,0,0,1.2-5.423,10.192,10.192,0,0,0-.586-3.4M75.346,29.8l4.321-5.865.551,5.865H75.341Zm25.382-2.483a34.267,34.267,0,0,1-1.718,5.105A5.466,5.466,0,0,1,93.4,36.147h-.531L97.7,18.919h.363a4.229,4.229,0,0,1,2.5.541,3,3,0,0,1,.958,2.523,23.125,23.125,0,0,1-.8,5.329" transform="translate(-34.305 -9.111)" fill="#fff"/><path d="M189.351,18.33l-2.25,8.015h-6.4l1.837-6.565a1.11,1.11,0,0,1,1.063-.809h.859l.179-.661h-6.565l-2.245,8.02-.417,1.46-2.081,7.425a1.108,1.108,0,0,1-1.063.809h-.879l-.258.824H179.4l.238-.824h-.844a.615.615,0,0,1-.611-.616.453.453,0,0,1,.025-.164l2.081-7.439h6.4L184.6,35.23a1.108,1.108,0,0,1-1.063.8h-.879l-.258.829h8.269l.233-.829h-.839a.614.614,0,0,1-.611-.611.451.451,0,0,1,.02-.169l4.331-15.47a1.1,1.1,0,0,1,1.058-.8h.854l.184-.656h-6.56Z" transform="translate(-86.143 -9.217)" fill="#fff"/><g transform="translate(18.042 34.212)"><path d="M40.874,74.4a1.893,1.893,0,0,1-.432.06,1.244,1.244,0,0,1-1.038-.447,11.418,11.418,0,0,1-.983-1.644l-.924-.035-.308,2.081H36.33l.8-5.314s.5-.025,1.336-.025c1.222,0,2.011.5,2.011,1.45a1.8,1.8,0,0,1-1.266,1.624c.859,1.564,1.212,1.7,1.609,1.7h.149l-.089.546Zm-3.278-2.7s.368.035.79.035a1.086,1.086,0,0,0,1.167-1.212c0-.422-.273-.809-1.038-.809-.422,0-.616.01-.616.01l-.3,1.977Z" transform="translate(-36.33 -68.986)" fill="#fff"/><path d="M49.753,74.422a2.367,2.367,0,0,1-2.523-2.5A2.847,2.847,0,0,1,50.1,68.89a2.255,2.255,0,0,1,2.478,2.4,2.879,2.879,0,0,1-2.821,3.129Zm.3-4.822c-1.142,0-1.872.949-1.872,2.354a1.553,1.553,0,0,0,1.589,1.758c1.142,0,1.852-1.028,1.852-2.424A1.508,1.508,0,0,0,50.056,69.6Z" transform="translate(-41.817 -68.89)" fill="#fff"/><path d="M64.343,69.611h-.089c-.333,0-.526.149-1.326,1.167-.745.958-.983,1.326-.983,1.326L61.6,74.378h-.869l.353-2.329L59.6,69.07h.949l1.088,2.319s.482-.745.889-1.291c.651-.869.924-1.1,1.564-1.1a.683.683,0,0,1,.333.07l-.079.546Z" transform="translate(-48.044 -68.945)" fill="#fff"/><path d="M71.537,74.434l-.4-1.773H69.232l-.949,1.773h-.9l3.014-5.314h.73l1.316,5.314Zm-.973-4.261L69.58,72.01h1.405Z" transform="translate(-51.96 -69.006)" fill="#fff"/><path d="M83.337,74.434H79.93l.8-5.314H81.6l-.685,4.534h2.538l-.114.775Z" transform="translate(-58.277 -69.006)" fill="#fff"/><path d="M94.26,69.11s.526-.01,1.6-.01c1.589,0,2.741.73,2.741,2.409a2.832,2.832,0,0,1-3.129,2.925c-1.073,0-2.011-.01-2.011-.01l.8-5.314Zm.184,4.594a10.777,10.777,0,0,0,1.1.035,1.965,1.965,0,0,0,2.116-2.24,1.6,1.6,0,0,0-1.828-1.723c-.546,0-.8.025-.8.025l-.581,3.908Z" transform="translate(-65.088 -68.996)" fill="#fff"/><path d="M110.776,69.12s-.114.983-.2,1.669a12.378,12.378,0,0,1-.432,2.275A2.193,2.193,0,0,1,107.8,74.5c-1.405,0-1.986-.74-1.986-1.644a17.212,17.212,0,0,1,.2-1.887c.139-.859.288-1.852.288-1.852h.834s-.149,1.083-.283,1.932a13.293,13.293,0,0,0-.184,1.679c0,.71.447,1.053,1.3,1.053,1.142,0,1.381-.765,1.53-1.46.089-.377.194-1.063.288-1.7.1-.78.194-1.495.194-1.495h.8Z" transform="translate(-71.305 -69.006)" fill="#fff"/><path d="M121.684,69.885h-1.838l-.685,4.549h-.869l.685-4.549H117.15l.114-.765H121.8Z" transform="translate(-77.013 -69.006)" fill="#fff"/><path d="M131.279,69.993a3.016,3.016,0,0,0-1.405-.283,2.01,2.01,0,0,0-2.18,2.16,1.616,1.616,0,0,0,1.748,1.828A3.512,3.512,0,0,0,131,73.4l-.124.755a3.162,3.162,0,0,1-1.544.288,2.354,2.354,0,0,1-2.538-2.513,2.926,2.926,0,0,1,3.2-2.96,3.031,3.031,0,0,1,1.43.263l-.139.765Z" transform="translate(-81.866 -68.93)" fill="#fff"/><path d="M141.569,74.434H140.7l.367-2.458h-2.8l-.367,2.458h-.869l.8-5.314h.869l-.318,2.116h2.8l.323-2.116h.869l-.8,5.314Z" transform="translate(-87.02 -69.006)" fill="#fff"/><path d="M157.741,69.928a3.948,3.948,0,0,0-1.3-.273c-.516,0-.859.184-.859.661,0,.437.343.606.949.949.641.353,1.256.765,1.256,1.574,0,1.152-1,1.564-1.967,1.564a3.95,3.95,0,0,1-1.669-.368l.035-.834a3.212,3.212,0,0,0,1.7.5c.675,0,1.038-.219,1.038-.765,0-.457-.377-.661-1.073-1.053a1.735,1.735,0,0,1-1.1-1.46c0-.8.606-1.475,1.793-1.475a3.06,3.06,0,0,1,1.291.238l-.1.73Z" transform="translate(-95.638 -68.92)" fill="#fff"/><path d="M168.829,74.434h-.869l.368-2.458h-2.8l-.367,2.458h-.869l.8-5.314h.869l-.323,2.116h2.8l.323-2.116h.869Z" transform="translate(-100.742 -69.006)" fill="#fff"/><path d="M178.389,74.434h-.869l.8-5.314h.869Z" transform="translate(-107.402 -69.006)" fill="#fff"/><path d="M184.165,69.11s.492-.01,1.371-.01c.949,0,1.932.387,1.932,1.544a1.908,1.908,0,0,1-2.116,1.887,6.643,6.643,0,0,1-.824-.045l-.3,1.942h-.869l.8-5.314Zm.457,2.712a2.543,2.543,0,0,0,.661.06c.8,0,1.266-.368,1.266-1.212,0-.516-.353-.914-1.053-.914-.457,0-.571.01-.571.01l-.308,2.056Z" transform="translate(-110.342 -68.996)" fill="#fff"/><path d="M197.793,69.611H197.7c-.333,0-.526.149-1.326,1.167-.74.958-.983,1.326-.983,1.326l-.343,2.275h-.869l.353-2.329-1.485-2.98H194l1.083,2.319s.482-.745.889-1.291c.651-.869.924-1.1,1.564-1.1a.683.683,0,0,1,.333.07l-.079.546Z" transform="translate(-115.219 -68.945)" fill="#fff"/><path d="M204.987,74.434l-.4-1.773h-1.907l-.949,1.773h-.9l3.014-5.314h.73l1.311,5.314h-.9Zm-.973-4.261-.983,1.837h1.405Z" transform="translate(-119.136 -69.006)" fill="#fff"/><path d="M217.474,74.4a1.893,1.893,0,0,1-.432.06A1.244,1.244,0,0,1,216,74.016a11.42,11.42,0,0,1-.983-1.644l-.924-.035-.308,2.081h-.859l.8-5.314s.5-.025,1.336-.025c1.222,0,2.011.5,2.011,1.45a1.8,1.8,0,0,1-1.266,1.624c.859,1.564,1.212,1.7,1.609,1.7h.149l-.089.546Zm-3.278-2.7s.367.035.79.035a1.086,1.086,0,0,0,1.167-1.212c0-.422-.273-.809-1.038-.809-.422,0-.616.01-.616.01l-.3,1.977Z" transform="translate(-125.226 -68.986)" fill="#fff"/><path d="M224.44,69.11s.526-.01,1.6-.01c1.589,0,2.741.73,2.741,2.409a2.832,2.832,0,0,1-3.129,2.925c-1.073,0-2.011-.01-2.011-.01l.8-5.314Zm.184,4.594a10.9,10.9,0,0,0,1.1.035,1.965,1.965,0,0,0,2.116-2.24,1.6,1.6,0,0,0-1.828-1.723c-.546,0-.8.025-.8.025l-.581,3.908Z" transform="translate(-130.618 -68.996)" fill="#fff"/><path d="M238.911,69.928a3.948,3.948,0,0,0-1.3-.273c-.516,0-.859.184-.859.661,0,.437.343.606.949.949.641.353,1.256.765,1.256,1.574,0,1.152-1,1.564-1.967,1.564a3.95,3.95,0,0,1-1.669-.368l.035-.834a3.212,3.212,0,0,0,1.7.5c.675,0,1.038-.219,1.038-.765,0-.457-.377-.661-1.073-1.053a1.735,1.735,0,0,1-1.1-1.46c0-.8.606-1.475,1.793-1.475a3.06,3.06,0,0,1,1.291.238l-.1.73Z" transform="translate(-136.497 -68.92)" fill="#fff"/></g></svg>