<?xml version="1.0" encoding="UTF-8"?>
<svg id="Layer_1" xmlns="http://www.w3.org/2000/svg" version="1.1" viewBox="0 0 1184 579">
  <!-- Generator: Adobe Illustrator 29.2.1, SVG Export Plug-In . SVG Version: 2.1.0 Build 116)  -->
  <defs>
    <style>
      .st0 {
        fill: none;
      }

      .st1 {
        fill: #fff;
      }
    </style>
  </defs>
  <rect class="st0" width="1184" height="579"/>
  <path class="st1" d="M619.7,270.3h0s0,0,0,0h0l-1.9-.5v-.5c.1,0,1.9.5,1.9.5h-.2c0-.1.9-1.9.9-1.9l.4.2-.9,1.8h0s-.1.4-.1.4ZM616.8,269.5l-1.9-.5v-.5c.1,0,2.1.5,2.1.5v.5ZM613.9,268.6l-1.8-.8.2-.5,1.8.8-.2.5ZM611.2,267.4l-.4-.2h0l-1.4-.6.2-.5,1.8.8-.2.4ZM608.4,266.2l-1.8-.8.2-.5,1.8.8-.2.5ZM605.8,264.9l-1.2-.8h0s0,0,0,0l-.5-.3.3-.4c.7.4,1.3.8,1.7,1.1l-.3.4ZM603.2,263.3l-.4-.2h0c-.3-.2-.7-.4-.9-.6h0s0,0,0,0h0l-.3-.2.3-.4c.4.3,1,.6,1.7,1.1l-.3.4ZM600.7,261.7c0,0-.1,0-.2,0h0c-.5-.1-1-.2-1.5-.2h-.1s0-.5,0-.5c.7,0,1.4.2,2.1.4l-.2.5ZM597.7,261.3c-.2,0-.3,0-.5,0h0c-.3,0-.7,0-1-.1h0c-.1,0-.3,0-.4,0v-.5c.7.1,1.4.2,2,.3v.5ZM594.8,260.7h0s0,0,0,0h-.3c-.4-.2-.9-.5-1.4-.8l.2-.4c.6.3,1.1.5,1.4.7.1,0,.2,0,.3.1l-.2.4ZM592.1,259.4h0c-.5-.3-1.1-.6-1.6-1h0s0,0,0,0l.3-.4c.5.3,1,.7,1.6,1l-.3.4ZM589.6,257.7c-.2-.2-.4-.3-.6-.5h0s0,0,0,0h0c-.1-.2-.3-.4-.4-.6h0c0,0,0,0,0,0h0c0,0,0-.2,0-.3h.5c0,.2.1.6.9,1.2l-.4.2ZM589.3,255.4l-.4-.3h0s.3-.4.3-.4l.8-1.2.4.3-1.1,1.6ZM591,253l-.4-.3,1.1-1.7.4.3-1.1,1.7ZM592.7,250.5l-.4-.3v-.2c.1,0,.8-1,.8-1h0s-.1-.2-.3-.5l.4-.3c.2.3.3.5.3.5l.2.3-1,1.4ZM592.2,247.7l-.2-.2h0c-.3-.4-.7-.9-1.1-1.3l.4-.3c.4.5.8,1,1.3,1.6l-.4.3ZM590.3,245.5c-.3-.4-.8-.6-1.2-.8h-.2c0,0-.1,0-.2,0h-.1s0,0,0,0v-.5c-.1,0,0,0,0,0,0,0,.2,0,.3,0,.7,0,1.3.4,1.8,1l-.3.3ZM585.6,245.5v-.5c-.1,0,1.8-.5,1.8-.5v.5c.1,0-1.3.4-1.3.4h0s0,0,0,0h-.4ZM583.2,246.2h-.4v-.5h.4l1.4-.4v.5c.1,0-1.2.4-1.2.4h0s0,0,0,0h-.1ZM581.7,246.2h-2v-.5h2v.5ZM578.7,246.1c-.5,0-1.2,0-2,0v-.5c.8,0,1.6,0,2,0v.5ZM575.7,246c-.4,0-.8,0-1.3,0h-.7v-.5c.6,0,1.3,0,2,0v.5ZM570.7,246.3v-.5c0,0,.7-.1.7-.1.4,0,.8,0,1.2-.1v.5c-.4,0-.8,0-1.2.1h-.8ZM567.8,246.8v-.5c0,0,1.9-.3,1.9-.3v.5c0,0-.6,0-.6,0h0s-1.3.2-1.3.2ZM564.8,247.2v-.5c0,0,1.9-.3,1.9-.3v.5c0,0-1.7.3-1.7.3h-.2ZM561.9,248l-.2-.5c1.3-.4,1.7-.6,1.7-.6h0s.2,0,.2,0v.5c0,0,0,0,0,0h0s-.3.1-.9.4c-.2,0-.5.2-.8.3h0ZM559.1,248.9v-.5c.6-.2,1.2-.4,1.8-.6v.5c.1,0,0,0,0,0h0c-.5.2-1,.3-1.7.5h0ZM556.2,249.7v-.5c.5-.2,1.2-.4,1.8-.5v.5c.1,0-.3.1-.3.1h0l-1.1.3h-.4ZM553.3,250.5v-.5c.5-.2,1.2-.4,1.8-.5v.5c-.5.2-1.1.3-1.8.5h0ZM550.4,251.3v-.5c.5-.2,1.1-.4,1.8-.5v.5c.1,0-.2,0-.2,0-.5.1-.9.3-1.4.4h-.2ZM547.5,252.1l-.2-.5c.6-.2,1.2-.4,1.9-.6v.5c-.3.1-.6.2-1,.3h0s0,0,0,0h0s0,0,0,0h-.1s0,0,0,0h0c-.2.1-.3.2-.5.2h0ZM544.7,253.2v-.5s.1,0,.2-.1c.3-.1.7-.3,1.4-.6l.2.5c-1.2.5-1.6.7-1.8.8h0ZM543.7,253.1h0c-.3,0-.7-.2-1.1-.3h0s-.1,0-.1,0h0c-.2,0-.4-.1-.6-.2l.2-.5c.8.3,1.4.4,1.8.5h0s-.1.5-.1.5ZM540.9,252.2c-.5-.2-1-.4-1.5-.5h-.4c0-.1.2-.6.2-.6.6.2,1.2.5,1.9.7l-.2.5ZM538.1,251.2h0s0,0,0,0h0s0,0,0,0h0s0,0,0,0h-.3c0-.1,0-.1,0-.1h0s-.1,0-.1,0h0s0,0,0,0h0s0,0,0,0h0s0,0,0,0h0s0,0,0,0h0c-.2,0-.4-.1-.5-.2h0l.4-.4c.4.1.8.3,1.2.4l-.2.4ZM538,250l-.3-.4,1.4-1.4.3.4-1.4,1.4ZM540.2,247.9l-.3-.4.3-.3h0l1.1-1.1.3.4-1.4,1.4ZM544.2,247.1l-2-.3v-.5c0,0,2.1.3,2.1.3v.5ZM547.1,247.6l-2-.3v-.5c0,0,1.8.3,1.8.3h.2s0,.5,0,.5ZM549.6,248l-1.4-.2v-.5c0,0,1.2.2,1.2.2h0s0,0,0,0h0s0,0,0,0h0s.4-.7.4-.7l.4.2-.6,1.1ZM550.6,246l-.4-.2v-.2h.1l.8-1.6.4.2-.9,1.8ZM552,243.5l-.3-.4,1.6-1.3.3.4-1.6,1.3ZM554.3,241.6l-.3-.4.3-.2h0s1.3-1,1.3-1l.3.4-1.6,1.2ZM555.6,239.1l-.6-1.7h0s0-.2,0-.2l.5-.2.6,1.9h-.5ZM555,236.6l-.4-.3.5-.6h0s0,0,0,0h0s.8-.9.8-.9l.4.3-1.4,1.5ZM557,234.4l-.4-.3,1.4-1.5.4.3-1.4,1.5ZM559.1,232.2l-.4-.3h0c0,0,0,0,0,0h0l1.6-1,.3.4-1.5.9h0ZM561.5,230.7l-.3-.4,1.7-1,.3.4-1.7,1ZM564.1,229.2l-.3-.4h.2c0-.1,0-.1,0-.1h0l1.5-.9.3.4-1.7,1ZM566,226.7h-.5v-2h.5v2ZM566,223.7h-.5v-1h0l1-.4.2.5-.7.3v.6ZM567.6,222.5l-.2-.5,1.8-.7h0s0,.1,0,.1v.3c.1,0-1.7.7-1.7.7ZM572.2,222.3l-2-.4v-.5c0,0,2.1.4,2.1.4v.5ZM575.1,222.9l-2-.4v-.5c0,0,2.1.4,2.1.4v.5ZM577.2,223.3l-1.2-.2v-.5c0,0,1,.2,1,.2h0s0,0,0,0h0l.8-.7.3.4-1,.8ZM579,221.8l-.3-.4.9-.8h0l.6-.5.3.4-1.5,1.3ZM581.3,219.8l-.3-.4,1.5-1.3.3.4-1.5,1.3ZM585,218.5l-1.9-.5v-.5c.1,0,1.8.4,1.8.4h.3c0,0-.1.6-.1.6ZM587.9,219.3l-1.9-.5v-.5c.1,0,2.1.5,2.1.5v.5ZM589.3,221.3l-.9-1.8.4-.2.4.7h0s.6,1.1.6,1.1l-.4.2ZM591.2,223.9l-.9-.8h0c0,0-.4-.9-.4-.9l.4-.2.4.8h0s0,0,0,0h0l.8.7-.3.4ZM593.4,225.8l-1.5-1.3.3-.4,1.2,1.1.3.3-.3.4ZM595.7,227.8l-1.5-1.3.3-.4,1.5,1.3-.3.4ZM598.2,229.6l-1.7-1.1.3-.4.4.2h0s0,0,0,0h0l1.2.8-.3.4ZM600.7,231.3l-1.7-1.1.3-.4,1.7,1.1-.3.4ZM603.2,233l-1.7-1.1.3-.4,1.7,1.1-.3.4ZM604.7,235.2l-.9-1.8.4-.2.9,1.8-.4.2ZM606,237.8l.4-.2-.4.2-.9-1.7.4-.2.8,1.5h0s0,0,0,0h0s0,0,0,0h0s0,0,0,0h0s0,0,0,0h0s0,0,0,0l-.3.2ZM606.5,240.6h-.5v-2h.5v2ZM606,244v-2.4h.5v1.6h0l.4-.2.2.5-1.1.5ZM608,243.1l-.2-.5,1.1-.5h0s0,0,0,0h0s.7-.3.7-.3l.2.5-1.8.9ZM610.8,241.3l-.5-.2.3-.8.4-1,.5.2-.8,1.9ZM611.9,238.6l-.5-.2.3-.8h0s0-.2,0-.2h0v-.2h-.1c0,0,0-.1,0-.1h0s0,0,0,0h0s0,0,0,0h0s0,0,0,0h0s0,0,0,0h0s0-.1,0-.1h0c0,0,0-.1,0-.1h0s0,0,0,0h0s0,0,0,0h0s0,0,0,0h0s.4-.2.4-.2l.6,1.2-.5,1ZM610.8,235.7l-.6-1.3h.6s.5,1,.5,1l-.4.2ZM613.8,234.9h-2v-.5h2v.5ZM617.3,234.9h-2.5v-.5h1.6,0s0,0,0,0h0c0,0,0,0,0,0h0s0,0,0,0h0s0,0,0,0h0c0,0,.4-.3.4-.3l.7,1.1ZM615.6,233.2l-.9-1.4h-.2c0-.1.3-.6.3-.6l.3.2h0c0,0,.9,1.5.9,1.5l-.4.3ZM613.6,231.1l-1.7-1.1.3-.4,1.7,1.1-.3.4ZM611.1,229.5l-1.7-1.1.3-.4,1.7,1.1-.3.4ZM608.5,227.9h0s0,0,0,0h0s0,0,0,0h0s0,0,0,0h0s0,0,0,0h0s0,0,0,0h0s0,0,0,0h0s0,0,0,0l-1.5-.6.2-.5,1.5.7.4.2-.3.3ZM605.8,226.7l-1.7-.7h0s0,0,0,0l.2-.2v-.2c0,0,.1,0,.1,0h0s0,0,0,0l1.7.7-.2.4ZM603.3,225.1l-1.5-1.4.3-.4,1.5,1.4-.3.4ZM601.1,223.1l-1.5-1.4.3-.4,1.5,1.4-.3.4ZM598.9,221l-1.2-1.6.4-.3,1.2,1.6-.4.3ZM597.1,218.6l-.7-1h0s0,0,0,0h0v-.7h.5v.5l.7.9-.4.3ZM596.8,215.9h-.5v-1.6h0l.4-.2v.2h.1s.1.2.1.2h-.1c0,0,0,1.3,0,1.3ZM597.8,214.1l-.2-.4,1.5-.8h0l.2.2h0s0,.2,0,.2l-1.5.8ZM600.8,215.7l-1.3-1.6.4-.3,1.3,1.6-.4.3ZM602.7,218.1l-1.3-1.6.4-.3.4.5h0s0,0,0,0h0s0,0,0,0h0s.8.9.8.9l-.4.3ZM605,220.2l-1.3-.8-.4-.5.4-.3.4.5h0l1.2.7-.3.4ZM607.6,221.7l-1.7-1,.3-.4.3.2h0l1.3.8-.2.5ZM610.2,223.3h-.2c0-.1-1.5-1-1.5-1l.3-.4,1.2.7h0s0,0,0,0h0s0,0,0,0h0s0,0,0,0h0s0,0,0,0h0s0,0,0,0h0s.2.1.2.1l-.2.5ZM612.8,224.7l-1.8-.9.2-.4.6.3h0s0,0,0,0h0l1.1.6-.2.5ZM615.5,226.1l-1.8-.9.2-.4.4.2,1.4.7-.2.4ZM618.1,227.5l-1.8-.9.2-.4,1.1.6h0l.7.3-.2.4ZM619.7,229.2h-.5v-1.2h-.2c0,0,.2-.5.2-.5l.5.2v1.5ZM619.7,232.2h-.5v-2h.5v2ZM620.6,235.1l-1.2-1.6.4-.3,1.1,1.5h0s0,.1,0,.1l-.4.3ZM622.4,237.5l-1.2-1.6.4-.3.8,1.1h0s.3.5.3.5l-.4.3ZM623.3,240.1l-.6-1.9h.5c0-.1.6,1.7.6,1.7h0s-.5.2-.5.2ZM624.2,243l-.6-1.9h.5c0-.1.3.7.3.7h0s.3,1.1.3,1.1h-.5ZM625.5,245.8l-1.1-.9v-1.1h.5v.8h0l.9.7-.3.4ZM627.9,247.6l-1.6-1.2.3-.4,1.3,1h0l.3.2-.3.4ZM630.3,249.4l-1.6-1.2.3-.4,1.6,1.2-.3.4ZM631.5,248.5l-.5-.2.8-1.8.5.2-.8,1.8ZM632.7,245.7l-.5-.2h0c0,0,0-.2,0-.2h0s0,0,0,0h0s0,0,0,0h0s0,0,0,0h0s0,0,0,0h0c0,0,0-.1,0-.1h0s0,0,0,0h0s0,0,0,0h0s0-.1,0-.1h0s0,0,0,0h0s0,0,0,0h0s.7-.7.7-.7l.4.3-.7.7-.2.6ZM634.4,243.5l-.4-.3,1.4-1.5.4.3-1.4,1.5ZM635.1,241l-.8-.6h0l-.8-.6.3-.4,1.6,1.2-.3.4ZM632.7,239.2l-1.6-1.2.3-.4,1.6,1.2-.3.4ZM631.2,237.2h-.5v-2h.5v2ZM631.2,234.7l-.2-.4.5-.3h0l1.2-.7.2.4-1.7.9ZM633.8,233.3l-.2-.4.9-.5h0l.8-.4.2.4-1.8.9ZM638.3,232.3h-2v-.5h2v.5ZM640.2,232.9h-.5v-.6h-.4v-.5h.9v1.1ZM640.2,235.9h-.5v-2h.5v2ZM640.5,238.9l-.6-1.9.5-.2.5,1.5h0s.1.4.1.4l-.5.2ZM641.5,241.9v-.2c-.1,0-.7-1.8-.7-1.8l.5-.2.5,1.6h0s0,0,0,0h0s0,0,0,0h0s0,.2,0,.2l-.4.3ZM642.9,244.5l-1-1.8.4-.2.9,1.8-.4.2ZM645,246.9l-1-.4-.6-1.2.4-.2.5.9h0s0,0,0,0h0s0,0,0,0h0l.7.3-.2.5ZM647.8,248l-1.9-.7.2-.5,1.4.5h0l.5.2-.2.5ZM650.6,249l-1.9-.7.2-.5,1.9.7-.2.5ZM652.2,249.6l-.7-.2.2-.5.5.2h0l1.4-.6.2.5-1.6.6ZM654.7,248.6l-.2-.5,1.7-.7h.2c0,0,0,.2,0,.2v.2c.1,0-1.6.7-1.6.7ZM658.8,249.3l-1.8-.9.2-.4,1.8.9-.2.4ZM661.5,250.6l-1.8-.9.2-.4,1.1.5.7.4-.2.4ZM662.8,251.2l-.4-.2.2-.4h.2c0,0,1.6-.8,1.6-.8l.2.4-1.8,1ZM665.5,249.7l-.2-.4h0s0,0,0,0h0s0,0,0,0h0s0,0,0,0h0s1.6-.9,1.6-.9l.2.4-1.7,1ZM669.5,248.3l-.8-.4-.5.3-.2-.4.7-.4h0l1,.4-.2.5ZM672.2,249.5l.2-.5-.2.5-1.8-.8.2-.5,1.8.8h0s-.2.5-.2.5ZM672.4,252h-.5v-2h.5v2ZM672.4,255h-.5v-2h.5v2ZM671.3,257.8l-.4-.2.9-1.8.4.2-.9,1.8ZM670,260.5l-.4-.2.9-1.8.4.2-.6,1.2h0l-.3.6ZM668.7,263.2l-.4-.2.9-1.8.4.2-.4.9h0s-.5.9-.5.9ZM667.4,265.9l-.4-.2.9-1.8.4.2-.3.5h0s-.6,1.2-.6,1.2ZM666.7,267.2h0s0,0,0,0h0s0,0,0,0l-1.2-.3v-.5c.1,0,1.2.2,1.2.2h0c0-.1.4.1.4.1l-.2.5h0ZM664.2,266.7l-1-.2h0l-.9-.2v-.5c.1,0,2.1.4,2.1.4v.5ZM661.3,266.1l-.8-.2h0s0,0,0,0h0l-1.1-.2v-.5c.1,0,2.1.4,2.1.4v.5ZM656.6,266.1l-.2-.4,1.4-.8h.7c0,.1-.1.6-.1.6h-.5c0-.1,0,0,0,0h0s0,0,0,0h0s0,0,0,0h0l-1.1.6h0ZM653.9,267.5l-.2-.4,1.8-.9.2.4-1.8.9ZM651.3,268.9l-.2-.4,1.8-.9.2.4-1.8.9ZM650.3,268.6l-1-.4h0l-.8-.3.2-.5,1.9.7-.2.5ZM647.5,267.5l-1-.4h0s-.9-.3-.9-.3l.2-.5,1.9.7-.2.5ZM644.7,266.5l-1.8-.7h0s.2-.5.2-.5l1.9.7-.2.5ZM641.9,265.4h0s0,0,0,0l-1.9-.4v-.5c.1,0,2,.4,2,.4h.1s-.2.5-.2.5ZM639,264.8l-2-.4v-.5c.1,0,2.1.4,2.1.4v.5ZM636.1,264.1l-2-.4v-.5c.1,0,2.1.4,2.1.4v.5ZM633.1,263.5h-.5c0-.1,0-.1,0-.1l-1.3-.7.2-.4,1.2.7h.5c0,0-.1.6-.1.6h0ZM630.4,262.2l-1.8-1,.2-.4,1.8,1-.2.4ZM626,261.2l-.2-.5,1.7-.8.6.3-.2.4-.3-.2h0s0,0,0,0h0s0,0,0,0h0s-1.4.6-1.4.6ZM623.3,262.5l-.2-.5,1.8-.8.2.5-1.3.6h0l-.5.2ZM621.3,264.2h-.5v-1.1l1.4-.6.2.5-1.1.5v.8ZM621.3,267.2h-.5v-2h.5v2Z"/>
</svg>