<?xml version="1.0" encoding="UTF-8"?>
<svg id="Layer_1" xmlns="http://www.w3.org/2000/svg" version="1.1" viewBox="0 0 1184 579">
  <!-- Generator: Adobe Illustrator 29.2.1, SVG Export Plug-In . SVG Version: 2.1.0 Build 116)  -->
  <defs>
    <style>
      .st0 {
        fill: none;
      }

      .st1 {
        fill: #fff;
      }
    </style>
  </defs>
  <rect class="st0" width="1184" height="579"/>
  <path class="st1" d="M372.7,192l-.5-.2c.2-.4.5-1.1.8-1.8l.5.2c-.3.7-.6,1.4-.8,1.8ZM374,189.3l-.5-.2c.3-.7.6-1.4.7-1.8l.5.2c-.2.5-.4,1.1-.7,1.9h0ZM374.9,186.4h-.5c0-.7-.3-1.3-.6-1.8l.5-.2c.3.6.5,1.3.6,2,0,0,0,0,0,0h0ZM373.4,183.7c-.3-.6-.7-1.1-1.1-1.6l.4-.3c.5.5.9,1.1,1.2,1.7l-.4.3ZM5.8,181.8l-.2-.5c.4-.1,1.1-.4,1.9-.6l.2.5c-.8.3-1.5.5-1.9.7h0ZM4.6,181.7l-1.7-1.1.3-.4,1.7,1.1-.3.4ZM371.7,181.2c-.2-.7-.3-1.4-.2-2.1h.5c0,.7,0,1.3.2,1.9l-.5.2ZM8.6,180.8l-.2-.5c.7-.3,1.3-.5,1.9-.7l.2.5c-.5.2-1.2.4-1.9.7h0ZM2.1,180.1l-1.6-1h0c0-.1,0-.2,0-.2l.5-.2s0,0,0,0l1.5.9-.3.4ZM11.4,179.7l-.2-.5c.4-.2.8-.4,1.2-.6.2-.1.4-.2.6-.3l.2.5c-.2,0-.3.2-.5.2-.4.2-.9.4-1.3.6h0ZM14.1,178.5l-.2-.5c.5-.2,1-.4,1.6-.6h.3c0,0,.2.4.2.4h-.3c-.6.3-1.1.5-1.6.7h0ZM372,178.2h-.5c0-.8.2-1.6.3-2.1h.5c0,.6-.2,1.3-.3,2.1h0ZM.8,177.8h-.5c.2-.8.6-1.4,1.3-1.8l.3.4c-.5.3-.9.8-1.1,1.4h0ZM17,177.5l-.2-.5c.8-.3,1.3-.5,1.9-.7l.2.5c-.5.2-1.1.4-1.9.7h0ZM19.8,176.4l-.2-.5c.4-.2.8-.4,1.1-.6.2-.1.4-.2.6-.4l.2.4c-.2.1-.4.2-.6.3-.4.2-.8.4-1.2.6h0ZM2.7,176l-.2-.5c.2,0,.5-.2.8-.3l1.1-.3v.5c.1,0-1,.3-1,.3-.3,0-.5.2-.8.3h0ZM371.8,175.7l-1.9-.7.2-.5,1.9.7-.2.5ZM5.5,175.2v-.5c.5-.2,1.1-.4,1.8-.6v.5c-.5.2-1.2.4-1.8.6h0ZM22.4,175l-.2-.5c.6-.3,1.2-.5,1.8-.7h0s.2.4.2.4h0c-.6.2-1.1.5-1.7.7h0ZM369,174.6l-1.9-.7.2-.5,1.9.7-.2.5ZM8.4,174.3v-.5c.6-.2,1.2-.4,1.8-.6v.5c-.4.2-1.1.4-1.8.6h0ZM25.2,173.9l-.2-.5c.5-.2,1.1-.5,1.6-.8,0,0,.1,0,.2-.1l.2.4c0,0-.1,0-.2.1-.5.3-1.1.6-1.6.8h0ZM366.2,173.6l-1.4-.5-.4-.4.4-.4.3.3,1.3.5-.2.5ZM11.3,173.5v-.5c.6-.2,1.2-.4,1.2-.4,0,0,.2,0,.5-.2l.2.5c-.3.1-.5.2-.5.2h0s-.5.2-1.4.4h0ZM14.2,172.5l-.2-.5c.6-.2,1.3-.5,1.8-.8l.2.5c-.6.3-1.2.5-1.9.8h0ZM27.9,172.5l-.2-.5c.6-.3,1.2-.5,1.9-.8l.2.5c-.7.3-1.3.5-1.8.8h0ZM363.7,171.9l-1.4-1.4.4-.4,1.4,1.4-.4.3ZM30.6,171.4l-.2-.5c.5-.2,1.2-.5,1.8-.8l.2.5c-.6.3-1.3.6-1.9.8h0ZM16.9,171.4l-.2-.5c.7-.3,1.3-.6,1.8-.9l.2.4c-.5.3-1.2.6-1.8.9h0ZM33.4,170.1l-.2-.4c.5-.2.9-.5,1.3-.9,0,0,.2-.2.2-.2l.3.4c0,0-.1.1-.2.2-.4.4-.9.8-1.5,1h0ZM19.7,170l-.2-.4c.4-.2.9-.5,1.3-.8l.3-.3.3.4-.3.3c-.4.3-.9.6-1.3.9h0ZM361.6,169.8l-1.4-1.4.4-.4c.4.4.9.9,1.4,1.4l-.4.4ZM35.9,168.4l-.2-.4c.6-.3,1.2-.6,1.9-.8l.2.5c-.6.2-1.2.5-1.8.7h0ZM22.1,168.2l-.3-.4c.5-.4,1-.8,1.5-1.3l.3.4c-.6.5-1.1.9-1.6,1.3h0ZM359.5,167.7c-.5-.5-.9-1-1.3-1.5l.4-.3c.4.5.8,1,1.3,1.5l-.4.3ZM38.6,167.4v-.5c.4-.2,1.1-.4,1.8-.6v.5c-.6.2-1.2.4-1.8.6h0ZM41.5,166.6v-.5c.2,0,.5-.2.8-.2.4-.1.8-.2,1-.3h0s.1.5.1.5h0c-.2,0-.5.1-1,.3-.3,0-.6.2-.9.2h0ZM24.4,166.3l-.3-.4c.5-.4,1-.8,1.5-1.3l.3.4c-.5.4-1,.9-1.5,1.3h0ZM44.4,165.8v-.5c.2,0,.6-.1,1-.2l.9-.2v.5c0,0-.8.2-.8.2-.4,0-.7.1-1,.2h0ZM357.5,165.3c-.4-.6-.6-1-.7-1.1l-.4-.6.4-.3.4.6s.2.4.6,1.1l-.4.3ZM47.3,165.3v-.5c.7-.2,1.3-.3,1.8-.4v.5c-.4.1-1.1.3-1.9.4h0ZM50.3,164.6l-.2-.5c.2,0,.4-.2.6-.2.4-.2.7-.4,1.1-.7l.3.4c-.4.3-.7.5-1.1.7-.2.1-.5.2-.7.3h0ZM26.7,164.4l-.3-.4h.2c0-.1,0-.2,0-.2.5-.2,1.1-.5,1.5-.9l.3.4c-.5.4-1,.7-1.6.9h-.1ZM52.9,163l-.3-.4c.5-.4,1-.8,1.5-1.3l.3.4c-.5.5-1.1.9-1.5,1.3h0ZM356,162.8l-1.1-1.7.4-.3,1.1,1.7-.4.3ZM29.2,162.7l-.3-.4c.5-.4.8-1,1-1.6h.5c-.2.8-.6,1.4-1.2,1.9h0ZM55.2,161l-.4-.4c.4-.4.9-.9,1.4-1.4l.4.3c-.5.5-1,1-1.4,1.4h0ZM354.3,160.3l-1.2-1.6.4-.3,1.2,1.6-.4.3ZM30.7,160.1l-.4-.3c.3-.4.7-.8,1.1-1.1,0,0,.2-.1.3-.2,0,0,0,0,0,0h.5c0,.2-.2.3-.4.5-.4.3-.7.6-1,1h0ZM57.3,158.8l-.4-.3c.1-.1.3-.3.4-.4.3-.3.6-.7.9-1.1l.4.3c-.3.4-.6.7-.9,1.1-.1.1-.3.3-.4.4h0ZM30.9,158.6c-.2,0-.4,0-.8,0-.4,0-.8,0-1.2-.1v-.5c.4,0,.8,0,1.3.1.3,0,.6,0,.8,0v.5ZM26,158.3v-.5c.6,0,1.3,0,2,0v.5c-.7,0-1.3,0-2,0ZM24.8,158.2l-1.1-1.7.4-.3,1.1,1.7-.4.3ZM352.6,157.8l-1.2-1.6.4-.3,1.2,1.6-.4.3ZM59.2,156.5l-.4-.3c.4-.5.8-1,1.2-1.6l.4.3c-.4.5-.8,1.1-1.2,1.6h0ZM23.2,155.7l-1.1-1.7.4-.3,1.1,1.7-.4.3ZM350.8,155.4l-1-1.4v-.3c-.1,0,.3-.2.3-.2v.2c0,0,1.1,1.4,1.1,1.4l-.4.3ZM61.1,154.1l-.4-.3c.7-1,1.1-1.6,1.1-1.6l.4.3s-.5.7-1.2,1.6h0ZM22.1,152.9c0-.6-.2-1.2-.6-1.7l.3-.4c.5.6.7,1.3.7,2h-.5ZM349.3,152.7l-.7-1.9.5-.2.7,1.9-.5.2ZM18.8,151.1v-.5c.1,0,.3,0,.5,0,.5,0,1,0,1.5,0v.5c-.5,0-1,0-1.4,0-.2,0-.4,0-.6,0h0ZM17.7,151.1c-.2,0-.5,0-.8-.1-.4,0-.8-.2-1.2-.3v-.5c.5.1.9.2,1.3.3.3,0,.5,0,.7.1v.5ZM14.8,150.3c-.8-.3-1.4-.6-1.9-.7l.2-.5c.4.2,1.1.5,1.8.7l-.2.5ZM348.2,150l-.7-1.9.5-.2.7,1.9-.5.2ZM12,149c-.4-.3-1-.9-1.5-1.4l.4-.3c.5.5,1,1,1.4,1.4l-.3.4ZM347.1,147.2l-.7-1.9.5-.2.7,1.9-.5.2ZM9.9,146.8c-.2-.3-.4-.7-.5-1,0-.4,0-.7.1-1h.5c0,.4-.1.7-.1,1,0,.3.2.6.4.8l-.4.3ZM346,144.4l-.5-1.3-.2-.5.4-.2.3.5.5,1.3-.5.2ZM10.3,143.9l-.5-.2c.3-.6.3-1.2.1-1.8l.4-.2c.3.7.2,1.5,0,2.1h0ZM344.8,141.7l-.9-1.8.4-.2.9,1.8-.4.2ZM9.3,141.4c-.5-.5-1-1-1.3-1.6l.4-.3c.3.5.8,1,1.2,1.5l-.3.4ZM343.4,139l-.7-1.4.2-.6.5.2-.2.4.6,1.2-.4.2ZM7.4,139c-.3-.6-.6-1.2-.8-1.9h.5c.2.5.4,1.1.7,1.7l-.4.2ZM343.7,136.3l-.5-.2.7-1.9.5.2-.7,1.9ZM7.1,136.1h-.5c0-.4.2-.6.5-.8.4-.2.7-.5,1-.8l.4.4c-.3.3-.7.6-1.2.9-.1,0-.2.2-.2.3h0ZM9.2,134.1l-.4-.3c.2-.3.4-.6.6-.9.1-.3.2-.5.4-.8l.4.3c-.1.2-.3.5-.4.7h0s0,0,0,0c-.2.3-.4.6-.7.9h0ZM344.8,133.5l-.5-.2.7-1.9.5.2-.7,1.9ZM10.8,131.6l-.4-.3c.5-.5,1.2-.9,1.9-1v.5c-.6,0-1.1.4-1.5.8h0ZM18.2,131c-.4,0-.9-.1-1.3-.3-.2,0-.4-.2-.7-.2v-.5c.4,0,.6.1.9.2.4.1.7.2,1.1.2v.5ZM19.3,131v-.5c.5,0,1-.1,1.5-.2,0,0,.1-.1.2-.2l.4.3c-.2.2-.2.3-.3.3h0c0,0,0,0,0,0-.5.1-1.1.2-1.7.3h0ZM13.3,130.7v-.5c.4,0,.9,0,1.2-.1.3,0,.5,0,.7,0v.5c-.2,0-.4,0-.7,0-.4,0-.8.1-1.3.1h0ZM345.9,130.7h-.3c0-.1-.2,0-.2,0,0,0-.3-.7-.7-1.8l.5-.2c.4,1.1.7,1.8.7,1.8h0c0,0,0,.2,0,.2ZM21.9,129.6l-.4-.3c.4-.5.8-1,1.1-1.6l.4.2c-.3.6-.7,1.2-1.2,1.7h0ZM344.4,127.8c-.1-.4-.3-.8-.4-1.3,0-.2-.1-.5-.1-.7h.5c0,.2,0,.4.1.6.1.4.2.8.4,1.2h-.5ZM10.7,127.2c-.3,0-.7,0-1,0v-.5c.7,0,1.3,0,2,0v.5c-.3,0-.6,0-1,0h0ZM8.6,127.1c-.9-.1-1.5-.3-1.5-.3h-.1s-.3-.5-.3-.5l.4-.2.2.3c.2,0,.7.2,1.4.3v.5ZM19.9,126.9c-.5,0-1,0-1.5,0v-.5c.7,0,1.4,0,2,0v.5c-.2,0-.4,0-.5,0h0ZM22.9,126.9c0,0,0-.1,0-.1,0,0-.1,0-.5,0-.3,0-.6,0-1,.1v-.5c.3,0,.6,0,.9-.1.3,0,.6,0,.9.1.1.1.2.3.2.5h-.5ZM345.6,126.8v-.2c-.4-.3-.7-.6-.9-.8l.3-.4c.3.2.5.5.7.7.1,0,.3-.2.5-.3l.3.4c-.4.3-.7.4-.7.5h-.2ZM17.4,126.8c-.2,0-.4,0-.4,0h0c-.5-.2-1-.3-1.5-.4v-.5c.6,0,1.1.2,1.7.4,0,0,.2,0,.4,0v.5ZM12.7,126.7l-.3-.4h0c.5-.4,1.2-.6,1.8-.6h.2v.5h-.2c-.5,0-1.1,0-1.5.4h0ZM347.3,125.7l-.3-.4c.5-.4,1.1-.8,1.5-1.3l.3.4c-.5.4-1,.9-1.6,1.3h0ZM6.3,125.3l-1-1.8.4-.2,1,1.8-.4.2ZM349.6,123.6l-.4-.3c.2-.2.4-.4.6-.7.2-.3.5-.6.8-.8l.4.4c-.3.3-.5.5-.7.8-.2.2-.4.5-.6.7h0ZM4.8,122.7c-.2-.3-.7-1-1.1-1.7l.4-.2c.4.7.8,1.3,1.1,1.7l-.4.3ZM351.7,121.6l-.2-.4c.3-.1.5-.3,1.1-1.2,0,0,.1-.2.1-.2l.4.3c0,0-.1.2-.2.2-.3.5-.7,1-1.3,1.3h0ZM3.3,120.1c-.4-.9-.4-1.5,0-1.8,0,0,.2-.2.4-.3l.3.4c-.1,0-.2.2-.3.2-.1,0-.1.5.2,1.2l-.5.2ZM353.6,119.1l-.5-.2c.3-.6.4-1.2.5-1.8h.5c0,.7-.2,1.4-.5,2.1h0ZM4.7,117.9l-.3-.4c.5-.3,1-.7,1.7-1.1l.3.4c-.7.4-1.2.8-1.7,1.1h0ZM7.2,116.3l-.2-.3h0s0,0,0-.1h0s0,0,0,0c.1-.6.5-1.2,1-1.6l.3.4c-.4.3-.7.8-.8,1.4h0c0,.1-.2.3-.2.3ZM353.6,116.1c0-.7-.1-1.3-.2-2h.5c.1.6.2,1.3.2,1.9h-.5ZM12,114.4v-.5c0,0,.3-.1.6-.2.4-.1.7-.3,1-.6l.3.4c-.3.3-.7.5-1.1.6-.3.1-.5.2-.7.3h0ZM9.1,114.3v-.5c0,0,.3-.1.5-.1,1-.1,1.3,0,1.5.2l-.3.4c-.1,0-.4-.2-1.2,0-.2,0-.4,0-.6.1h0ZM353.2,113.2c-.1-.6-.3-1.2-.5-1.9h.5c.2.6.4,1.2.5,1.8h-.5ZM14.6,112.7l-.4-.3c.4-.5.7-1.1.9-1.7h.5c-.2.8-.5,1.4-1,2h0ZM14.7,110.5l-1.9-.7.2-.5,1.9.7-.2.5ZM352.4,110.3c-.2-.6-.5-1.2-.8-1.7l.4-.3c.4.6.7,1.2.9,1.9l-.5.2ZM11.8,109.5l-1.9-.7.2-.5,1.9.7-.2.5ZM9,108.7h-2.1v-.4h.2c0,0,1.8,0,1.8,0v.5ZM351,107.8c-.4-.5-1-.8-1.6-1.1l.2-.5c.7.3,1.2.7,1.7,1.2l-.4.3ZM7.4,107.3h-.5v-2h.5v2ZM345.5,106.6l-1.7-1.1.3-.4,1.7,1.1-.3.4ZM348.5,106.5c-.6-.1-1.3-.1-1.9,0v-.5c.6-.1,1.3-.1,2,0v.5ZM343,105l-1.7-1.1.3-.4,1.7,1.1-.3.4ZM192.8,104.4c-.1,0-.2,0-.4,0-.2,0-.4,0-.8,0v-.5c.4,0,.7,0,.9,0,.4,0,.7,0,1.1,0v.5c-.2,0-.5,0-.8.1h0ZM183.6,104.4h0s-.4-.1-1-.3l.2-.5c.5.2.8.3.9.3h.9s0,.5,0,.5h-1s0,0,0,0ZM214.3,104.4v-.5c.4,0,1.1-.1,1.9-.3v.5c-.8.1-1.5.2-1.9.3h0ZM185.6,104.3v-.5c.7,0,1.4,0,2,0v.5c-.6,0-1.3,0-2,0h0ZM7.4,104.3h-.5v-.3l1-1.5.4.3-1,1.4h0ZM213.2,104.3c-.4-.1-1-.3-1.9-.7l.2-.5c.9.3,1.5.6,1.9.7v.5ZM190.6,104.3c-.6,0-1.2,0-2,0v-.5h2v.5ZM194.6,104l-.2-.5c.5-.2,1.1-.4,1.8-.7l.2.5c-.8.3-1.4.6-1.9.8h0ZM217.3,103.9v-.5c.5,0,1.2-.2,1.9-.4v.5c-.6.1-1.3.3-1.9.4h0ZM181.6,103.7c-.6-.3-1.2-.6-1.8-1l.3-.4c.5.4,1.1.7,1.7.9l-.2.5ZM220.3,103.4v-.5c.5-.1,1.2-.3,1.9-.4v.5c-.6.1-1.2.3-1.9.4h0ZM340.4,103.4l-1.3-.9h0s-.1-.2-.3-.4l.4-.3c.1.2.2.3.2.3l1.3.8-.3.4ZM210.4,103.3c-.6-.2-1.2-.5-1.9-.8l.2-.5c.7.3,1.3.5,1.9.8l-.2.5ZM197.4,102.8l-.2-.5.5-.2h.1c.4-.2.8-.4,1.3-.5l.2.5c-.4.1-.8.3-1.2.5h-.1c0,0-.5.3-.5.3ZM223.2,102.8v-.5c.4,0,.7-.2.9-.2l.3-.7.5.2-.4.9h-.1s-.4.1-1.1.3h0ZM207.6,102.1c-.6-.2-1.2-.5-1.8-.8l.2-.5c.6.3,1.3.5,1.8.8l-.2.5ZM179,102.1c-.5-.4-.9-.9-1.1-1.5,0,0,0-.1,0-.2l.4-.2c0,0,0,.1.1.2.2.5.6,1,1,1.3l-.3.4ZM9,102l-.4-.3.9-1.4h.6v.5h-.3l-.8,1.2ZM200.2,101.8v-.5c.4-.2,1.1-.3,1.8-.5v.5c-.6.2-1.3.3-1.8.5h0ZM338.3,101.3c-.4-.6-.7-1.2-1-1.8l.5-.2c.3.6.6,1.2.9,1.7l-.4.3ZM203.1,101.1v-.5c.8-.2,1.4-.3,1.4-.3h0s0,0,0,0l.4.2-.2.5-.4-.2c-.2,0-.7.1-1.4.3h0ZM172.5,100.8v-.5s0,0,0,0c.4,0,.8-.2,1.2-.4.2,0,.4-.2.6-.2l.2.5c-.2,0-.4.2-.5.2-.4.2-.9.4-1.4.4h0ZM15.5,100.8h-1.4v-.5h1.2l.4-.4.4.3-.5.6ZM13.1,100.8h-2v-.5h2v.5ZM171.5,100.7c-.7,0-1.3-.3-2-.5l.2-.5c.6.2,1.3.4,1.9.5v.5ZM225.2,100.7l-.5-.2.8-1.8.5.2-.8,1.8ZM168.5,99.9c-.6-.3-1.2-.7-1.7-1.1l.4-.4c.5.4,1,.8,1.6,1l-.2.5ZM177.2,99.9c-.6-.2-1.2-.3-1.8,0v-.5c.6-.3,1.3-.2,2,0l-.2.4ZM16.7,99.5l-.4-.3,1.3-1.5.4.3-1.3,1.5ZM109.2,98.6c-.4,0-.9,0-1.5,0v-.5c.7,0,1.3,0,2,0v.5c-.2,0-.4,0-.6,0h0ZM110.8,98.5v-.5s.1,0,.3-.2c.2-.1.7-.4,1.3-.8l.2.4c-.6.4-1.1.6-1.3.8-.2,0-.3.2-.5.2h0ZM106.8,98.5c-.7,0-1.1-.2-1.2-.2h0s-.8-.4-.8-.4l.2-.5.7.3c.1,0,.5,0,1.1.2v.5ZM337,98.4c0-.1,0-.3,0-.4,0-.5,0-1-.2-1.5h.5c.2.4.3,1,.2,1.6,0,.1,0,.2,0,.3h-.5ZM226.4,98l-.5-.2.8-1.8.5.2-.8,1.8ZM166.2,98c-.4-.4-1-.8-1.6-.9l.2-.5c.7.2,1.3.6,1.8,1.1l-.4.3ZM103.9,97.5l-1.8-.8.2-.5,1.8.8-.2.5ZM18.7,97.2l-.4-.3.8-.8.5-.7.4.3-.5.7-.8.8ZM113.5,97l-.2-.4c.6-.3,1.1-.7,1.7-1l.2.4c-.6.3-1.2.7-1.7,1h0ZM163.6,96.8c-.6-.1-1.3-.2-1.9-.3v-.5c.7,0,1.4.1,2.1.3v.5ZM160.7,96.4l-1.9-.5v-.5c.1,0,2.1.5,2.1.5v.5ZM101.1,96.3l-1.8-.8.2-.5,1.8.8-.2.5ZM157.7,95.7l-1.9-.5v-.5c.1,0,2.1.5,2.1.5v.5ZM336.4,95.6c-.2-.6-.7-1.1-1.2-1.4l.3-.4c.6.4,1.1,1,1.4,1.6l-.4.2ZM116.1,95.5l-.2-.4,1.7-1,.2.4-1.7,1ZM227.6,95.2l-.5-.2.6-1.3v-.5h.5v.6l-.6,1.4ZM98.4,95l-1.8-.8.2-.5,1.8.8-.2.5ZM154.8,95l-1.9-.5v-.5c.1,0,2.1.5,2.1.5v.5ZM20.6,94.8l-.4-.3,1.2-1.6.4.3-1.2,1.6ZM151.9,94.3l-1.2-.3h-.7v-.5h.8l1.2.3v.5ZM118.7,94.1l-.2-.4h.2c0-.1,0-.1,0-.1l1.7-.5v.5c.1,0-1.5.5-1.5.5h-.2ZM149,94h-2v-.5h2v.5ZM146,94h-2v-.5h2v.5ZM143,94h-2v-.5h2v.5ZM140,94h-1l-.9-.7.3-.4.8.6h.8v.5ZM95.7,94h-2v-.5h2v.5ZM92.7,94h-2v-.5h2v.5ZM89.7,94h0s-.8-.2-1.9-.5v-.5c1.2.3,2,.5,2,.5v.2s0,.3,0,.3ZM334.4,94c-.7-.2-1.3-.4-1.9-.8l.2-.4c.5.3,1.1.6,1.8.8v.5ZM86.8,93.2c-.7-.2-1.4-.4-1.9-.6v-.5c.7.2,1.3.3,2.1.6v.5ZM121.5,93.2v-.5c-.1,0,1.8-.6,1.8-.6v.5c.1,0-1.8.6-1.8.6ZM137.3,92.7l-.7-.5c-.1,0-.5,0-1-.2v-.5c.7.1,1.1.2,1.2.2h0s0,0,0,0l.7.5-.3.4ZM331.6,92.6c-.5-.3-1.1-.7-1.7-1.1l.3-.4c.6.4,1.1.8,1.6,1.1l-.3.4ZM22.3,92.4l-.4-.3.3-.4h0s1.5-.6,1.5-.6l.2.5-1.4.5-.2.3ZM83.9,92.3c-.2,0-.4-.1-.5-.2-.5-.1-.9-.2-1.4-.2v-.5c.5,0,1.1,0,1.6.2.1,0,.3,0,.5.2v.5ZM124.4,92.3v-.5c-.1,0,.2,0,.2,0,.4-.3.9-.6,1.3-.9l.2.4c-.5.3-.9.6-1.3.9h0s-.4.2-.4.2ZM228.3,92.2h-.5v-2h.5c0-.1,0,0,0,0v2ZM79.2,92.2h-.3c0,0,.1-.6.1-.6h.2c.2,0,.9,0,1.7-.1v.5c-.9,0-1.7.2-1.7.2h0ZM78,91.9l-1.9-.5v-.5c.1,0,2.1.5,2.1.5v.5ZM134.6,91.8c-.7-.1-1.4-.3-2-.4v-.5c.7.1,1.4.3,2.1.4v.5ZM24.9,91.2l-.2-.5,1.9-.7.2.5-1.9.7ZM131.6,91.2c-.7-.2-1.3-.4-1.9-.6l.2-.5c.6.3,1.2.5,1.8.6v.5ZM75.1,91.1l-1.9-.5v-.5c.1,0,2.1.5,2.1.5v.5ZM329.1,90.9c-.4-.3-.6-.4-.6-.4h0s-1-.8-1-.8l.3-.4,1,.8s.2.2.6.4l-.3.4ZM127,90.8l-.2-.5c.6-.3,1.3-.5,2-.5h0v.5c-.6,0-1.3.2-1.8.5h0ZM72.2,90.5h-2v-.5h2v.5ZM69.2,90.5h-2v-.5h2v.5ZM66.2,90.5h-2.1s.1-.5.1-.5h.1s1.8,0,1.8,0v.5ZM63.2,90.3l-2-.4v-.5c.1,0,2.1.4,2.1.4v.5ZM27.6,90l-.2-.4,1.8-1,.2.4-1.8,1ZM60.3,89.7l-2-.4v-.5c.1,0,2.1.4,2.1.4v.5ZM227.3,89.5c-.3-.6-.7-1.1-1.1-1.6l.4-.3c.4.5.8,1.1,1.2,1.7l-.4.3ZM57.3,89.1l-2-.4v-.5c.1,0,2.1.4,2.1.4v.5ZM326.8,89l-1.5-1.3.3-.4,1.5,1.3-.3.4ZM30.3,88.6l-.2-.4h0s1.6-1.2,1.6-1.2l.3.4-1.6,1.2h0ZM54.4,88.3l-1.9-.7.2-.5,1.9.7-.2.5ZM51.6,87.2l-1.9-.7.2-.5,1.9.7-.2.5ZM225.5,87.2c-.5-.5-1-1-1.4-1.4l.3-.4c.5.4.9.9,1.4,1.4l-.4.3ZM324.5,87l-1.5-1.3.3-.4,1.5,1.3-.3.4ZM32.7,86.8l-.3-.4,1.6-1.2.3.4-1.6,1.2ZM48.8,86.1l-1.9-.7.2-.5,1.9.7-.2.5ZM46,85.3h-2v-.5h2v.5ZM43,85.3h-2v-.5h2v.5ZM40,85.3h-2v-.5h2v.5ZM37,85.3h-2v-.5h2v.5ZM223.4,85.1c-.5-.4-1-.8-1.6-1.1l.3-.4c.6.3,1.1.7,1.7,1.2l-.3.4ZM322.3,85.1l-1.5-1.3.3-.4,1.5,1.3-.3.4ZM220.9,83.6c-.5-.2-1.1-.3-1.9-.5v-.5c.9.2,1.6.3,2.1.5l-.2.5ZM320,83.1l-1.5-1.3.3-.4,1.5,1.3-.3.4ZM218,82.8c-.6-.1-1.3-.3-1.9-.5v-.5c.8.2,1.5.4,2.1.5v.5ZM215.1,82c-.7-.2-1.3-.6-1.8-1.1l.4-.3c.4.5,1,.8,1.6,1l-.2.5ZM317.7,81.1l-1.5-1.3.3-.4,1.5,1.3-.3.4ZM213.6,79.8h-.5c0-.3.2-.5.3-.7.3-.4.5-.8.8-1.2l.4.3c-.2.4-.5.8-.8,1.2,0,.1-.2.3-.2.4h0ZM315.5,79.4c-.4-.1-1.1-.3-1.9-.6l.2-.5c.8.3,1.5.5,1.9.6v.5ZM312.6,78.4c-.6-.3-1.2-.6-1.8-.9l.2-.4c.6.3,1.2.6,1.8.9l-.2.5ZM215.1,77.3l-.4-.3c.5-.8.8-1.4,1-1.7l.4.2c-.2.4-.5,1-1,1.7h0ZM309.9,76.9c-.6-.4-1.1-.9-1.5-1.4l.4-.3c.4.5.9.9,1.4,1.3l-.3.4ZM216.6,74.7l-.4-.3,1.1-1.6.4.3-1.1,1.6ZM307.9,74.6c-.3-.6-.7-1.1-1.2-1.5l.4-.4c.5.5.9,1,1.3,1.6l-.4.3ZM306,72.4c-.5-.4-1-.8-1.6-1.1l.3-.4c.6.3,1.1.7,1.7,1.2l-.3.4ZM218.3,72.3l-.4-.3,1-1.5s0,0,.2-.2l.4.3c0,0-.1.1-.2.2l-1,1.4ZM268.2,71.1c-.7,0-1.4-.1-2-.3v-.5c.7.2,1.4.2,2,.3v.5ZM269.3,71v-.5s0,0,.1,0c.4-.1.9-.3,1.4-.5h.2c0,0,.2.4.2.4h-.2c-.5.2-1,.4-1.4.5,0,0-.2,0-.3,0h0ZM303.6,70.9c-.3,0-1,0-2-.2v-.5c1,0,1.8.1,2,.2v.5ZM300.6,70.7c-.7,0-1.4-.1-2-.2v-.5c.7,0,1.4.1,2,.2v.5ZM265.2,70.5c-.6-.2-1.3-.5-1.9-.7l.2-.5c.6.3,1.2.5,1.8.7l-.2.5ZM297.6,70.3c-.7,0-1.4-.2-2-.3v-.5c.7,0,1.3.2,2.1.3v.5ZM272.2,70.1l-.2-.5c.7-.2,1.4-.4,1.9-.6v.5c-.4.2-1,.3-1.8.6h0ZM220.1,70l-.3-.4c.5-.4,1.1-.9,1.6-1.2l.3.4c-.6.4-1.1.7-1.6,1.2h0ZM294.6,69.9c-.8-.1-1.5-.3-2-.4v-.5c.6.1,1.3.3,2.1.4v.5ZM262.4,69.3c-.3-.1-.5-.3-.7-.4-.3-.2-.7-.3-1.1-.3v-.5c.5,0,1,.2,1.4.4.2.1.4.2.6.4l-.2.4ZM275,69.2v-.5c.5-.2,1.2-.3,1.9-.4v.5c-.6,0-1.2.2-1.9.3h0ZM291.7,69.2c-.1,0-.3-.1-.4-.2-.4-.2-.9-.4-1.4-.3v-.5c.6,0,1.2.1,1.7.4,0,0,.2.1.3.2l-.2.5ZM280.9,69.2v-.5c.5,0,1.2,0,2,0v.5c-.8,0-1.4,0-2,0h0ZM279.9,69.1c-.3,0-.5,0-.8-.1-.4,0-.8-.1-1.2-.1v-.5c.4,0,.9,0,1.3.2.2,0,.5,0,.7.1v.5ZM256.7,69h-2v-.5h2v.5ZM253.7,69h-.6s-.6,0-1.4,0v-.5c.8,0,1.4,0,1.4,0h.6v.5ZM283.9,69v-.5c.4,0,.8,0,1.3-.1h.7c0,0,0,.4,0,.4h-.7c-.4,0-.9.1-1.3.2h0ZM257.8,68.9v-.5c.6-.1,1.2-.2,1.9-.3v.5c-.6,0-1.3.1-1.9.3h0ZM250.7,68.9c-.7,0-1.4-.1-2-.2v-.5c.7,0,1.3.2,2,.2v.5ZM286.9,68.7v-.5c.8,0,1.4,0,2-.1v.5c-.5,0-1.2,0-2,.1h0ZM247.7,68.5c-.7-.1-1.3-.3-2-.6l.2-.4c.6.3,1.2.5,1.8.6v.5ZM222.5,68.4l-.2-.4c.6-.3,1.3-.5,1.9-.7v.5c-.5.1-1.1.3-1.7.6h0ZM229.8,67.9c-.5,0-1.1,0-1.6,0v-.5c.7,0,1.3,0,2,0v.5c-.1,0-.3,0-.4,0h0ZM231.3,67.8v-.5c.3,0,.7,0,1.1-.2.3,0,.6,0,.9-.1v.5c-.2,0-.5,0-.8.1-.4,0-.8.1-1.2.2h0ZM240.3,67.8c0,0-.1,0-.2,0v-.5c.6,0,1.2-.1,1.8-.3h.2s.1.4.1.4h-.2c-.6.2-1.1.3-1.7.3h0ZM227.3,67.7h-.2c-.4,0-.9,0-1.4-.1-.1,0-.3,0-.4,0v-.5c.1,0,.3,0,.4,0,.5,0,1,0,1.4,0h.2s0,.5,0,.5ZM237.5,67.6h-.1s-.2,0-.2,0v-.4c0,0,0,0,0,0h0s0,0,0,0h0c.6-.3,1.3-.4,1.9-.1v.5c-.6-.2-1.2-.2-1.7.1h0ZM236.2,67.5c-.7,0-1.3,0-2,0v-.5c.7,0,1.3,0,2,0v.5ZM244.9,67.3c-.6-.2-1.2-.3-1.8-.1v-.5c.6-.2,1.4,0,2,.2l-.2.5Z"/>
</svg>