<?xml version="1.0" encoding="UTF-8"?>
<svg id="Layer_1" xmlns="http://www.w3.org/2000/svg" version="1.1" viewBox="0 0 1184 579">
  <!-- Generator: Adobe Illustrator 29.2.1, SVG Export Plug-In . SVG Version: 2.1.0 Build 116)  -->
  <defs>
    <style>
      .st0 {
        fill: none;
      }

      .st1 {
        fill: #fff;
        isolation: isolate;
        opacity: 1;
      }
    </style>
  </defs>
  <rect class="st0" width="1184" height="579"/>
  <path class="st1" d="M290.5,350.7h-2v-.5h2v.5ZM287.5,350.7h-.1c-.6,0-1.3-.2-1.9-.4v-.5c.7.2,1.3.3,1.9.4h0v.5ZM291.4,350.1h-.5v-1.4l.2-.6.5.2-.2.5v1.3ZM284.5,350.1c-.7-.2-1.3-.6-1.8-1l.4-.3c.5.4,1,.7,1.6.9l-.2.5ZM282,348.3c-.5-.4-1-.8-1.6-1.1l.3-.4c.6.4,1.1.7,1.7,1.2l-.3.4ZM292,347.3l-.5-.2.5-1.3h.9v.5h-.6l-.4,1ZM279.5,346.7c-.4-.2-.7-.4-.7-.4h0s0,0,0,0l-.8-.9.4-.3.7.9c.1,0,.3.2.7.4l-.2.4ZM277.3,344.6l-.7-.8-.7-.4.2-.4.8.4h0s.7.9.7.9l-.4.3ZM275,342.9l-1.8-.9.2-.4,1.8.9-.2.4ZM272.4,341.5l-1.6-.9h0c0,0,0-.1-.1-.2l.4-.3h0c0,.1,1.5.9,1.5.9l-.2.4ZM270,339.6c-.4-.6-.7-1.2-1-1.8l.4-.2c.3.5.6,1.1,1,1.7l-.4.3ZM268.7,336.9c0-.2-.2-.5-.2-.7,0-.4-.3-.7-.5-.9l.3-.4c.4.3.7.8.7,1.3,0,.2.1.4.2.6l-.5.2ZM266.9,334.9h0c-.4-.6-.8-1.1-1.2-1.6l.4-.3c.4.5.7,1,1.2,1.5h0c0,0,0,.4,0,.4h-.2ZM265.1,332.4c-.2-.3-.8-.5-1.6-.7v-.5c1,.2,1.8.5,2,1l-.4.2ZM262.6,331.4c-.7-.2-1.3-.5-1.9-.9l.3-.4c.5.4,1.1.6,1.7.8v.5ZM259.9,329.9c-.6-.3-1.2-.5-1.8-.6v-.5c.8.1,1.5.4,2.1.7l-.3.4ZM257.2,329.1c-.6,0-1.3-.1-1.9,0h-.2s.2-.5.2-.5h0c0,0,0,0,0,0h0s0,0,0,0c.6,0,1.3,0,1.9,0v.5ZM254.2,328.6l-1.9-.7.2-.5,1.9.7-.2.5ZM251.4,327.5l-.6-.2-1.1-.9.3-.4,1.1.9.5.2-.2.5ZM248.9,325.8l-1.6-1.2.3-.4,1.6,1.2-.3.4ZM236.7,324.1v-.5c.6-.1,1.2-.3,1.8-.6l.2.5c-.6.3-1.3.5-2,.6h0ZM235.7,324c-.4,0-1.1-.3-2-.5v-.5c.9.2,1.6.4,2.1.5v.5ZM246.5,323.9l-1.6-1.2.3-.4,1.6,1.2-.3.4ZM232.7,323.3c-.8-.2-1.4-.4-1.9-.6l.2-.5c.5.2,1.2.3,1.9.5v.5ZM239.6,323l-.2-.5h.2c.5-.4,1.1-.6,1.7-.8v.5c-.4.2-.9.4-1.5.7h-.2ZM229.8,322.4c-.2,0-.3-.1-.5-.2-.2-.1-.6-.4-1.3-.8l.3-.4c.7.4,1.1.7,1.3.8.1,0,.3.1.4.2l-.2.5ZM243,322.3c-.2,0-.5,0-.7,0v-.5c.7,0,1.4,0,2,0v.5c-.4,0-.8,0-1.3,0h0ZM227.3,320.8c-.6-.3-1.1-.7-1.7-1.1l.3-.4c.5.3,1.1.7,1.7,1.1l-.3.4ZM224.7,319.2l-1.3-.8-.4-.2.2-.4.4.2,1.3.8-.3.4ZM222.1,317.8l-1.8-.9.2-.4,1.8.9-.2.4ZM219.4,316.5l-1.5-.7-.3-.2.3-.4.3.2,1.4.7-.2.4ZM216.8,315l-1.7-1.1.3-.4,1.7,1.1-.3.4ZM214.3,313.4l-1.7-1.1.3-.4,1.7,1.1-.3.4ZM211.7,311.8l-1.2-.8c-.2,0-.3-.2-.5-.3l.3-.4c.1.1.3.2.4.3h0s1.2.8,1.2.8l-.3.4ZM209.2,310c-.5-.5-.9-1-1.3-1.6l.4-.3c.3.6.7,1.1,1.2,1.5l-.3.4ZM207.5,307.4c-.2-.4-.3-.9-.4-1.3,0-.2,0-.5-.1-.7h.5c0,.1,0,.3.1.6,0,.4.2.8.3,1.2l-.5.2ZM206.8,304.5c0-.3-.3-.5-.5-.7-.3-.3-.5-.6-.5-1.1h.5c0,.2.1.5.4.7.3.2.5.5.6.9l-.5.2ZM205.7,301.8c0-.5,0-1,0-1.5v-.3c-.1,0,.3-.2.3-.2l.2.5h0c0,.6-.1,1.1,0,1.6h-.5ZM205.2,299c-.2-.5-.5-1.2-.8-1.8l.5-.2c.3.7.6,1.3.8,1.8l-.5.2ZM196.2,297.8h-.7v-.4l-.5-1.2.5-.2.8,1.9ZM194.5,297.8h-2v-.5h2v.5ZM191.4,297.6c-.3-.2-.9-.7-1.6-1.3l.3-.4c.6.5,1.2,1,1.6,1.2l-.3.4ZM204,296.3c-.3-.8-.6-1.4-.8-1.8l.5-.2c.2.5.5,1.1.8,1.8l-.5.2ZM189.1,295.7c-.5-.5-1-1-1.3-1.6l.5-.2c.3.5.7,1,1.2,1.5l-.3.4ZM194.6,295.2l-.6-1.3h0s0-.3-.1-.7h.5c0,.2.1.4.1.5l.5,1.2-.5.2ZM202.7,293.6c-.4-.5-.8-1-1.2-1.5l.4-.3c.5.5.9,1,1.3,1.6l-.4.3ZM187.2,293.3c-.5-.4-1.1-.7-1.7-.8v-.5c.8.2,1.5.5,2,1l-.3.4ZM193.7,292.3c-.1-.6-.3-1.3-.5-1.9l.5-.2c.2.6.4,1.3.6,2h-.5ZM184.7,291.8c-.6-.4-1-1-1.3-1.7l.5-.2c.3.6.7,1.1,1.2,1.5l-.3.4ZM200.8,291.4c-.6-.6-1.2-1.1-1.5-1.4l.3-.4c.3.3.9.8,1.5,1.4l-.4.4ZM192.7,289.9c-.1,0-.2,0-.3-.1-.2-.2-.2-.6-.1-1,0-.3,0-.6,0-.9h.5c0,.3,0,.6,0,.9,0,.2,0,.4,0,.6h0v.5h0s0,0,0,0h0ZM198.5,289.5l-1.7-1,.2-.4,1.7,1-.2.4ZM184,289.2h-.5c0-.7,0-1.4,0-2h.5c.1.6.2,1.3,0,2ZM195.9,288l-1.7-1,.2-.4,1.7,1-.2.4ZM191.9,287.2c0,0-.2,0-.3-.1-.6-.2-1.1-.5-1.5-.9l.3-.4c.4.4.8.6,1.3.8.1,0,.3,0,.4.2l-.3.4ZM182.9,286.8c-.6-.3-1.2-.5-1.8-.7v-.5c.8.2,1.4.5,2,.8l-.2.4ZM193.5,286.1c-.4-.6-.7-1.2-1-1.8l.4-.2c.3.5.6,1.1,1,1.7l-.4.2ZM180.1,285.7c-.6-.2-1.3-.6-1.8-1l.3-.4c.5.4,1.1.7,1.7.9l-.2.5ZM189.5,285.5c-.5-.5-.9-1-1.3-1.6l.4-.3c.4.5.8,1,1.3,1.5l-.4.3ZM177.5,284.1c-.2-.3-.5-.5-.6-.8-.2-.3-.3-.6-.5-.9l.5-.2c.1.3.3.6.4.9.2.3.4.5.6.7l-.4.3ZM192.1,283.5c-.3-.6-.6-1.3-.7-2h.5c0,.6.3,1.2.6,1.8l-.5.2ZM187.6,283.1c-.2-.3-.6-1-1.1-1.6l.4-.3c.5.7.9,1.3,1.1,1.7l-.4.3ZM176.1,281.3c-.1-.6-.2-1.1-.3-1.7v-.3s.5,0,.5,0v.3c.1.6.2,1.1.3,1.7h-.5ZM191.2,280.7c-.4-.5-.8-1-1.3-1.5l.4-.3c.5.5.9,1,1.3,1.6l-.4.3ZM185.9,280.7c-.2-.2-.4-.4-.6-.6-.3-.3-.5-.6-.7-1l.5-.2c.1.3.3.6.6.9.2.2.4.4.6.6l-.4.3ZM189.2,278.5c-.5-.5-.9-.9-1.4-1.4l.3-.4c.5.5,1,.9,1.5,1.4l-.4.4ZM175.6,278.3c0-.4,0-.9,0-1.3,0-.2,0-.4,0-.7h.5c0,.4,0,.6,0,.8,0,.4,0,.8,0,1.2h-.5ZM184.3,278c0-.6-.4-1.1-.8-1.5h0s.3-.4.3-.4h0c.5.5.9,1.1,1,1.8h-.5ZM187,276.5c-.6-.5-1.1-.9-1.5-1.2l.3-.4c.5.4,1,.8,1.6,1.3l-.3.4ZM182.6,275.9c-.5-.5-1.1-1-1.5-1.4l.4-.4c.4.4.9.9,1.5,1.3l-.3.4ZM175.4,275.5c-.3-.6-.6-1.2-1-1.7l.4-.3c.4.6.7,1.2,1,1.8l-.5.2ZM184.7,274.7c-.3-.3-.7-.4-1.1-.5h0c-.3,0-.5-.2-.7-.4l.4-.3c.1.2.2.2.3.2h0c.5,0,1,.3,1.4.6l-.3.4ZM180.4,273.8l-1.4-1.5.4-.3,1.4,1.5-.4.3ZM173.9,273c-.3-.4-.6-.8-.8-1-.1-.1-.3-.3-.4-.5l.4-.3c.2.2.3.4.5.5.2.2.5.6.8,1l-.4.3ZM182.4,272.7c-.2-.7-.3-1.3-.3-2h.5c0,.6.2,1.2.3,1.9h-.5ZM178.4,271.5l-1.2-1.6.4-.3,1.2,1.6-.4.3ZM172,270.7c-.5-.6-.9-1.1-1.3-1.6l.4-.3c.3.5.8.9,1.3,1.5l-.4.3ZM182,269.7c0-.4,0-.8,0-1.2,0-.3,0-.5,0-.8h.5c0,.2,0,.5,0,.7,0,.4,0,.8,0,1.2h-.5ZM177.3,268.9h-.5c.1-.8.3-1.4.5-2.1l.5.2c-.2.6-.4,1.3-.4,1.9h0ZM170.1,268.3c-.3-.4-.6-.9-.8-1.4,0-.1-.1-.3-.2-.4l.4-.2c0,.2.1.3.2.4.2.5.4.9.7,1.3l-.4.3ZM181.8,266.7c0-.6-.5-1.1-1.1-1v-.5c.9,0,1.5.6,1.6,1.5h-.5ZM178.2,266.1l-.4-.3c.2-.4.6-.7,1.1-.7,0,0,0,0,.1,0,.3,0,.5,0,.8,0v.5c-.3,0-.6,0-.9,0-.2,0-.5.1-.7.5h0ZM168.6,265.7c-.3-.5-.6-1-1.1-1.7l.4-.3c.4.6.8,1.2,1.1,1.7l-.4.3ZM167,263.2c-.5-.7-.9-1.3-1.1-1.5h0s.2-.5.2-.5h.1c0,0,0,0,0,0h0c0,0,.5.7,1.1,1.6l-.4.3ZM165,261.2c-.6-.4-1.1-.7-1.7-1.2l.3-.4c.5.4,1.1.8,1.6,1.1l-.3.4ZM162.6,259.4c0,0-.1-.1-.2-.2-.4-.4-.9-.7-1.4-.9l.2-.5c.6.2,1.1.6,1.5,1,0,0,.1.1.2.2l-.3.4ZM160.1,258c-.4-.1-.9-.2-1.3-.2h-.2c0,0-.4-.6-.4-.6l.4-.3.3.4c.4,0,.9,0,1.3.2v.5ZM157.6,256.4c-.4-.6-.8-1.2-1.2-1.6l.4-.3c.3.5.7,1,1.2,1.6l-.4.3ZM155.9,254c-.1-.2-.2-.3-.3-.4-.2-.2-.5-.7-.9-1.2l.4-.3c.4.5.7.9.9,1.2,0,.1.2.3.3.4l-.4.3ZM154.1,251.5c-.4-.5-.8-1.1-1.1-1.7l.4-.3c.4.5.7,1.1,1.1,1.6l-.4.3ZM152.4,249c-.4-.7-.8-1.2-1.1-1.7l.4-.3c.3.5.6,1,1.1,1.7l-.4.3ZM150.8,246.5c0,0,0-.2-.1-.2l-.8-1.6.5-.2.8,1.6c0,0,0,.1.1.2l-.4.2ZM149.5,243.7l-.9-1.8.5-.2.9,1.8-.5.2ZM148.2,241l-.3-.7c0,0-.3-.5-.6-1l.4-.3c.4.6.7,1,.7,1h0s.3.7.3.7l-.5.2ZM146.7,238.5c-.4-.6-.8-1.1-1.2-1.6l.4-.3c.4.4.8,1,1.2,1.6l-.4.3ZM144.8,236.3c-.2-.3-.6-.5-.9-.6-.3,0-.6-.2-.8-.5l.4-.2c.1.1.3.2.5.2.4.1.8.4,1.1.7l-.3.4ZM143.6,234.2l-.5-.2c0-.1.1-.2.2-.4.1-.3.3-.6.4-.9,0,0,0-.2,0-.3s0-.2,0-.3h.5c0,.2,0,.3,0,.4s0,.2,0,.3c-.1.3-.2.7-.4,1,0,.1-.1.3-.2.4h0ZM144.6,231.3h-.5c.1-.7.2-1.4.2-2h.5c0,.7,0,1.4-.2,2h0ZM144.2,228.3c0-.6-.1-1.3-.2-2h.5c.1.6.2,1.3.2,1.9h-.5ZM143.8,225.4c0-.2,0-.4-.1-.7-.1-.5-.2-.9-.3-1.3h.5c0,.2.2.7.3,1.2,0,.2.1.5.1.7h-.5ZM143.2,222.4c-.1-.7,0-.9.2-1.1,0,0,.2,0,.2-.8h.5c0,.9-.2,1.1-.5,1.2,0,.2,0,.4,0,.6h-.5ZM144.2,219.5h-.5c0-.7.1-1.4.3-2h.5c-.1.7-.2,1.4-.3,2h0ZM144.7,216.6h-.5c0-.3,0-.4.1-.6.1-.5.2-1,.3-1.4h.5c-.1.6-.2,1.1-.3,1.6,0,.2,0,.3-.1.5h0ZM145.3,213.7h-.5c0-.7.1-1.3.1-2h0s.5,0,.5,0h0c0,.7,0,1.4-.1,2h0ZM144.9,210.7c0-.7-.2-1.3-.3-2h.5c.1.6.2,1.2.3,1.9h-.5ZM144.4,207.7c-.2-.6-.3-1.3-.5-1.9l.5-.2c.2.6.4,1.3.5,1.9h-.5ZM143.5,204.9c-.2-.6-.5-1.3-.7-1.8l.5-.2c.3.6.5,1.2.8,1.9l-.5.2ZM142.3,202.2c-.3-.5-.5-1-.9-1.4,0,0-.1-.1-.2-.2l.4-.3c0,0,.1.2.2.2.3.5.6,1,.9,1.5l-.4.2ZM140.6,199.8c-.5-.4-1-.8-1.5-1.2l.3-.4c.6.4,1.1.8,1.6,1.3l-.3.4ZM138.3,198.1c-.5-.3-1.1-.6-1.7-.9l.2-.4c.6.3,1.2.6,1.8,1l-.3.4ZM135.6,196.7c-.9-.4-1.6-.7-1.8-.8l.2-.5c.3,0,1,.4,1.9.8l-.2.5ZM133,195.2c-.4-.4-.9-.9-1.4-1.4l.4-.3c.5.5,1,1.1,1.4,1.4l-.4.4ZM130.9,193.1c0,0-.2-.2-.3-.3-.4-.4-.7-1-.7-1.6h.5c0,.5.2,1,.6,1.3l.3.3-.4.3ZM130.6,190.3l-.5-.2c.1-.3.3-.6.4-.9.1-.3.2-.6.2-.9h.5c0,.4-.1.8-.3,1.1-.1.3-.3.6-.4.9h0ZM130.7,187.4c0,0,0-.1,0-.2h-1.4v-.5h1.8c0,.3.1.4.2.5h-.5ZM128.2,187.2h-2v-.5h2v.5ZM125.2,187.2h-2v-.5h2v.5ZM122.1,187.1c-.6-.3-1.2-.9-1.5-1.5l.4-.2c.3.6.7,1,1.3,1.3l-.2.4ZM120.2,184.6c-.3-.6-.7-1.1-1.2-1.5l.3-.4c.5.4,1,1,1.3,1.6l-.5.2ZM118.3,182.5c-.5-.5-.9-1.1-1.2-1.7l.4-.2c.3.6.7,1.1,1.1,1.6l-.4.3ZM116.6,179.9c-.4-.7-.7-1.3-.9-1.7l.4-.3c.3.5.6,1,1,1.8l-.4.2ZM115.1,177.4l-1.4-1.5.4-.3,1.4,1.5-.4.3ZM113.1,175.2l-.5-.5h0c0-.1,0-.7,0-1.5h.5c0,.6,0,1.1,0,1.4l.3.3-.4.3ZM113.2,172.2h-.5c0-.6,0-1.2,0-1.8,0,0,0,0,0-.1h.5c0,0,0,0,0,0,0,.6.1,1.3.1,1.9h0ZM112.3,169.3c-.3-.6-.6-1.2-1-1.7l.4-.3c.4.6.7,1.2,1,1.8l-.5.2ZM110.8,166.8c-.3-.5-.6-.8-.6-.8h0c0,0,0-.2,0-.2,0,0,0-.4,0-1h.5c0,.5,0,.8,0,.9,0,.1.3.4.5.8l-.4.3ZM110.8,163.8h-.5c0-.7,0-1.4,0-2h.5c0,.6,0,1.3,0,2h0ZM110.2,160.9h0c0-.6-.2-1.3-.4-1.9l.5-.2c.2.6.4,1.3.5,2h0s-.5,0-.5,0ZM109.3,158.2v-.2c-.3-.2-.4-.4-.6-.7-.1-.2-.3-.3-.6-.3v-.5c.4,0,.8.2,1,.6.2.3.3.5.5.7v.2c.1,0-.3.3-.3.3ZM105.2,157.5v-.5c.3,0,.7-.2,1.1-.3.2,0,.5-.2.8-.2v.5c-.1,0-.4.1-.6.2-.4.1-.8.2-1.2.3h0ZM104.1,157.3h0c-.4-.3-.9-.7-1.6-1.2l.3-.4c.7.5,1.2.9,1.6,1.2h0s-.3.4-.3.4ZM101.7,155.6c-.5-.3-.8-.6-1-.7-.1,0-.4,0-.7-.2v-.5c.6,0,.9.2.9.2h0s0,0,0,0c0,0,.4.3,1,.7l-.3.4ZM99,154.5c-.7-.2-1.3-.3-1.9-.5v-.5c.7.2,1.4.3,2.1.5v.5ZM96.1,153.8c-.7-.2-1.4-.4-1.9-.6l.2-.5c.5.2,1.2.4,1.9.6v.5ZM93.2,152.8c-.6-.2-1.1-.6-1.6-1,0,0,0-.1-.1-.2l.4-.3c0,0,.1.1.2.2.4.4.8.7,1.3.8l-.2.5ZM90.8,151.1c-.6-.3-1.2-.5-1.8-.6v-.5c.8.1,1.4.3,2.1.6l-.2.4ZM88,150.3c-.3,0-.6,0-.8,0s-.4,0-.6,0c0,0-.3,0-.6,0v-.5c.4,0,.6,0,.7,0,.1,0,.3,0,.6,0,.2,0,.5,0,.8,0v.5ZM85,150c-.5,0-1.2-.1-2-.2v-.5c.8,0,1.5.1,2,.2v.5ZM82,149.7l-2-.2v-.5s2,.2,2,.2v.5ZM79,149.4l-2-.2v-.5s2,.2,2,.2v.5ZM76.1,149.1l-2-.2v-.5s2,.2,2,.2v.5Z"/>
</svg>