<?xml version="1.0" encoding="UTF-8"?>
<svg id="Layer_1" xmlns="http://www.w3.org/2000/svg" version="1.1" viewBox="0 0 1184 579">
  <!-- Generator: Adobe Illustrator 29.2.1, SVG Export Plug-In . SVG Version: 2.1.0 Build 116)  -->
  <defs>
    <style>
      .st0 {
        fill: none;
      }

      .st1 {
        fill: #fff;
      }
    </style>
  </defs>
  <rect class="st0" width="1184" height="579"/>
  <path class="st1" d="M291,278.8l-.6-1.4.5-.2.6,1.4-.5.2ZM290,276.5l-.8-1.8.5-.2.8,1.8-.5.2ZM288.8,273.6c0-.3-.1-1-.2-2h.5c0,.9.2,1.7.2,1.9h-.5ZM288.5,270.6c0-.7,0-1.4,0-2h.5c0,.6,0,1.3,0,2h-.5ZM289,267.6h-.5c0-.7.1-1.4.2-2h.5c-.1.7-.2,1.4-.2,2h0ZM289.5,264.7h-.5c.3-1.2.7-1.7,1.2-1.9v.5s-.4.2-.8,1.4h0ZM291.4,262.9l-.4-.2s0,0,0,0c0-.2.3-.5,1.5-1.4l.3.4c-.5.3-1,.8-1.3,1.3,0,0,0,0,0,0h0ZM293.6,261l-.3-.4c.7-.5,1.4-1,1.6-1.2l.3.4c-.3.2-.9.6-1.6,1.1h0ZM296.1,259.4l-.2-.5,1.9-.8.2.5-1.9.8ZM298.8,258.3l-.2-.5,1.6-.6h.2c0-.1.2.3.2.3h-.3c0,.1-1.6.8-1.6.8ZM301.6,257.1l-.2-.5,1.8-.9.2.5-1.8.9ZM304.3,255.8l-.2-.5,1.8-.9v.2c.1,0,.4,0,.4,0h0c0,.1-1.9,1-1.9,1ZM306.5,253.8h-.5c.1-.7.2-1.4.2-2h.5c0,.7,0,1.3-.2,2h0ZM306,250.8c0-.2-.1-.3-.2-.5-.3-.4-.4-.9-.5-1.4h.5c0,.4.2.8.4,1.1.1.2.2.4.3.6h-.5ZM305.7,247.9h-.5c0-.7.2-1.4.5-2l.5.2c-.2.6-.4,1.2-.4,1.9h0ZM306.6,245.2l-.4-.2c.2-.4.6-1,1-1.8l.4.2c-.4.7-.7,1.3-1,1.7h0ZM308.1,242.6l-.4-.3c.4-.7.8-1.3,1-1.7l.4.3c-.2.4-.6,1-1,1.7h0ZM309.5,240l-.5-.2.8-1.8.5.2-.8,1.8ZM310.8,237.2l-.5-.2.8-1.8.5.2-.8,1.8ZM312.1,234.5l-.5-.2.2-.5h0s.5-.6,1-1.1l.4.3c-.4.5-.9,1-1,1.1l-.2.4ZM313.8,232.2l-.4-.3c0-.1.1-.2.2-.3.2-.4.7-.6,1.5-.8v.5c-.8.2-1,.5-1.1.6,0,.1-.1.3-.2.4h0ZM316.2,231v-.5c.9-.2,1.9-.2,1.9-.2v.2s.1.2.1.2h0s0,0,0,0c0,0-1,0-1.9.2h0ZM319.2,230.2l-.3-.4c.5-.4,1.1-.8,1.6-1.2l.3.4c-.5.4-1.1.8-1.6,1.2h0ZM321.5,228.3l-.4-.3c.4-.4.8-1,1-1.6h.5c-.2.8-.6,1.4-1.1,1.9h0ZM322.2,225.5c0-.7,0-1.4.4-2.1l.5.2c-.3.6-.4,1.2-.3,1.8h-.5ZM337.1,223.7v-.5c.6,0,1.3-.1,1.9-.3v.5c-.6.2-1.2.3-1.9.3h0ZM340.1,223.2l-.2-.5c.6-.2,1.2-.5,1.8-.8l.3.4c-.6.4-1.2.7-1.9.9h0ZM323.5,222.8l-.4-.3c.3-.4.6-.7.9-1.1.1-.2.3-.3.4-.5h0s.4.3.4.3h0c-.1.2-.3.3-.4.5-.3.3-.6.7-.8,1h0ZM336.4,222.7l-.7-1.5v-.4h.5v.3l.7,1.4-.5.2ZM342.8,221.7l-.3-.4c.1-.1.2-.2.3-.3.3-.4.7-.8,1.1-1.1l.3.4c-.4.3-.7.6-1,1-.1.1-.2.3-.3.4h0ZM325.5,220.8l-.2-.5c.6-.3,1.3-.5,1.9-.7v.5c-.5.2-1.1.4-1.7.6h0ZM328.3,219.9v-.5c.3-.1.8-.3,1.2-.6.1,0,.2-.2.4-.3l.3.4c-.1,0-.3.2-.4.3-.5.3-1,.5-1.5.6h0ZM345,219.9v-.5s.2,0,.4,0c.4,0,.8-.2,1.1-.4,0,0,.1,0,.2-.1l.3.4s0,0-.1,0c-.4.3-.9.5-1.3.5-.2,0-.3,0-.4,0h0ZM336.2,219.8h-.5v-.8l.9-1,.4.3-.8.9v.6ZM347.7,218.7l-.2-.5c.6-.2,1.2-.4,1.9-.7v.5c-.4.2-1.1.4-1.7.6h0ZM331,218.5l-.2-.4c.6-.3,1.2-.6,1.9-.8l.2.5c-.6.2-1.2.5-1.8.8h0ZM350.6,217.8l-.2-.5c.6-.2.7-.3.8-.3.3-.3.6-.5.9-.6l.2.4c-.3.1-.5.3-.8.4-.1.2-.4.3-1,.5h0ZM333.7,217.5v-.5c.2,0,.5,0,.8-.1.4,0,.7-.1,1-.3l.2.5c-.4.2-.8.3-1.2.4-.3,0-.5,0-.8.1h0ZM337.6,217.5l-.4-.3,1.3-1.5.4.3-1.3,1.5ZM336.6,216.5l-.3-.4c.6-.4,1.1-.7,1.6-1.2l.3.4c-.5.4-1.1.8-1.6,1.2h0ZM353.2,216.4l-.2-.5h0c.6-.3,1.2-.6,1.8-.9l.2.4c-.6.3-1.2.6-1.8.9h0ZM355.9,215l-.3-.4c.4-.2.8-.5,1.2-.9,0,0,.2-.2.2-.3l.4.3c0,.1-.2.3-.3.4-.4.4-.8.7-1.3,1h0ZM339.6,215h-.5v-.4h0s-.4-.3-.4-.3c.1-.1.3-.3.4-.5,0-.2.2-.3.3-.3s.2,0,.2.3h0v.5c0,.3,0,.6,0,.6h0ZM357.9,212.7h-.5c.2-.8.3-1.4.3-2.1h.5c0,.7-.2,1.4-.4,2.1h0ZM358.4,209.6h-.5c0-.4,0-.8,0-.9l-.5-.8.4-.3.6.9h0c0,0,0,.5,0,1.1h0ZM379.5,208.9l-1.9-.7.2-.5,1.9.7-.2.5ZM372.6,208.7l-.3-.4,1.5-1.3.3.4-1.5,1.3ZM371.5,208.5l-1.8-.8.2-.5,1.8.8-.2.5ZM376.7,207.8l-1.1-.5h-.7v-.5h.8s1.2.5,1.2.5l-.2.5ZM349.9,207.6c-.4,0-.7,0-1-.3h0s.3-.4.3-.4c0,0,0,0,0,0,.1.2.6.3,1.6,0v.5c-.3,0-.6.1-1,.2ZM343.9,207.3c-.4,0-.7-.2-.8-.6l.5-.2c0,.2.2.3.5.2.3,0,.7-.1,1-.2v.5c-.3,0-.6,0-1,.2,0,0-.1,0-.2,0ZM356.9,207.3h-2v-.5h2v.5ZM353.9,207.3h-2v-.5h2v.5ZM346.1,207v-.5c.6,0,1.3,0,2,0v.5c-.7,0-1.3,0-2,0ZM369.1,207h-.5v-1.9h.1v-.2s0,0,0,0h.3c0,0,0,2.1,0,2.1ZM343.5,205.7h-.5c0-.7.2-1.4.4-2h.5c-.2.8-.3,1.4-.4,2ZM363,205.6h-.1v-.5h.1c.5,0,1,0,1.5-.2h.3s0,.4,0,.4h-.3c-.5.2-1.1.2-1.6.2h0ZM367.4,205.5c-.4,0-.8,0-1.1-.2-.1,0-.3,0-.4,0v-.5s0,0,0,0c.2,0,.4,0,.6.1.4.2.9.2,1.3.1v.5c-.1,0-.3,0-.4,0h0ZM361.8,205.2c-.5-.4-1.1-.7-1.7-.8l.2-.5c.7.2,1.3.5,1.9.9l-.3.4ZM359.2,204.1c-.6-.2-1.1-.3-1.1-.3h-.4c0,0,.7-1.1.7-1.1l.4.3-.3.4c.2,0,.5.1.8.2v.5ZM344.2,202.8l-.5-.2c0-.2,0-.3.1-.3v-1.6h.5v1.7h0s0,.2-.1.4h0ZM359.4,202.2l-.4-.3,1.2-1.6.4.3-1.2,1.6ZM344.3,199.8h-.5v-.8l-.8-.5.3-.4,1,.6v1.1ZM361.1,199.6l-.5-.2.6-1.9.5.2-.6,1.9ZM330.9,199.1l-.2-.4,1.1-.9.3.4-.7.5v.2c0,0-.5.2-.5.2ZM332.4,198.5l-.2-.5,1.9-.7.2.5-1.9.7ZM342.2,198l-1.7-1.1.3-.4,1.7,1.1-.3.4ZM335.2,197.5l-.2-.5,1.9-.7.2.5-1.9.7ZM332.8,197.5l-.3-.4,1.6-1.3.3.4-1.6,1.3ZM362,196.8l-.5-.2.3-.9.5-1,.5.2-.5,1-.3.8ZM338,196.6l-.2-.5,1.5-.5.6.4-.3.4-.4-.2-1.2.4ZM335.2,195.9v-.5c-.1,0,1.8-.4,1.8-.4v.5c.1,0-1.8.4-1.8.4ZM338.1,195.3v-.5c-.1,0,1.1-.3,1.1-.3l.6-.3.2.5-.7.3-1.3.3ZM358.2,195h-.2v-.4h0s0,0,0,0h0s0,0,0,0l1.3-1.2.3.4-1.5,1.3ZM357,195h-2v-.5h2v.5ZM354,195h-2v-.5h2v.5ZM351,195h-2.1c0,0,.2-.4.2-.4h0c0,0,0,0,0,0h0s0,0,0,0h1.9v.5ZM348,194.5l-1.8-.8.2-.5,1.8.8-.2.5ZM341,194.2l-.2-.5,1.8-.9.2.5-1.8.9ZM363.1,194l-.5-.2.6-1.4v-.3h.5v.5h0s-.7,1.5-.7,1.5ZM345.3,193.3l-1.2-.5-.4.2-.2-.5.6-.3,1.4.6-.2.5ZM360.4,193l-.3-.4.4-.4,1.2-.9.3.4-1.2.9-.4.3ZM362.8,191.2l-.3-.4,1.4-1v1.3h-.5v-.3l-.6.4Z"/>
</svg>