<?xml version="1.0" encoding="UTF-8"?>
<svg id="Layer_1" xmlns="http://www.w3.org/2000/svg" version="1.1" viewBox="0 0 1184 579">
  <!-- Generator: Adobe Illustrator 29.2.1, SVG Export Plug-In . SVG Version: 2.1.0 Build 116)  -->
  <defs>
    <style>
      .st0 {
        fill: none;
      }

      .st1 {
        fill: #fff;
        isolation: isolate;
        opacity: 1;
      }
    </style>
  </defs>
  <rect class="st0" width="1184" height="579"/>
  <path class="st1" d="M253.8,365.3h2v.5h-2v-.5ZM256.8,365.3h2v.5h-2v-.5ZM259.8,365.3h.7l.9,1.2-.4.3-.8-1h-.5v-.5ZM253.2,365.8l.4.3-1.2,1.6-.4-.3,1.2-1.6ZM262,367.4l1.2,1.6-.4.3-1.2-1.6.4-.3ZM251.4,368.2l.4.3-1.2,1.6-.4-.3,1.2-1.6ZM263.8,369.8l1.2,1.6-.4.3-1.2-1.6.4-.3ZM249.5,370.5l.4.3-1.2,1.6-.4-.3,1.2-1.6ZM265.1,372.3h.5v2h-.5v-2ZM247.9,373.1l.5.2-.7,1.9-.5-.2.7-1.9ZM265.1,375.3h.5v2h-.5v-2ZM246.9,375.9l.5.2-.7,1.9-.5-.2.7-1.9ZM265.1,378.3h.5v.6l-1.2,1.1-.3-.4,1.1-1v-.4ZM246.3,378.6l1.6,1.2-.3.4-1.6-1.2.3-.4ZM263.3,380.3l.3.4-1.5,1.4-.3-.4,1.5-1.4ZM248.7,380.5l1.6,1.2-.3.4-1.6-1.2.3-.4ZM251,382.3l1.1.8h.5v.5h-.6l-1.2-.9.3-.4ZM261.1,382.4l.3.4-1,.9h-.9v-.5h.7l.8-.8ZM253.6,383.1h2v.5h-2v-.5ZM256.6,383.1h2v.5h-2v-.5Z"/>
</svg>