<?xml version="1.0" encoding="UTF-8"?>
<svg id="Layer_1" xmlns="http://www.w3.org/2000/svg" version="1.1" viewBox="0 0 1184 579">
  <!-- Generator: Adobe Illustrator 29.2.1, SVG Export Plug-In . SVG Version: 2.1.0 Build 116)  -->
  <defs>
    <style>
      .st0 {
        fill: none;
      }

      .st1 {
        fill: #fff;
      }
    </style>
  </defs>
  <rect class="st0" width="1184" height="579"/>
  <path class="st1" d="M537.2,200.9l-.3-.4,1-.8.3.4-1,.8ZM539,199.4l-.3-.4.8-.7h1.1v.5h-.9l-.7.6ZM546.6,198.9h-2v-.5h2v.5ZM543.6,198.9h-2v-.5h2v.5ZM547.6,198.5l-.3-.4,1.6-1.2.3.4-1.6,1.2ZM551.9,196.7h-2v-.5h2v.5ZM553,196.6l-.3-.4c.3-.3.9-.7,1.6-1.2l.3.4c-.7.5-1.3,1-1.6,1.2h0ZM555.4,195v-.5c.2,0,.6-.1.9-.2.3,0,.6,0,.9-.1v.5c-.2,0-.6.1-.9.1-.3,0-.7,0-1,.1h0ZM558.4,194.4l-.2-.4c.2,0,.3-.2.5-.3.3-.3.6-.6.7-1l.5.2c-.2.5-.5.9-.8,1.2-.2.1-.4.3-.6.4h0ZM560,191.8h-.5c.1-.7.3-1.3.8-1.5.2,0,.4-.1.5-.2l.2.5c-.2,0-.4.2-.6.3-.2,0-.3.5-.4,1h0ZM562,190.1l-.2-.4c.7-.4,1.4-.8,1.7-1l.2.4c-.4.2-1.1.6-1.8,1h0ZM564.5,188.3l-.4-.3c.3-.4.7-1.1,1.1-1.7l.4.3c-.4.6-.8,1.3-1.1,1.7h0ZM566.1,185.8l-.4-.3c.1-.2.3-.5.4-.7.2-.4.4-.7.6-1.1l.4.3c-.2.3-.4.6-.5,1-.1.3-.3.5-.4.8h0ZM567.6,183.1l-.4-.3c.3-.5.6-1.1.8-1.7h.5c-.2.8-.5,1.4-.9,2h0ZM568.8,180.6l-.3-.4c.6-.4,1.3-.6,1.9-.8v.5c-.5.1-1.1.4-1.7.7h0ZM571.6,179.7v-.5c.1,0,.4-.1.7-.2.4-.1.8-.2,1.1-.3v.5c-.2,0-.6.2-1,.3-.3,0-.6.2-.8.2h0ZM574.5,178.9v-.5c.5-.1,1.1-.3,1.8-.5v.5c-.6.2-1.3.4-1.8.5h0ZM581.1,178.1h-.1c-.2-.2-.5-.3-.7-.4v-.5c.4,0,.6.1.9.2.2-.2.5-.4.7-.6l.4.3c-.3.3-.6.5-.9.8h-.1ZM577.4,178.1l-.2-.5h.1c.6-.3,1.2-.4,1.9-.4v.5c-.6,0-1.1.2-1.7.4h-.2ZM602,178.1l-.3-.3.3-.3h0s0,0,0,0h0c0,0,0,0,0,0l1.6-.5.2.5-1.9.6ZM604.8,177.2l-.2-.5,1.9-.6.2.5-1.9.6ZM601,177.1l-.7-.7c0,0-.4-.2-.8-.5l.2-.4c.5.3.8.5.8.5h0s0,0,0,0l.7.7-.4.4ZM582.1,176.3c0-.2-.2-.8-.4-1.4v-.5c-.1,0,.3-.1.3-.1v.5c.3.6.5,1.2.6,1.5h-.5ZM607.7,176.2l-.2-.4c.4-.2,1.1-.6,1.8-.9l.2.4c-.7.4-1.4.7-1.8.9h0ZM598.6,175.5c-.6-.3-1.2-.5-1.8-.6v-.5c.7,0,1.4.3,2,.7l-.2.5ZM595,175.1c-.3,0-.7,0-1.1,0v-.5c.7,0,1.3,0,2,0v.5c-.2,0-.5,0-.9,0h0ZM592.9,175c-.2,0-.4,0-.4,0h0l-1.5-.6.2-.5,1.5.6h.3s0,.5,0,.5ZM610.3,174.8l-.3-.4c.6-.3,1.1-.7,1.6-1h0s.3.4.3.4h0c-.5.4-1.1.8-1.7,1.1h0ZM590,173.9l-.5-.2c-.5-.1-.9-.4-1.4-.6l.3-.4c.4.2.8.4,1.3.6h0s.5.2.5.2l-.2.5ZM617.7,173.7h-2v-.5h2v.5ZM618.8,173.6l-.2-.5,1.9-.7.2.5-1.9.7ZM614.7,173.6c-.6-.2-1.2-.3-1.9-.2v-.5c.6,0,1.3,0,2,.2l-.2.5ZM581.2,173.4c-.2-.7-.3-1.2-.4-1.6,0-.1,0-.2,0-.3h.5s0,0,.1.2c0,.3.2.9.4,1.6h-.5ZM621.6,172.6l-.2-.5,1.6-.6h0s0,0,0,0h0s0,0,0,0h.4c0,.2,0,.2,0,.3h0c0,0-1.8.7-1.8.7ZM587.3,172.3c0-.2,0-.4,0-.6.1-.3.4-.8.7-1.4l.4.2c-.3.6-.6,1.1-.7,1.4,0,0,0,.2,0,.3h-.5ZM598.9,170.7c-.3,0-.7,0-1,0v-.5c.7.1,1.4.1,2,0v.5c-.3,0-.7,0-1,0h0ZM623.7,170.6h-.5c0-.7,0-1.3-.1-2h.5c.1.6.2,1.3.1,2h0ZM580.4,170.6c-.3-.6-.5-1.3-.6-2h.5c.1.6.3,1.2.6,1.8l-.5.2ZM600.9,169.9l-.4-.2c.3-.6.8-1.2,1.3-1.6l.3.4c-.5.4-.9.9-1.2,1.4h0ZM597,169.8c-.3-.6-.5-1.3-.6-2h.5c0,.6.3,1.2.5,1.8l-.4.2ZM589,169.6l-.4-.2c.3-.6.6-1.1.7-1.3v-.4h.5v.5h0c0,0-.4.7-.8,1.4h0ZM602.8,167.7l-.4-.3c.1-.2.2-.5.3-.7.2-.5.4-1,.9-1v.5c-.2,0-.3.4-.5.7-.1.3-.2.5-.4.8h0ZM622.9,167.7c0-.4-.1-.7-.1-1.1,0-.2,0-.3.2-.4,0-.2,0-.3,0-.5h.5c0,.2,0,.4,0,.5,0,.2,0,.3-.2.4,0,.3,0,.7.1,1h-.5ZM579.7,167.6c0-.7,0-1.4.3-2.1l.5.2c-.2.6-.3,1.2-.3,1.9h-.5ZM605.5,166.9c-.4,0-.8,0-1.1-.3l.2-.4c.5.3,1.2.3,1.7,0l.2.5c-.3.1-.7.2-1,.2h0ZM596.3,166.8c0-.4,0-.6,0-.6v-.3s1.5,0,1.5,0h0s0,0,0,0h.1c0,.1.4.5.4.5h-1.5c0,0,0,.2,0,.3h-.5ZM589.8,166.7h-.5v-2h.5v2ZM607.5,166.2l-.3-.4c.5-.4.9-.9,1.2-1.5l.4.3c-.3.6-.8,1.1-1.3,1.6h0ZM596.7,165.5c-.4-.5-.8-1-1.3-1.6l.4-.3c.4.5.8,1.1,1.2,1.6l-.4.3ZM623.8,164.9h-.5c.2-.7.3-1.3.6-2.1l.5.2c-.2.7-.4,1.4-.6,1.9h0ZM580.8,164.8l-.4-.2c0-.1.1-.3.2-.4,0-.2.2-.3.2-.5.2-.3.5-.6.8-.8l.3.4c-.3.2-.5.4-.6.6,0,.2-.2.3-.3.5,0,.1-.1.2-.2.4h0ZM589.3,163.7c0-.7,0-1.2,0-1.4,0-.1,0-.3,0-.6h.5c0,.2,0,.4,0,.6,0,.2,0,.7,0,1.4h-.5ZM609.2,163.7l-.5-.2c.3-.6.5-1.2.7-1.8h.5c-.2.8-.4,1.4-.7,2h0ZM594.9,163.1c-.4-.5-.8-1.1-1.1-1.7l.4-.3c.4.6.7,1.1,1.1,1.6l-.4.3ZM582.7,162.8l-.2-.4c.5-.3,1.1-.6,1.8-.9l.2.5c-.7.3-1.3.6-1.8.9h0ZM632.9,162.5h-.5v-.5h.5c.9,0,1-.1,1-.1,0,0,0,0,0,0h.5c0,.1,0,.3-.1.4-.2.2-.6.3-1.4.3h0ZM631.4,162.5c-.7,0-1.5-.2-2-.6l.3-.4c.5.4,1.1.5,1.7.5v.5ZM624.7,162l-.5-.2c.1-.4.2-.7.2-.7h0c0-.1.1-.2.1-.2.4-.1.8-.3,1.2-.4v.5c-.2,0-.6.2-.9.3,0,.1-.1.3-.2.6h0ZM585.4,161.5l-.2-.5h0s0,0,0,0l1.9-.5v.5c.1,0-1.7.5-1.7.5h0ZM628.7,161.2c-.5-.3-1.1-.4-1.7-.3v-.5c.7-.1,1.4,0,2.1.4l-.3.4ZM633.7,160.9c0-.7,0-1.4,0-2.1h.5c0,.7,0,1.3,0,2h-.5ZM610.2,160.8h-.5c.1-.7.2-1.4.3-2h.5c0,.7-.1,1.4-.3,2h0ZM589.3,160.7v-.3l-1,.3v-.5c-.1,0,1.5-.4,1.5-.4v.9h-.5ZM593.2,160.6c-.3-.6-.6-1.1-.9-1.7h0c0,0,.4-.3.4-.3h0c.3.6.6,1.2.9,1.7l-.4.3ZM577.4,159l-1.3-1.1.3-.4,1.1,1c0,0,.2,0,.3,0v.5c-.2,0-.4,0-.4,0h0ZM578.9,158.8v-.5c.5-.1,1.2-.3,1.8-.6l.2.5c-.6.2-1.3.4-2,.6h0ZM633.5,158.1c-.2-.5-.5-1-.9-1.4,0,0-.1-.1-.2-.2l.4-.3s0,0,.1.1c.5.4.8,1,1,1.6l-.5.2ZM591.8,157.9c-.3-.6-.6-1.2-.9-1.8l.5-.2c.3.6.5,1.2.8,1.8l-.4.2ZM581.8,157.9l-.2-.5c.6-.3,1.2-.6,1.8-.9l.3.4c-.6.3-1.2.6-1.8.9h0ZM610.5,157.7h-.5c0-.7,0-1.4.3-2.1l.5.2c-.2.6-.2,1.2-.2,1.9h0ZM575.3,157.3l-1.5-1.3.3-.4,1.5,1.3-.3.4ZM584.4,156.4l-.3-.4c.5-.4,1.1-.7,1.6-1.1l.3.4c-.5.4-1.1.8-1.7,1.2h0ZM631.9,155.5c-.2-.6-.4-1.3-.5-2h.5c.1.6.3,1.2.5,1.8l-.5.2ZM573,155.3l-.9-.8-.3-.8.5-.2.3.7.8.7-.3.4ZM590.5,155.2c-.3-.6-.5-1.3-.7-1.9l.5-.2c.2.6.4,1.2.7,1.9l-.5.2ZM611.2,155.1l-.3-.4c.3-.2.5-.4.8-.6.3-.2.6-.3.8-.5l.3.4c-.3.2-.6.4-.9.6-.3.1-.5.3-.7.5h0ZM586.9,154.6l-.3-.4c.5-.4,1-.9,1.4-1.3l.4.3c-.5.5-1,.9-1.5,1.4h0ZM613.6,153.3l-.4-.3c.2-.2.4-.4.5-.6.2-.3.5-.6.8-.9l.4.3c-.3.3-.5.6-.8.9-.2.2-.4.4-.6.6h0ZM631.9,153v-.5c.2-.1,1-.3,1.8-.6v.5c-.7.2-1.4.4-1.8.6h0ZM571.4,152.8l-.5-1.3v-.7h.5v.6l.5,1.2-.5.2ZM589,152.5l-.4-.3c.5-.5.7-.9.7-.9l.3-.5v.6c.1,0,.2.3.3.8h-.5s0-.1-.1-.2c-.1.1-.2.3-.4.5h0ZM541.7,152.2c-.7,0-1.4,0-2,0v-.5c.7,0,1.3,0,2,0v.5ZM634.8,152.2v-.5c.7-.2,1.4-.4,1.8-.4v.5c-.4,0-1.1.2-1.9.4h0ZM542.7,152.2v-.5c.6,0,1.3,0,2-.1v.5c-.6,0-1.3.1-2,.1h0ZM538.7,152c-.6,0-1.2-.2-1.8-.3h-.5c0-.1.4-.4.4-.4h.2c0-.1,0,0,0,0,.5.1,1.1.2,1.6.3v.5ZM545.8,151.9v-.5c.6,0,1.2-.2,1.9-.3v.5c-.6.1-1.3.2-1.9.3h0ZM639.7,151.8c-.7,0-1.3,0-2,0v-.5c.7,0,1.3,0,2,0h0v.5h0ZM640.7,151.7v-.5c.7,0,1.5,0,2,0v.5c-.5,0-1.3,0-2,0h0ZM643.7,151.7v-.5s.3,0,.3,0c.6,0,1.1,0,1.6-.2v.5c-.5.1-1,.2-1.6.2h-.3ZM548.7,151.4v-.5c.5-.1,1.2-.3,1.8-.5v.5c-.5.2-1.2.3-1.8.5h0ZM646.7,151.1l-.2-.4c.5-.3.9-.6,1.3-1.1,0,0,0,0,.1-.1l.4.3c0,0,0,.1-.1.2-.4.5-.9.9-1.5,1.2h0ZM615.6,151.1l-.3-.4c.5-.5,1.1-.9,1.7-1.2l.3.4c-.6.3-1.1.7-1.6,1.1h0ZM538.2,150.9l-.3-.4c.5-.4,1.1-.8,1.6-1.2l.3.4c-.6.4-1.1.8-1.6,1.1h0ZM551.6,150.6v-.5c.5-.2,1.1-.4,1.7-.6l.2.5c-.6.2-1.3.4-1.9.6h0ZM571.4,149.8h-.5v-2h.5v2ZM554.5,149.6l-.2-.5c.6-.2,1.2-.5,1.8-.7l.2.5c-.6.2-1.3.5-1.9.7h0ZM618,149.5l-.2-.4c.6-.3,1.2-.6,1.9-.8l.2.5c-.6.2-1.2.5-1.8.7h0ZM540.6,149.2l-.3-.4c.5-.4,1.1-.8,1.6-1.2l.3.4c-.6.4-1.1.8-1.6,1.2h0ZM648.9,148.9l-.4-.2c.3-.6.5-1.2.6-1.8h.5c-.1.8-.3,1.4-.6,2h0ZM630.9,148.8c-.2,0-.4,0-.6,0-.5,0-1-.2-1.5-.3l.2-.5c.4.1.9.3,1.4.3.2,0,.3,0,.5,0v.5ZM632,148.7v-.5c.6-.1,1.2-.3,1.8-.5l.2.5c-.6.2-1.3.4-2,.5h0ZM557.3,148.5l-.2-.5,1.8-.8.2.5-1.8.8ZM620.8,148.4l-.2-.5c.7-.2,1.3-.4,1.9-.6v.5c-.4.2-1.1.4-1.8.6h0ZM628,148c-.5-.3-1-.6-1.4-1.1h0s0-.1,0-.1h0s0,0,0,0v-.4s.1,0,.2,0h.1s0,.1,0,.1c.3.4.8.8,1.2,1l-.2.4ZM634.9,147.8l-.2-.5c.6-.2,1.3-.4,1.9-.6v.5c-.5.2-1.1.3-1.8.6h0ZM623.7,147.5v-.5c.6-.2,1.3-.4,1.8-.5v.5c-.4,0-1.1.3-1.8.5h0ZM543.1,147.4l-.3-.4c.5-.4,1.1-.8,1.6-1.2l.3.4c-.5.4-1.1.8-1.6,1.2h0ZM560,147.3l-.2-.5,1.8-.8.2.5-1.8.8ZM645.3,147.1c-.4,0-.9,0-1.4,0h-.2s0-.5,0-.5h.2c.6.1,1.2.1,1.7.1v.5c0,0-.2,0-.4,0h0ZM637.7,147v-.5c.4,0,.8-.1,1.3-.2.2,0,.4,0,.7,0v.5c-.2,0-.4,0-.6,0-.5,0-.9,0-1.3.1h0ZM642.7,146.9c-.7,0-1.3,0-2,0v-.5c.7,0,1.3,0,2,0v.5ZM571.4,146.8h-.5v-2h.5v2ZM646.7,146.7l-.2-.5c.7-.2,1.4-.2,2.1,0v.5c-.7-.2-1.3-.2-1.9,0h0ZM562.8,146.1l-.2-.5,1.8-.8.2.5-1.8.8ZM545.5,145.6l-.3-.4c.5-.4,1.1-.8,1.6-1.2l.3.4c-.5.4-1.1.8-1.6,1.2h0ZM565.5,144.8l-.2-.5,1.8-.8.2.5-1.8.8ZM547.9,143.8l-.3-.4c.5-.4,1.1-.8,1.6-1.2l.3.4c-.5.4-1.1.8-1.6,1.2h0ZM571.4,143.8h-.5v-1.8c-.1,0,.1-.1.1-.1l.4-.2v2.1ZM568.3,143.6l-.2-.5,1.8-.8.2.5-1.8.8ZM550.3,142l-.3-.4c.5-.4,1.1-.8,1.6-1.2l.3.4c-.5.4-1.1.8-1.6,1.2h0ZM552.7,140.2l-.3-.4c.5-.4,1.1-.8,1.6-1.2l.3.4c-.5.4-1.1.8-1.6,1.2h0ZM555.1,138.4l-.3-.4c.5-.4,1.1-.8,1.6-1.2l.3.4c-.5.4-1.1.8-1.6,1.2h0ZM557.4,136.6l-.3-.4c.5-.4,1.1-.8,1.6-1.2l.3.4c-.5.4-1.1.8-1.6,1.2h0ZM559.8,134.7l-.3-.4c.5-.4,1-.8,1.6-1.2l.3.4c-.5.4-1,.8-1.6,1.2h0ZM562.2,132.8l-.3-.4c.5-.4,1-.8,1.6-1.3l.3.4c-.5.4-1,.8-1.6,1.2h0ZM564.5,131l-.3-.4c.5-.4,1-.8,1.5-1.3l.3.4c-.5.4-1,.8-1.6,1.2h0ZM566.8,129.1l-.3-.4c.5-.4,1-.9,1.5-1.3l.3.4c-.5.4-1,.8-1.5,1.3h0ZM569.1,127.1l-.3-.4c.5-.4,1-.9,1.5-1.3l.3.4c-.5.4-1,.8-1.5,1.3h0ZM571.4,125.2l-.3-.4c.5-.4,1-.9,1.5-1.3l.3.4c-.5.4-1,.9-1.5,1.3h0ZM573.7,123.3l-.3-.4c.5-.4,1-.9,1.5-1.3l.3.4c-.5.4-1,.9-1.5,1.3h0ZM576,121.3l-.3-.4c.5-.4,1-.9,1.5-1.3l.3.4c-.5.4-1,.9-1.5,1.3h0ZM578.2,119.3l-.3-.4c.5-.4,1-.9,1.5-1.3l.3.4c-.5.4-1,.9-1.5,1.3h0ZM580.5,117.3l-.3-.4c.5-.5,1-.9,1.5-1.4l.3.4c-.5.4-1,.9-1.5,1.3h0ZM582.7,115.3l-.3-.4c.5-.5,1-.9,1.5-1.4l.3.4c-.5.4-1,.9-1.5,1.4h0ZM584.8,113.2l-.3-.4c.5-.5,1-.9,1.4-1.4l.4.4c-.5.4-1,.9-1.4,1.4h0ZM587,111.1l-.4-.4c.5-.5,1-1,1.4-1.4l.4.4c-.5.5-.9.9-1.4,1.4h0ZM589.1,109l-.4-.3c.5-.5.9-1,1.4-1.4l.4.3c-.5.5-.9.9-1.4,1.4h0ZM591.2,106.8l-.4-.3c.5-.5.9-1,1.4-1.5l.4.3c-.4.5-.9,1-1.4,1.5h0ZM593.2,104.6l-.4-.3c.5-.5.9-1,1.3-1.5l.4.3c-.4.5-.9,1-1.3,1.5h0ZM595.2,102.3l-.4-.3c.4-.5.9-1,1.3-1.5l.4.3c-.4.5-.8,1-1.3,1.5h0ZM597.1,99.9l-.4-.3c.4-.5.8-1.1,1.2-1.6l.4.3c-.4.5-.8,1-1.2,1.6h0ZM598.9,97.5l-.4-.3c.4-.6.8-1.1,1.1-1.6l.4.3c-.4.5-.7,1.1-1.1,1.7h0ZM600.5,95l-.4-.3.2-.3c.3-.5.6-1,.8-1.5l.4.2c-.3.5-.6,1-.8,1.5l-.2.3ZM602,92.4l-.4-.2c.3-.6.6-1.2.8-1.8l.5.2c-.3.6-.5,1.2-.8,1.8h0ZM603.2,89.6l-.5-.2c.2-.6.4-1.2.6-1.9h.5c-.2.8-.4,1.4-.7,2h0ZM604.1,86.7h-.5c.2-.8.3-1.4.5-2.1h.5c-.1.7-.3,1.4-.5,2h0ZM604.8,83.8h-.5c.1-.7.2-1.4.3-2h.5c0,.7-.2,1.4-.3,2h0ZM605.1,80.8h-.5c0-.7,0-1.4.1-2h.5c0,.7,0,1.4-.1,2h0ZM605.3,77.7h-.5c0-.7,0-1.3,0-2h.5c0,.6,0,1.3,0,2h0ZM604.7,74.8c0-.7-.1-1.3-.2-2h.5c0,.6.1,1.3.2,1.9h-.5ZM604.4,71.8c0-.6-.2-1.3-.3-2h.5c.1.6.2,1.2.3,1.9h-.5ZM603.9,68.9c-.1-.6-.3-1.3-.4-1.9h.5c.2.5.3,1.2.4,1.8h-.5ZM603.2,65.9c-.2-.6-.3-1.3-.5-1.9h.5c.2.5.4,1.2.5,1.8h-.5ZM602.4,63.1c-.2-.6-.4-1.3-.6-1.9l.5-.2c.2.6.4,1.3.6,1.9h-.5ZM601.4,60.2c-.2-.6-.5-1.2-.7-1.9l.5-.2c.2.6.5,1.3.7,1.9l-.5.2ZM600.3,57.5c-.3-.6-.5-1.2-.8-1.8l.5-.2c.3.6.5,1.2.8,1.8l-.5.2ZM599.1,54.7c-.3-.6-.6-1.2-.9-1.8l.4-.2c.3.6.6,1.2.9,1.8l-.5.2ZM597.8,52c-.3-.6-.6-1.2-.9-1.8l.4-.2c.3.6.6,1.2.9,1.8l-.4.2ZM596.4,49.4c-.3-.6-.7-1.2-1-1.7l.4-.3c.3.6.7,1.1,1,1.7l-.4.2ZM594.9,46.8c-.7-1.1-1.1-1.7-1.1-1.7l.4-.3s.4.6,1.1,1.7l-.4.3Z"/>
</svg>