<svg xmlns="http://www.w3.org/2000/svg" width="275.379" height="187.05" viewBox="1262.227 753.329 275.379 187.05"><path d="m1262.477 753.58 10.114 2.928 1.8 3.101 4.075 3.588 3.114 2.462 3.027 2.539 5.41 3.726 2.635 4.517 3.97 2.254v3.469s2.015 2.29 2.308 4.598c.293 2.308 0 5.093 0 5.093l5.03 1.758 7.981 1.732 4.848-1.732 5.86 1.732s.714-2.091 1.93 0c1.214 2.091 9.023 3.628 9.023 3.628H1357.723c2.833 0 2.484.847 4.132 0 1.649-.848 4.497-.269 6.102 0 1.605.268 7.91 1.74 7.91 1.74s2.406 2.157 3.188 3.231c.78 1.074 2.484 2.267 2.484 2.267s3.987 2.186 4.866 3.26c.879 1.075 6.84 3.76 6.84 3.76h4.672s3.058.538 2.343 2.242c-.715 1.703-2.343 5.617-2.343 5.617l2.343 2.492s2.224.607 3.396 1.876c1.172 1.27 4.836 2.74 4.836 2.74l2.54-2.74v-4.368l1.937-5.617v-2.241l2.98-3.76h3.2l2.35 6s3.34 1.995 3.946 3.35c.607 1.356 3.803 6.636 3.803 6.636s.642-.382 2.59 2.74c1.949 3.122 5.075 9.3 5.075 9.3l5.538 4.106 6.164 10.367 6.524 8.378v6.832s1.007 4.273 0 7.285c-1.006 3.012-2.829 6.352-2.829 6.352s-.755 3.902-1.844 5.41-.515 1.617-1.851 3.265c-1.336 1.649-3.577 6.52-3.577 6.52s-.611 3.809 0 6.137c.61 2.328 3.577 4.721 3.577 4.721l5.139 2.828s1.576 2.138 3.826 4.792c2.25 2.653 2.854 5.289 9.33 10.409 6.477 5.12 4.607 5.207 14.295 9.175 9.687 3.97 21.25 8.25 26.128 5.87 4.88-2.38 6.491-8.423 6.491-8.423s4.435-6.3 5.998-6.622c1.562-.322-3.489-.465 2.96-3.485 6.447-3.02 7.748-3.733 8.138-4.806.391-1.073.973-3.78 2.892-5.547 1.92-1.765 4.043-6.157 4.043-6.157l-4.043-4.888s-1.893 4.273-2.892 2.133c-.998-2.141-3.538-2.834-4.746-6.137-1.208-3.303-6.352-6.52-6.352-6.52s-8.057-9.097-12.489-18.213c-4.43-9.116-6.5-19.272-6.285-19.309.216-.036-3.68-.903 0-4.186 3.681-3.282 4.903-6.728 4.762-8.788-.14-2.06 1.66-4.746 0-7.444-1.66-2.698-1.227-3.385-3.091-6.095-1.865-2.71-2.657-8.953-6.417-9.985-3.759-1.033-7.664-1.956-9.154-4.44-1.49-2.485-2.449-6.398-3.261-7.089-.813-.691 1.047-2.3-2.682-3.23-3.73-.93-4.208-.454-5.891-1.741-1.683-1.288-1.718-1.327-5.386-3.628-3.668-2.3-2.751-1.725-5.293-3.49-2.541-1.764-7.055-5.093-7.055-5.093l-3.826 5.093-5.14 1.758s-5.697 1.899-8.041 1.732c-2.344-.167-.033.531-3.66-1.732-3.628-2.263 2.234-.34-5.075-5.258-7.308-4.916-6.92-5.242-10.34-6.191-3.42-.95-3.437-2.898-8.53-3.469-5.092-.57-7.931-2.897-9.312-2.254-1.38.644-3.747-1.816-5.74-2.509-1.992-.692-1.802-2.937-4.671-2.008-2.87.93-6.84 2.008-6.84 2.008h-4.866l-3.879-2.008s-.372-2.78-1.793-3.726c-1.42-.945-.768-5.416-3.52-5.001-2.75.414-6.395 4.156-7.306 5-.912.846-1.313 2.26-3.186 3.727-1.872 1.468-4.132 4.517-4.132 4.517s-1.016 3.398-3.344 4.241c-2.328.844 0 3.133 0 3.133v8.04" stroke-dasharray="2 1" stroke-linejoin="round" stroke-linecap="round" stroke-width=".5" stroke="#fff" fill="transparent" data-name="Australasia"/></svg>