<svg xmlns="http://www.w3.org/2000/svg" width="83.611" height="56.021" viewBox="671.925 681.286 83.611 56.021"><path d="M688.434 685.674s.07 2.335-1.563 4.898c-1.633 2.564-10.864 5.414-10.864 5.414s-1.742-.016-3.125 1.643-.375 2.643 0 2.936c.375.293 1.187 0 1.187 0h4.556v1.714l4.01 2.03s2.41-.73 4.236 0c1.825.731 2.757-1.818 3.363 1.83.607 3.647-1.867 3.322 0 5.07 1.868 1.75 2.307 1.864 3.113 2.922.805 1.057.958 2.166 2.862 1.869 1.904-.297 2.93-2.383 4.506-1.87 1.576.514 1.579-.696 4.71 0 3.133.698 2.506-1.362 5.775 0 3.27 1.363 4.817-.556 6.244 0 1.428.557 3.665-.627 6.232 0 2.566.629 6.373-1.082 7.471 0 1.1 1.084 7.414 1.87 7.414 1.87s6.046 3.205 7.517 6.32c1.47 3.114 1.312 4.107 0 8.722-1.311 4.615-2.143 6.478-2.143 6.478s.61.082 2.143 0 2.453-1.597 3.348-2.89c.894-1.293.643-3.715 2.75-3.588 2.106.127 3.9-.373 3.571-1.135-.328-.762-3.638-2.362-3.571-3.675.066-1.312-.246-.489-1.082-3.913-.836-3.424-.012-.731-1.668-4.685-1.656-3.954 1.144-3.921-3.348-6.424-4.492-2.503-11.496-3.1-14.93-3.1-3.435 0-9.736-3.593-10.435-3.8-.7-.208-3.487-3.928-5.171-5.104-1.684-1.176-4.342-3.22-4.342-3.22s-.067.474-2.66-2.284c-2.595-2.758-3.593-2.169-6.1-5.274-2.508-3.106-3.981-4.88-5.083-5.414-1.101-.536-2.105-1.65-4.01-1.455-1.906.194-3.113 0-3.113 0l-1.8 4.115Z" stroke-dasharray="2 1" stroke-linejoin="round" stroke-linecap="round" stroke-width=".5" stroke="#fff" fill="transparent" data-name="Caribbean"/></svg>