<svg xmlns="http://www.w3.org/2000/svg" width="90.864" height="88.419" viewBox="684.494 590.026 90.864 88.419"><path d="m775.607 608.664-3.98-1.592h-1.395l-1.921 1.592-3.412-1.592v-1.96s-1.753.402-2.527 0c-.773-.403-3.543.79-4.36 0-.816-.79-3.886-1.564-3.886-1.564l2.512-3.414 1.375-4.287 1.564-3.368v-2.203l-2.94 2.203-2.511 2.291h-9.057l-4.999-2.29-4.76 2.29-4.828 1.077-3.683 2.995 8.51-2.995 4.761 2.995v3.56s-1.91 5.015 0 4.67c1.911-.345 4.528-.564 5 0 .471.565 2.293 0 2.293 0h5.684l1.079 1.592s.128 3.889-1.08 5.19c-1.206 1.3-5.353 2.778-5.683 3.248-.33.471-3.529 1.003-4.763 1.93-1.235.927-1.85-.103-3.681 2.089s-5.882 2.37-5.882 2.37l-1.113-2.37v-2.089l3.386-4.026s.017-1.504 0-1.153c-.018.352-3.2 3.168-4.828 3.25-1.627.08-3.897 1.187-4.85 1.93-.953.741-4.255 1.063-5.087 2.088-.832 1.025-2.406 2.358-2.113 4.635.293 2.276-4.273 4.804-4.273 4.804s-3.874.176-4.335 1.087c-.46.912-1.797 2.303-1.797 2.303l-2.953 6.432s-2.583 4.298-3.075 5.452-.854 2.975 0 4.38c.855 1.407 0 4.53 0 4.53l-5.658 2.689-5.156 2.094s-3.585 2.38-3.956 3.185c-.372.806-1.43-.748-2.16 2.577-.731 3.325 0 8.405 0 8.405l2.16 5.001" stroke-dasharray="2 1" stroke-linejoin="round" stroke-linecap="round" stroke-width=".5" stroke="#fff" fill="transparent" data-name="East Coast"/></svg>