<svg xmlns="http://www.w3.org/2000/svg" width="135.293" height="56.909" viewBox="932.884 613.12 135.293 56.909"><path d="M5328.827 619.131c1.534.505 5.091 1.97 7.09 2.438 1.999.468-.661.073 8.852-2.438 9.512-2.51 11.087-3.26 11.087-3.26l7.878-1.25c1.97-.311 7.816 0 7.816 0h3.817l5.514-1.498c1.379-.375 4.423 4.373 4.423 4.373l-4.423 6.466c-1.106 1.616 3.798 4.122 5.706 5.06 1.91.936 5.428.655 6.595 1.311 1.166.656 5.513 3.498 5.513 3.498l8.181 3.56 5.028 1.345 1.576-3.062v-3.842l6.18-2.81 5.09 2.81 9.271 2 9.271 3.56 6.726-3.56 8.845 1.842 5.757-11.712v-6.466l-3.817-1.625-5.823 3.26-6.588-3.26-4 1.625-7.827-2.874-2.544-4.716-1.636-5.153v-4.498h-4.606l-4.907 2.624v3.154l4.907 3.873-3.029 3.217-1.878 4.373-5.878-4.373v-1.436l-1.757-5.654-3.333-4.592v-5.278l-9.512-4.935-6.12-3.748-4.97-6.153-2.786 1.437v3.248l2.787 3.748 4.968 4.591 4.122 1.812 6.483 4.092 1.695 2.624h-6.179l1.575 3.154-1.575 3.873-3.697 1.78v-5.653l-2.424-4.592-7.755-5.278-5.636-4.935-2-3.748-5.513-1.468-6.06 5.216-7.876-1.468-3.697 1.468v4.935l-6.725 4.092-4.186 4.498 1.156 3.51-4.246 3.424-2.237 4.184-7.943-1.25-4.726 4.51Z" stroke-dasharray="2 1" stroke-linejoin="round" stroke-linecap="round" stroke-width=".5" stroke="#fff" fill="transparent" transform="matrix(.99632 0 0 .9913 -4376.321 36.856)" data-name="Mediteranean"/></svg>