<svg xmlns="http://www.w3.org/2000/svg" width="112.252" height="155.665" viewBox="932.771 444.758 112.252 155.665"><path d="M990 445.008s19.629 27.867 6.465 49.611c-13.164 21.744-63.444 56.797-63.444 56.797s7.727 2.307 19.61-2.936c11.883-5.242 14.52-6.443 14.52-6.443v9.379l1.165 2.952 5.126 4.415s2.664-.032 6.397-2.321c3.732-2.29 5.71-5.046 5.71-5.046s.548 2.839 2.96 7.367c2.414 4.528 5.207 7.417 5.207 7.417h-1.22s.211 3.677 1.22 4.043c1.009.366 2.749 0 2.749 0s.456-1.358 1.578-2.073c1.122-.715.87-3.001 2.147-1.97 1.278 1.031 2.848 0 2.848 0s1.798-1.175 2.766-4.999c.967-3.824-.418-5.563 1.999-6.833 2.417-1.27 2.524-3.965 8.039-5.888 5.514-1.922 6.888-1.869 6.888-1.869s.852 1.468 3.667 1.87c2.816.4 4.387-1.58 8.624-1.87 4.236-.289 6.383.66 7.262 0 .88-.66 2.99 0 2.99 0s-.087 1.769-1.275 3.16c-1.187 1.392-2.394 1.605-4.016 1.645-1.62.04-5.385.157-6.381 0-.997-.157-6.065 1.432-6.065 1.432s.348 2.948 1.17 3.614c.82.666 1.26 2.321 1.26 2.321s-.228 1.772 0 2.418c.227.647.745 1.126-1.26 1.086-2.007-.04-2.661.147-3.731-1.086-1.07-1.232-4.267 0-4.267 0s-1.472 4.47-1.473 5c0 .527-.511-.504 0 1.969.512 2.473 0 3.571 0 3.571l-4.975 1.754h-3.051s-2.177-.99-3.406 0c-1.23.99-4.765 2.737-4.765 2.737l-4.995 1.582-1.578-1.582s-2.882-1.859-3.969-1.566c-1.087.293-3.986 0-3.986 0l-2.961-1.17s-2.4-.712-1.961-1.755c.44-1.043 1.96-3.571 1.96-3.571v-3.253s-.016-1.986 0-2.63c.017-.644 0-2.19 0-2.19l-4.198 1.104s-3.851 1.65-4.296 2.603c-.446.952-1.411 2.257-1.087 4.366.324 2.108.824 2.397 1.087 3.571.262 1.174 1.106 3.874 1.253 4.491.146.618-1.253 1.582-1.253 1.582s-1.239-.84-3.612 0-3.802.945-5.126 1.384c-1.323.44-3.947.72-4.095 1.819-.149 1.098-1.654 3.123-1.95 3.887-.297.765-2.352 3.815-2.352 3.815s-2.754 1.585-3.527 1.82c-.774.235-.416 2.197-1.65 3.27-1.235 1.074-3.054.561-4.082 1.22-1.027.66-1.992 1.465-1.992 1.465h-2.918l-2.703 2.114h-7.487l-2.539 2.065" stroke-dasharray="2 1" stroke-linejoin="round" stroke-linecap="round" stroke-width=".5" stroke="#fff" fill="transparent" data-name="Nordics"/></svg>