<svg xmlns="http://www.w3.org/2000/svg" width="374.19" height="125.557" viewBox="396.25 466.62 374.19 125.557"><path d="M458 552.36s-2.07 3.117-4.534 5.847c-2.464 2.73-4.942 5.063-6.61 5.885-1.666.823-6.485 1.407-7.516 1.72-1.031.314-7.361 1.709-8.668 3.119-1.307 1.41-6.13 2.802-7.98 3.918-1.848 1.116-3.687 1.324-5.86 2.687-2.173 1.364-6.94 2.594-8.227 3.375-1.286.782-7.436 2.813-7.436 2.813l-4.475-2.813s-1.27-2.274 2.686-3.375c3.957-1.1 9.225-2.687 9.225-2.687s5.993-2.133 8.227-3.918c2.234-1.785 5.86-4.839 5.86-4.839s2.977-1.192 3.486-3.38c.51-2.187 3.59-2.084 0-2.505-3.59-.42-5.058 0-5.058 0l-2.782-4.353s.312-3.133-1.506-3.133-1.942.339-3.807 0c-1.865-.338-4.42-1.53-4.42-1.53s-2.775-2.282-2.994-3.438c-.219-1.157 1.594-3.271 0-4.387-1.594-1.116-3.694-5.264-2.425-5.858 1.27-.594 2.425-2.474 2.425-2.474s.868-2.512 2.994-2.512c2.127 0 3.068-.607 4.42 0 1.351.607 3.807 0 3.807 0s4.003-4.45 1.506-4.018c-2.497.43-5.313 0-5.313 0s-3.237-1.091-4.42 0c-1.182 1.091-5.419 0-5.419 0l-2.017-3.697s-2.657-3.58-1.789-4.272c.869-.693 3.806-2.5 3.806-2.5s.153-1.844 2.425-2.14c2.272-.297.69.89 2.994 0 2.305-.891 2.765-3.391 2.765-3.391l-5.76-2.005h-2.424v-4.365l2.425-3.588h5.759l3.913-4.334 3.055-4.281 4.355-1.672 3.485-1.901 4.494-3.324h11.986l8.451 3.324 9.246 1.901h8.579l6.304 1.672s2.98-.415 4.239 0c1.257.415 6.226 1.809 6.226 1.809h6.434l9.508 4.302s4.321.763 5.58 0c1.257-.763 7.61-4.302 7.61-4.302l5.867-1.81s3.34-2.567 4.945-1.671c1.605.896 7.055 1.672 7.055 1.672l2.407 1.809h11.663l10.124 2.472s4.562.037 5.637 1.83c1.074 1.793 4.86 2.609 6.031 2.504 1.172-.106 4.384-2.508 5.5 0 1.116 2.507 5.559 3.588 5.559 3.588s7.458-.176 8.801 0c1.344.176 3.436-.835 5.485-1.809 2.048-.973 6.603-1.78 6.603-1.78s7.84 3.392 9.054 3.589c1.215.197 10.69-1.809 10.69-1.809l3.75-8.585v-3.481s-.948-1.806-2.297-3.254c-1.348-1.448-2.69-2.635-4.329-3.51-1.638-.875-9.686-1.482-7.814-4.263 1.873-2.782 2.577-4.308 2.577-4.308l2.91-4.24s3.18-3.559 6.656-3.322c3.477.237 4.344.405 6.72 0 2.374-.405 4.995 0 4.995 0s.782-.656 2.192 0c1.41.656 4.097-1.383 5.832 0 1.734 1.383 7.68 1.383 7.68 1.383h4.212s3.305-.862 4.574 0c1.27.862 5.221 2.661 7.573 1.94 2.351-.721 7.042-2.637 9.655-1.94 2.613.696 10.997-1.142 12.31 0 1.312 1.142 12.293 1.94 12.293 1.94s3.307 1.555 4.618 4.24c1.311 2.684 7.522 4.307 7.522 4.307l12.804 11.027s4.258 3.378 5.918 3.48c1.66.103 2.723 2.853 2.623 4.303-.099 1.449 2.037 4.283 2.037 4.283l6.43 4.15s5.274-1.877 7.016 4.029c1.743 5.906 1.279 7.759 0 9.634-1.278 1.875-.981.568-2.705 2.67-1.724 2.1-4.311 3.696-4.311 3.696s-2.006-2.393-1.378 0c.628 2.393 1.378 4.018 1.378 4.018l-2.756 7.094 2.756 5.32 4.31 10.918 4.942 6.858 2.132 3.38s.956 1.825 2.603 3.473c1.647 1.649 5.225 5.284 5.225 5.284l7.328 2.687s-1.219 4.977 0 6.188c1.219 1.21 2.454 3.531 2.453 4.605-.001 1.075-2.453 6.098-2.453 6.098" stroke-dasharray="2 1" stroke-linejoin="round" stroke-linecap="round" stroke-width=".5" stroke="#fff" fill="transparent" data-name="NorthWest Passage"/></svg>