<svg xmlns="http://www.w3.org/2000/svg" width="42.808" height="74.907" viewBox="723.442 898.741 42.808 74.907"><path d="M739.9 973.739s-4.28.75-8.02-1.007c-3.741-1.757-5.57-1.821-6.442-5.014-.874-3.192-1.746-2.892-1.746-6.105 0-3.213 1.745-4.777 1.745-4.777s1.787-2.186 3.616-5.12c1.829-2.936 4.073-5.485 4.073-5.485l1.04-4.328c.26-1.082-3.99-1.842-3.658-4.263.332-2.422 4.862-6.25 6.483-8.334 1.621-2.084.831-3.771.831-3.771l3.907-2.763v-3.257c0-.814 5.57-4.242 5.57-4.242v-3.085s-4.905-1.371 0-1.628c4.904-.257 9.641-1.992 9.641-1.992l3.41-1.821 2.201-3.064 3.949-4.692" stroke-dasharray="2 1" stroke-linejoin="round" stroke-linecap="round" stroke-width=".5" stroke="#fff" fill="transparent" data-name="Patagonia"/></svg>