<svg xmlns="http://www.w3.org/2000/svg" width="199.025" height="86.512" viewBox="1062.75 681.286 199.025 86.512"><path d="M1063 681.536s4.895 6.933 5.11 8.038c.217 1.106 9.002 17.271 9.783 18.962.781 1.692 6.326 10.81 6.326 10.81s3.613 5.68 4.004 6.754c.39 1.074 4.735 7.035 4.735 7.035s5.494 2.976 7.197 2.46c1.703-.516 5.699-1.63 9.281-2.46 3.582-.83 8.48-1.98 8.48-1.98s5.667-1.896 6.925-1.68c1.258.216 6.685 1.27 9.08 1.68 2.394.41 5.661.668 6.735 1.98 1.074 1.313 12.153 31.67 48.1 34.58 35.946 2.91 73.269-14.197 73.269-14.197" stroke-dasharray="2 1" stroke-linejoin="round" stroke-linecap="round" stroke-width=".5" stroke="#fff" fill="transparent" data-name="SuezCanal"/></svg>