<svg xmlns="http://www.w3.org/2000/svg" xmlns:xlink="http://www.w3.org/1999/xlink" width="220.564453125" height="202.2958984375" viewBox="469.8447265625 548.4384155273438 220.564453125 202.2958984375"><path d="M 5025.0947265625 606.1142578125 C 5025.0947265625 606.1142578125 5036.6875 607.2158203125 5037.6396484375 607.361328125 C 5038.591796875 607.5068359375 5041.8779296875 607.63671875 5042.8779296875 609.076171875 C 5043.8779296875 610.515625 5051.8037109375 612.107421875 5051.8037109375 612.107421875 C 5051.8037109375 612.107421875 5054.11328125 613.7080078125 5055.234375 614.5361328125 C 5056.35546875 615.3642578125 5058.98046875 613.166015625 5059.8828125 614.5361328125 C 5060.78515625 615.90625 5061.150390625 615.943359375 5061.44921875 618.232421875 C 5061.748046875 620.521484375 5061.44921875 623.228515625 5061.44921875 623.228515625 C 5061.44921875 623.228515625 5063.6767578125 626.3427734375 5063.896484375 627.7255859375 C 5064.1162109375 629.1083984375 5063.896484375 632.015625 5063.896484375 632.015625 L 5066.4052734375 634.72265625 C 5066.4052734375 634.72265625 5066.8564453125 635.1064453125 5068.1533203125 637.7724609375 C 5069.4501953125 640.4384765625 5070.8310546875 640.38671875 5071.6103515625 642.3466796875 C 5072.3896484375 644.306640625 5073.7314453125 644.4228515625 5073.7314453125 644.4228515625 L 5076.7080078125 644.4228515625 L 5081.7978515625 644.4228515625 C 5081.7978515625 644.4228515625 5082.396484375 645.501953125 5081.7978515625 646.7705078125 C 5081.19921875 648.0390625 5080.7646484375 648.9677734375 5081.7978515625 650.0810546875 C 5082.8310546875 651.1943359375 5084.814453125 653.1376953125 5084.814453125 653.1376953125 C 5084.814453125 653.1376953125 5090.7236328125 655.255859375 5092.68359375 658.017578125 C 5094.6435546875 660.779296875 5096.146484375 665.9580078125 5096.169921875 669.11328125 C 5096.193359375 672.2685546875 5095 674.4013671875 5094.92578125 677.48046875 C 5094.8515625 680.5595703125 5093.8447265625 676.9501953125 5094.92578125 682.056640625 C 5096.0068359375 687.1630859375 5095.29296875 688.91796875 5094.92578125 690.1953125 C 5094.55859375 691.47265625 5093.5029296875 692.5712890625 5094.92578125 692.8642578125 C 5096.3486328125 693.1572265625 5099.1005859375 697.6572265625 5099.1005859375 697.6572265625 C 5099.1005859375 697.6572265625 5101.154296875 701.9052734375 5101.9501953125 703.552734375 C 5102.74609375 705.2001953125 5105.953125 709.7919921875 5106.7333984375 710.7998046875 C 5107.513671875 711.8076171875 5109.775390625 714.962890625 5109.775390625 714.962890625 C 5109.775390625 714.962890625 5112.1015625 714.9716796875 5113.5634765625 716.4501953125 C 5115.025390625 717.9287109375 5117.1064453125 718.9609375 5117.1064453125 718.9609375 C 5117.1064453125 718.9609375 5119.87890625 722.638671875 5120.54296875 724.2646484375 C 5121.20703125 725.890625 5123.466796875 728.263671875 5124.2724609375 729.2158203125 C 5125.078125 730.16796875 5126.974609375 732.55859375 5126.8994140625 733.73046875 C 5126.82421875 734.90234375 5126.65234375 734.7001953125 5126.8994140625 736.220703125 C 5127.146484375 737.7412109375 5127.21875 739.1240234375 5128.056640625 740.5478515625 C 5128.89453125 741.9716796875 5130.810546875 742.91015625 5131.8681640625 743.1298828125 C 5132.92578125 743.349609375 5134.6015625 744.2607421875 5134.6015625 744.2607421875 C 5134.6015625 744.2607421875 5135.041015625 746.2392578125 5134.6015625 747.044921875 C 5134.162109375 747.8505859375 5136.4794921875 749.6455078125 5136.4794921875 749.6455078125 C 5136.4794921875 749.6455078125 5138.388671875 750.048828125 5138.9169921875 751.326171875 C 5139.4453125 752.603515625 5142.73828125 754.984375 5142.73828125 754.984375 L 5146.8369140625 754.984375 L 5145.2470703125 751.326171875 C 5145.2470703125 751.326171875 5144.5634765625 746.9619140625 5143.7470703125 747.044921875 C 5142.9306640625 747.1279296875 5144.3623046875 744.6669921875 5142.73828125 744.2607421875 C 5141.1142578125 743.8544921875 5138.9169921875 740.5478515625 5138.9169921875 740.5478515625 C 5138.9169921875 740.5478515625 5137.53515625 738.2744140625 5136.4794921875 737.2900390625 C 5135.423828125 736.3056640625 5135.642578125 734.41015625 5134.6015625 733.73046875 C 5133.560546875 733.05078125 5131.8681640625 731.30859375 5131.8681640625 731.30859375 L 5129.923828125 729.2158203125 L 5128.056640625 726.65234375 C 5128.056640625 726.65234375 5128.5078125 722.6953125 5129.923828125 722.841796875 C 5131.33984375 722.98828125 5132.8779296875 722.4326171875 5133.09765625 724.2646484375 C 5133.3173828125 726.0966796875 5133.2255859375 731.35546875 5134.6015625 731.30859375 C 5135.9775390625 731.26171875 5143.025390625 737.841796875 5142.73828125 738.744140625 C 5142.451171875 739.646484375 5145.2470703125 744.2607421875 5145.2470703125 744.2607421875 L 5150.2421875 747.044921875 C 5150.2421875 747.044921875 5153.4208984375 749.7509765625 5154.1533203125 751.326171875 C 5154.8857421875 752.9013671875 5157.0009765625 757.638671875 5157.0009765625 757.638671875 C 5157.0009765625 757.638671875 5156.783203125 758.388671875 5157.0009765625 760.0556640625 C 5157.21875 761.72265625 5157.888671875 760.328125 5158.40625 763.5126953125 C 5158.923828125 766.697265625 5161.6552734375 768.19921875 5161.6552734375 768.19921875 L 5169.0859375 772.947265625 L 5174.544921875 775.6357421875 C 5174.544921875 775.6357421875 5179.73828125 778.8583984375 5180.5029296875 779.38671875 C 5181.267578125 779.9150390625 5185.3798828125 780.9052734375 5186.9970703125 781.271484375 C 5188.6142578125 781.6376953125 5192.1328125 779.1005859375 5192.970703125 779.38671875 C 5193.80859375 779.6728515625 5195.4931640625 779.38671875 5195.4931640625 779.38671875 L 5201.943359375 784.5244140625 L 5206.291015625 786.189453125 C 5206.291015625 786.189453125 5210.228515625 786.0888671875 5211.5703125 787.50390625 C 5212.912109375 788.9189453125 5215.9248046875 788.7529296875 5216.3642578125 789.7783203125 C 5216.8037109375 790.8037109375 5218.0234375 792.0966796875 5218.0234375 792.0966796875 C 5218.0234375 792.0966796875 5219.3974609375 792.0478515625 5219.6904296875 793.5361328125 C 5219.9833984375 795.0244140625 5221.91796875 797.8984375 5221.91796875 797.8984375 L 5227.82421875 800.99609375 L 5229.962890625 803.533203125 C 5229.962890625 803.533203125 5232.736328125 804.9423828125 5233.76171875 806.1875 C 5234.787109375 807.4326171875 5238.404296875 807.91015625 5238.404296875 807.91015625 L 5242.16015625 807.91015625 L 5242.16015625 806.1875 L 5243.19921875 803.533203125 L 5245.1591796875 803.533203125" transform="matrix(1,0,0,1,-4555,-57.42584228515625)" fill="none" stroke="#ffffff" stroke-width="0.5" stroke-dasharray="2 1"/></svg>