<?xml version="1.0" encoding="UTF-8"?>
<svg id="Layer_1" xmlns="http://www.w3.org/2000/svg" version="1.1" viewBox="0 0 1184 579">
  <!-- Generator: Adobe Illustrator 29.2.1, SVG Export Plug-In . SVG Version: 2.1.0 Build 116)  -->
  <defs>
    <style>
      .st0 {
        fill: none;
      }

      .st1 {
        fill: #fff;
      }
    </style>
  </defs>
  <rect class="st0" width="1184" height="579"/>
  <path class="st1" d="M1107.7,540.9c-.5,0-1,0-1.5,0v-.5c.7,0,1.4,0,2,0v.5c-.2,0-.4,0-.5,0ZM1109.3,540.8v-.5c.6,0,1.2-.2,1.8-.5l.2.5c-.6.3-1.3.5-2,.5h0ZM1105.2,540.7c-.6,0-1.3-.2-2-.3v-.5c.8.1,1.4.2,2.1.3v.5ZM1102.2,540.2c-.6-.1-1.3-.3-2-.5v-.5c.8.2,1.4.3,2.1.5v.5ZM1112.2,539.8l-.3-.4c.6-.3,1.1-.7,1.6-1.2l.3.4c-.5.5-1.1.9-1.6,1.2h0ZM1099.3,539.4c-.6-.2-1.3-.4-1.9-.6v-.5c.8.2,1.4.4,2.1.6v.5ZM1096.4,538.6c-.6-.2-1.2-.4-1.9-.6l.2-.5c.6.2,1.3.4,1.9.6l-.2.5ZM1114.5,537.8l-.4-.3c.4-.5.9-1,1.2-1.5l.4.3c-.4.6-.8,1.1-1.3,1.6h0ZM1093.6,537.6c-.6-.2-1.2-.4-1.9-.7l.2-.5c.6.2,1.3.5,1.9.7l-.2.5ZM1090.8,536.6c-.6-.2-1.2-.5-1.9-.7l.2-.5c.6.3,1.3.5,1.9.7l-.2.5ZM1088,535.5c-.6-.2-1.2-.5-1.9-.7l.2-.5c.7.3,1.3.5,1.9.7l-.2.5ZM1116.4,535.4l-.4-.3c.3-.6.6-1.1.9-1.7l.5.2c-.3.6-.6,1.2-.9,1.8h0ZM1085.2,534.3h0c-.6-.3-1.2-.5-1.8-.8l.2-.5c.5.2,1.1.5,1.8.7h0s-.2.5-.2.5ZM1082.4,533.2c-.7-.3-1.3-.6-1.8-.8l.2-.5c.5.3,1.1.5,1.8.8l-.2.5ZM1117.7,532.7l-.5-.2c.2-.6.3-1,.3-1h0s0,0,0,0c0,0,.2-.3.5-.7l.4.3c-.3.3-.4.6-.5.7,0,.1-.1.5-.4,1h0ZM1079.7,531.9c-.7-.3-1.3-.7-1.8-1l.3-.4c.5.3,1.1.6,1.7,1l-.2.4ZM1077.1,530.4c-.6-.4-1.1-.8-1.6-1.3l.3-.4c.5.4,1,.8,1.5,1.2l-.3.4ZM1119.1,530.1l-.4-.3c.4-.6.8-1.1,1.2-1.6l.4.3c-.4.5-.8,1-1.2,1.6h0ZM1074.7,528.5h-.1c-.4-.5-.8-.9-1.4-1.3l.3-.4c.5.4,1,.8,1.4,1.2h.1c0,.1-.3.5-.3.5ZM1121,527.8l-.4-.3c.5-.6,1-1.1,1.4-1.5l.4.4c-.4.4-.8.9-1.3,1.5h0ZM1072.5,526.5c-.5-.4-1-.8-1.5-1.3l.3-.4c.5.4,1,.8,1.6,1.3l-.3.4ZM1123,525.7l-.3-.4c.3-.3.6-.5.9-.6h0s.3-.4.3-.4c0,0,.1,0,.2.1.2.1.4.2.3.4,0,.2-.3.3-.5.3-.3.1-.6.3-.8.5h0ZM1070.1,524.6c-.5-.4-1.1-.9-1.5-1.3l.3-.4c.5.4,1,.9,1.5,1.3l-.3.4ZM1123.7,523.7l-.4-.2c.4-.6,1-1,1.6-1.4l.3.4c-.6.3-1.1.7-1.4,1.2h0ZM1067.9,522.6c-.5-.5-1-.9-1.4-1.4l.4-.3c.4.5.9.9,1.4,1.4l-.3.4ZM1126,522.1l-.2-.4c.3-.1.6-.3.9-.4l.9-.4.2.5-.9.4c-.3.1-.6.3-.9.4h0ZM1128.7,520.8l-.2-.5c.7-.3,1.3-.6,1.8-.9l.2.4c-.5.3-1.1.5-1.8.9h0ZM1065.7,520.5c-.5-.5-.9-1-1.3-1.6l.4-.3c.4.5.8,1,1.3,1.5l-.4.3ZM1131.4,519.5l-.2-.4c.7-.4,1.3-.7,1.8-.9l.3.4c-.5.3-1,.6-1.8,1h0ZM1063.9,518.1c-.3-.4-.6-.8-.8-1.2-.1-.2-.2-.3-.3-.5l.4-.3c.1.2.2.3.3.5.3.4.5.8.8,1.2l-.4.3ZM1134.1,518l-.3-.4c.4-.2.7-.6.9-1,0,0,0-.2.1-.4l.5.2c0,.2-.1.3-.1.4-.2.5-.6,1-1.1,1.3h0ZM1062.2,515.6c-.3-.4-.5-.7-.8-1-.2-.2-.3-.4-.5-.6l.4-.3c.2.2.3.4.5.6.3.3.5.6.8,1l-.4.3ZM1135.6,515.3l-.5-.2c.2-.6.5-1.3.8-1.9l.4.2c-.3.6-.5,1.2-.7,1.8h0ZM1060.3,513.3c-.4-.5-.8-1-1.3-1.6l.4-.3c.4.5.8,1,1.3,1.6l-.4.3ZM1136.8,512.7l-.4-.3c.3-.6.8-1.1,1.2-1.5h0c0,0,.3.3.3.3h0c-.4.5-.8,1-1.2,1.5h0ZM1058.4,511c-.4-.6-.7-1-.8-1.1l-.5-.3.2-.4.6.3h0s.3.5.9,1.2l-.4.3ZM1138.8,510.4l-.4-.3c.4-.5.8-1,1.2-1.6l.4.3c-.4.6-.8,1.1-1.2,1.6h0ZM1056.2,509.1l-1.8-1,.2-.4,1.8,1-.2.4ZM1140.5,507.9l-.4-.3c.3-.5.7-1.1,1-1.7l.4.2c-.3.6-.7,1.2-1,1.8h0ZM1053.6,507.7l-1.1-.6h0s-.2-.2-.6-.5l.3-.4c.3.2.5.4.5.5l1.1.6-.2.4ZM1051.2,505.9c-.5-.5-.9-1-1.3-1.6l.4-.3c.4.5.8,1,1.3,1.5l-.4.3ZM1141.9,505.3l-.4-.2h0c0-.1-1-1.3-1-1.3l.4-.3,1.2,1.4h0c0,.1,0,.2-.1.4h0ZM1049.3,503.4c-.2-.4-.4-.8-.5-1.2,0-.2-.1-.5-.1-.7h.5c0,.2,0,.4.1.6.1.4.3.8.5,1.1l-.4.2ZM1135.6,503h0c-.3,0-.6-.2-.7-.5l.4-.3c.1.2.2.3.3.3s.4,0,.8-.6l.4.3c-.4.5-.8.8-1.2.8h0ZM1139.9,503l-1.3-1.5.4-.3,1.3,1.5-.4.3ZM1134.3,501.6c-.4-.5-.8-1-1.3-1.4l.3-.4c.5.4,1,1,1.4,1.5l-.4.3ZM1137.4,501.3l-.4-.3c.2-.4.4-.8.6-1.2l.2-.4.7.8-.4.3-.2-.2c-.1.2-.3.5-.5.9h0ZM1048.5,500.5c0-.7,0-1.4,0-2h.5c0,.7,0,1.3,0,2h-.5ZM1132.3,499.5c-.5-.5-1-1-1.4-1.5l.4-.3c.4.5.8,1,1.3,1.5l-.3.4ZM1049.1,497.5h-.5c0-.9.2-1.5.2-1.5h0s0,0,0,0c0,0,0-.2.2-.5l.5.2c-.1.2-.2.4-.2.5,0,.1,0,.7-.2,1.4ZM1130.4,497.1c-.2-.3-.3-.7-.4-1-.1-.3-.2-.6-.4-.8l.4-.2c.2.3.3.6.4.9.1.3.3.6.4.9l-.4.2ZM1049.9,494.7l-.4-.2c.3-.6.6-1.2.9-1.8l.4.2c-.3.6-.6,1.2-.9,1.8h0ZM1129,494.5c-.4-.5-.8-1-1.3-1.5l.4-.3c.5.5.9,1,1.3,1.5l-.4.3ZM1127.1,492.3c-.5-.4-1-.9-1.5-1.3l.3-.4c.6.4,1.1.9,1.5,1.3l-.3.4ZM1051.3,492.1l-.4-.2c.4-.7.7-1.3,1-1.7l.4.3c-.3.5-.6,1-1,1.7h0ZM1124.7,490.4c-.6-.5-1.1-.7-1.1-.7h0s0,0,0,0c0,0-.2-.2-.5-.5l.4-.3c.2.3.4.4.4.5.1,0,.5.3,1.1.7l-.3.4ZM1052.9,489.6l-.4-.3c.4-.5.7-1,1-1.6h0s.5.2.5.2h0c-.2.7-.6,1.3-1,1.8ZM1122.5,488.4c-.4-.5-.8-1-1.3-1.6l.4-.3c.4.5.9,1,1.3,1.5l-.4.3ZM1054.3,486.9l-.4-.3c.1-.2.2-.4.4-.6.2-.4.4-.7.6-1.1l.5.2c-.2.4-.4.8-.6,1.2-.1.2-.3.4-.4.5h0ZM1120.6,486c-.4-.5-.8-1.1-1.2-1.6l.4-.3c.4.5.8,1.1,1.2,1.6l-.4.3ZM1055.7,484.2l-.5-.2c.2-.6.4-1.2.6-1.9h.5c-.2.8-.4,1.5-.6,2.1h0ZM1118.8,483.6c-.4-.5-.8-1.1-1.2-1.6l.4-.3c.4.5.8,1.1,1.2,1.6l-.4.3ZM1056.5,481.3h-.5c0-.4,0-.5,0-.5h0s0,0,0,0c0,0,.3-.6.7-1.4l.4.2c-.4.7-.6,1.2-.7,1.4,0,0,0,.2,0,.4h0ZM1117,481.2c-.4-.6-.8-1.1-1.1-1.7l.4-.3c.4.5.7,1.1,1.1,1.6l-.4.3ZM1115.3,478.7c-.4-.6-.7-1.1-1.1-1.7l.4-.3c.3.5.7,1.1,1.1,1.7l-.4.3ZM1057.7,478.6l-.5-.2c.3-.6.6-1.2.8-1.8l.5.2c-.2.6-.5,1.2-.8,1.8h0ZM1113.7,476.2c-.4-.6-.7-1.2-1-1.7l.4-.2c.3.6.7,1.1,1,1.7l-.4.3ZM1058.9,475.9l-.5-.2c.2-.4.3-.9.5-1.3,0-.2.1-.4.2-.6h.5c0,.3-.1.5-.2.7-.1.4-.3.8-.5,1.3h0ZM1112.2,473.6c-.3-.6-.6-1.2-.9-1.8l.4-.2c.3.6.6,1.2.9,1.8l-.4.2ZM1059.7,472.9h-.5c0-.7.1-1.4,0-2h.5c0,.7,0,1.3,0,2h0ZM1110.9,470.9c-.3-.6-.6-1.2-.8-1.8l.5-.2c.3.6.5,1.2.8,1.8l-.5.2ZM1059.3,469.9c0-.8-.2-1.5-.2-2h.5c0,.4.2,1.1.3,1.9h-.5ZM1109.6,468.1c-.3-.6-.5-1.2-.8-1.9l.5-.2c.2.6.5,1.2.7,1.8l-.5.2ZM1059.4,466.9h-.5v-2h.5v2ZM1108.5,465.3c-.2-.6-.5-1.3-.7-1.9l.5-.2c.2.6.4,1.3.7,1.9l-.5.2ZM1059.4,463.9h-.5v-2h.5v2ZM1107.5,462.5c-.2-.6-.4-1.3-.6-1.9h.5c.2.5.4,1.1.6,1.8l-.5.2ZM1059.4,460.9h-.5v-.5l-.8-1.1.4-.3.9,1.2v.7ZM1106.6,459.6c-.2-.6-.4-1.3-.6-1.9h.5c.2.5.4,1.1.6,1.8h-.5ZM1057.4,458.6l-1.2-1.6.4-.3,1.2,1.6-.4.3ZM1105.8,456.7c-.2-.7-.3-1.3-.5-1.9h.5c.1.5.3,1.1.5,1.8h-.5ZM1055.6,456.2l-1.2-1.6.4-.3,1.2,1.6-.4.3ZM1053.8,453.9l-1.2-1.6.4-.3,1.2,1.6-.4.3ZM1105.1,453.8c-.4-1.8-.3-1.9-.2-2,0,0,0,0,.1,0h0c0,0,0,0,0,0,.1,0,.3.1.3.3,0,0,0,0,0,0,0,.6.2,1.1.3,1.6h-.5ZM1103.9,451.6c-.6-.5-.9-1.4-.5-2.1l.5.2c-.3.5-.1,1.2.4,1.5l-.3.4ZM1052,451.4l-1-1.7.4-.3,1,1.7-.4.3ZM1104.3,448.9l-.4-.3c.3-.4.6-.7,1-1,.2-.1.3-.3.5-.4l.3.4c-.2.2-.3.3-.5.5-.3.3-.6.6-.9.9h0ZM1050.4,448.8l-1-1.7.4-.3,1,1.7-.4.3ZM1106.4,446.8l-.4-.3c.5-.5.9-1,1.3-1.5l.4.3c-.4.5-.8,1.1-1.3,1.5h0ZM1048.9,446.3l-1-1.7.4-.3,1,1.7-.4.3ZM1108.3,444.4l-.4-.3c.4-.5.7-1.1.9-1.7l.5.2c-.3.6-.6,1.2-1,1.8h0ZM1047.4,443.7l-1-1.7.4-.3,1,1.7-.4.3ZM1109.6,441.7l-.5-.2c.2-.6.3-1.2.4-1.9h.5c0,.7-.2,1.4-.4,2h0ZM1045.7,441.4l-1.6-1.2.3-.4,1.6,1.2-.3.4ZM1043.3,439.6l-1.6-1.2.3-.4,1.6,1.2-.3.4ZM1110,438.6h-.5c0-.7.2-1.4.3-2h0s.5,0,.5,0h0c-.2.6-.3,1.3-.3,1.9h0ZM1040.9,437.8h-.2c0-.1,0-.2,0-.2,0,0-.3-.7-.8-1.6l.4-.2c.4.8.7,1.4.8,1.6h0c0,0-.3.5-.3.5ZM1110.6,435.7h-.5c.1-.7.2-1.4.2-2h.5c0,.7,0,1.3-.2,2h0ZM1039.4,435.1c-.3-.6-.6-1.2-.9-1.8l.4-.2c.3.6.6,1.2.9,1.8l-.4.2ZM1110.1,432.8c-.1-.4-.3-.8-.5-1.1-.1-.2-.3-.4-.4-.6l.4-.2c.1.2.2.4.4.6.2.4.4.8.5,1.2h-.5ZM1038,432.4c-.3-.6-.7-1.2-1-1.7l.4-.2c.3.5.6,1.1,1,1.8l-.4.2ZM1108.8,430.2c-.2-.5-.4-.9-.6-1.4,0-.2-.1-.3-.2-.5l.5-.2c0,.2.1.3.2.5.2.4.3.8.6,1.3l-.5.2ZM1036.5,429.8c-.3-.6-.6-1.1-.9-1.5v-.2c-.1,0,.3-.3.3-.3,0,0,0,.1.1.2.3.4.6.9.9,1.5l-.4.3ZM1012.6,428.5h-.2c0,0-.3-.2-.7-.4l.2-.5c.2,0,.4.2.5.2l.7-.8.4.3-1,1ZM1010.8,427.7c-.7-.3-1.3-.6-1.8-.9l.3-.4c.5.3,1.1.6,1.7.9l-.2.5ZM1107.6,427.4c-.3-.6-.6-1.2-1-1.7l.4-.3c.4.6.7,1.1,1,1.7l-.5.2ZM1034.9,427.3c-.3-.5-.8-1-1.3-1.4l.3-.4c.5.4,1,1,1.4,1.5l-.4.3ZM1014.2,426.7l-.4-.3,1-1v-.4h.5v.6h0c0,0-1,1.2-1,1.2ZM1008.1,426.2c-.2-.2-.5-.4-.7-.6-.3-.3-.5-.5-.9-.7l.3-.4c.3.2.7.5.9.8.2.2.4.4.6.5l-.3.4ZM1032.8,425.3c-.2-.4-.6-1-1-1.7l.4-.3c.4.7.8,1.3,1,1.7l-.4.3ZM1106,424.8c-.3-.6-.6-1.2-.8-1.8l.5-.2c.2.5.5,1.2.8,1.8l-.4.2ZM1005.8,424.4c-.5-.2-1-.5-1.6-.6h0s-.2-.3-.2-.3l.4-.3h.1c.5.3,1.1.5,1.6.8l-.2.4ZM1015.3,424h-.5v-2h.5v2ZM1003.2,422.8l-1.4-1.5.4-.3,1.4,1.5-.4.3ZM1031.3,422.7c-.4-.6-.7-1.2-1-1.7l.4-.2c.3.5.6,1.1,1,1.7l-.4.3ZM1104.8,422.1h0c-.2-.6-.5-1.2-.7-1.8l.5-.2c.3.6.5,1.2.7,1.8h0s-.5.2-.5.2ZM1015.3,421.1l-.5-.2.7-1.9.5.2-.7,1.9ZM1002.5,420.4l-.5-.2.8-1.8.5.2-.8,1.8ZM1029.8,420.1c-.3-.5-.5-.9-.6-1.2,0-.2-.2-.4-.4-.5l.4-.3c.2.2.3.4.4.7.1.2.3.6.6,1.1l-.4.2ZM1103.7,419.3c-.3-.6-.6-1.2-1-1.7l.4-.3c.4.6.7,1.1,1,1.8l-.4.2ZM1016.3,418.2l-.5-.2.7-1.9.5.2-.7,1.9ZM1028.2,417.7c-.5-.4-1-.8-1.6-1.2l.3-.4c.6.4,1.1.8,1.6,1.2l-.3.4ZM1003.6,417.7l-.5-.2c.3-.7.6-1.3.8-1.8l.5.2c-.2.5-.5,1.2-.8,1.8h0ZM1102.1,416.9c-.4-.5-1-.8-1.5-1.1l.2-.5c.7.3,1.2.7,1.7,1.2l-.4.3ZM1025.8,416c-.3-.2-.4-.3-.4-.3h0s-.6-1.5-.6-1.5l.5-.2.5,1.3c0,0,.2.1.4.2l-.3.4ZM1099.6,415.6h0c-.6-.2-1.2-.4-1.8-.5v-.5c.7.2,1.4.3,2,.5h0s-.1.5-.1.5ZM1017.2,415.3h-.5v-2h.5v2ZM1004.1,414.8c-.1-.5-.8-.9-1.3-1.1l.2-.5c.9.3,1.5.8,1.6,1.4h-.5ZM1096.7,414.7c-.7-.2-1.4-.4-1.9-.7l.2-.5c.5.2,1.2.4,1.9.7l-.2.5ZM1093.9,413.6c-.6-.3-1.2-.7-1.7-1.1l.3-.4c.5.4,1.1.7,1.6,1l-.2.4ZM1001.9,413.5h-2v-.5h2v.5ZM998.9,413.5h-1.8s-.3-.2-.3-.2l.2-.5h.3c0,.1,1.6.1,1.6.1v.5ZM1024.3,413.3l-.7-1.9.5-.2.7,1.9-.5.2ZM995.9,412.9c-.6-.3-1.2-.6-1.8-.9l.2-.4c.6.3,1.2.6,1.8.9l-.2.5ZM1017.7,412.7l-.4-.3,1.2-1.6.4.3-1.2,1.6ZM1091.4,411.8c-.2-.2-.3-.4-.5-.7-.2-.3-.4-.7-.6-1.1l.5-.2c.2.4.4.8.6,1.1.1.2.3.4.4.6l-.4.3ZM993.2,411.6c-.7-.4-1.3-.7-1.8-1l.3-.4c.5.3,1,.6,1.7,1l-.2.4ZM1023.3,410.5l-.3-.7h-.9v-.5h1.2l.4,1-.5.2ZM1019.6,410.3l-.4-.3.6-.8h1.3v.5h-1l-.5.6ZM990.6,410c-.1-.1-.3-.2-.4-.4-.3-.4-.7-.7-1.1-.9l.3-.4c.4.3.8.6,1.2,1,0,.1.2.2.3.3l-.3.4ZM1089.9,409.1c-.3-.6-.5-1.3-.8-1.9l.5-.2c.2.6.5,1.2.7,1.8l-.5.2ZM988.3,408.2c-.5-.3-1.1-.7-1.7-1l.3-.4c.6.4,1.2.7,1.7,1.1l-.3.4ZM985.7,406.6c-.2-.1-.3-.2-.3-.2h0s-.6-.5-1.3-1l.3-.4c.6.5,1.2.9,1.2,1l.3.2-.2.4ZM1088.8,406.3c-.2-.6-.5-1.2-.8-1.8l.4-.2c.3.6.6,1.2.8,1.9l-.5.2ZM983.3,404.7c-.2-.2-.3-.4-.5-.6-.2-.3-.5-.6-.8-.9l.4-.3c.3.3.6.6.8,1,.1.2.3.4.5.5l-.4.3ZM1087.4,403.7c0-.2,0-.4,0-.6,0-.4,0-.8-.3-1.2l.4-.3c.4.4.5,1,.4,1.5,0,.2,0,.3,0,.5h-.5ZM981.4,402.5c-.6-.6-1.2-1.1-1.4-1.4l.3-.4c.3.3.9.8,1.5,1.4l-.4.4ZM1086.4,401.4c-.4-.2-.8-.3-1.2-.4-.2,0-.4-.1-.6-.2v-.5c.3,0,.5,0,.8.2.4.1.9.3,1.3.4l-.2.5ZM979.1,400.8c-.5,0-1.2-.3-1.9-.4v-.5c.9.2,1.6.3,2.1.4v.5ZM1083.5,400.6c-.5,0-.9-.2-1.3-.2-.2,0-.5,0-.7-.1v-.5c.3,0,.5,0,.7.1.4,0,.8.1,1.3.2v.5ZM976.2,400.1c-.7-.2-1.4-.3-2-.4v-.5c.7.1,1.3.3,2.1.4v.5ZM1080.5,400c-.5-.2-1-.5-1.4-.8l-.4-.3.3-.4.4.3c.4.3.8.6,1.3.7l-.2.5ZM964.5,399.6c-.2,0-.4,0-.5-.1-.5-.1-.9-.2-1.4-.2v-.5c.5,0,1.1.1,1.5.2.2,0,.3,0,.5,0v.5ZM973.3,399.5c-.6-.1-1.1-.2-1.4-.3h-.4c0,0-.2-.1-.2-.1v-.5c0,0,.3,0,.3,0h.4c.3.1.8.2,1.4.3v.5ZM965.6,399.4l-.2-.5c.1,0,.2,0,.4-.2.5-.2,1.1-.4,1.6-.4v.5c-.4,0-.9.2-1.4.4-.1,0-.3.1-.4.2h0ZM961.5,399.2h-2v-.5h2v.5ZM958.5,399.2h-2v-.5h2v.5ZM955.5,399.2h-2v-.5h2v.5ZM952.5,399.2h-2v-.5h2v.5ZM949.5,399.2h-2v-.5h2v.5ZM946.5,399.2h-2v-.5h2v.5ZM943.5,399.2h-2v-.5h2v.5ZM940.5,399.2h-2v-.5h2v.5ZM937.5,399.2c-.2,0-1-.2-2-.5v-.5c1.1.2,1.9.4,2.1.4v.5ZM970.3,399c-.6-.1-1.3-.2-2-.2v-.5c.7,0,1.4,0,2,.2v.5ZM934.6,398.5c-.7-.2-1.3-.4-1.9-.6l.2-.5c.6.2,1.2.4,1.9.6v.5ZM1078,398.3c-.5-.3-.9-.7-1.6-1.1l.3-.4c.7.5,1.2.8,1.7,1.1l-.3.4ZM931.7,397.6c-.6-.2-1.3-.5-1.9-.8l.2-.4c.6.3,1.2.6,1.8.8l-.2.5ZM1075.5,396.6c-.5-.3-1.1-.7-1.7-1.1l.3-.4c.6.4,1.2.7,1.7,1.1l-.3.4ZM929,396.1c-.2-.2-.4-.4-.6-.7-.1-.3-.4-.6-.7-.8l.2-.5c.4.2.7.6.9,1,.1.2.3.4.5.5l-.3.4ZM926.8,395.6l-1.5-.5v-.5c.1,0,1.2.3,1.2.3,0-.1.1-.3.2-.4l.4.3c-.1.2-.2.3-.3.5v.2ZM1044.9,395.6c-.1,0-.2,0-.3,0-.3,0-.6,0-.8,0v-.5c.2,0,.5,0,.9,0,.4,0,.7,0,1.1,0v.5c-.2,0-.5,0-.8,0h0ZM915.8,395.6l-2-.4v-.5c.1,0,2.1.4,2.1.4v.5ZM1046.7,395.4v-.5c.5,0,1.1-.2,1.9-.4v.5c-.6.2-1.3.3-1.8.4h0ZM916.9,395.3l-.2-.5,1.9-.7.2.5-1.9.7ZM1042.7,395.1c-.5-.4-1.1-.8-1.6-1.1l.3-.4c.6.4,1.1.7,1.7,1.2l-.3.4ZM1073,395c-.8-.5-1.3-.8-1.7-1.1l.3-.4c.4.2.9.6,1.7,1.1l-.3.4ZM912.9,394.9l-2-.4v-.5c.1,0,2.1.4,2.1.4v.5ZM924.3,394.9l-1.9-.6v-.5c.1,0,2.1.6,2.1.6v.5ZM1049.7,394.7v-.5c.5-.2,1.1-.3,1.8-.5v.5c-.5.2-1.2.4-1.8.6h0ZM909.9,394.3l-2-.4v-.5c.1,0,2.1.4,2.1.4v.5ZM919.7,394.3l-.2-.5,1.3-.4.8.2v.5c-.1,0-.8-.2-.8-.2l-1.1.4ZM1052.6,393.9l-.2-.5h.1s1.8-.6,1.8-.6l.2.5-1.8.6h-.1ZM907,393.5l-1.9-.7.2-.5,1.9.7-.2.5ZM1040.2,393.5c-.9-.6-1-1-.8-1.4,0,0,0-.2,0-.3l.5-.2c.1.2,0,.5,0,.8,0,.1,0,.1,0,.2.2.2.4.4.7.6l-.3.4ZM1070.4,393.4c-.2-.2-.5-.3-.8-.5l-.9-.6.3-.4.9.6c.3.2.6.4.8.5l-.3.4ZM1055.4,392.9l-.2-.5,1.9-.6.2.5-1.9.6ZM904.2,392.5l-1.5-.5v-.2s0-.2,0-.6h.5c0,.2,0,.4,0,.5l1.1.4-.2.5ZM958.6,391.8h-.5v-1h.5v1ZM1068,391.7c-.5-.3-1-.7-1.6-1.2l.3-.4c.6.4,1.2.8,1.6,1.2l-.3.4ZM1058.2,391.6l-.4-.3,1.2-1.6.4.3-1.2,1.6ZM1038.9,391c-.5-.4-1-.9-1.5-1.2l.3-.4c.6.4,1.1.8,1.6,1.3l-.4.4ZM903.3,390.3h-.5c0-.7,0-1.4,0-2h.5c0,.6,0,1.3,0,2h0ZM1065.5,390c-.5-.4-1.1-.8-1.6-1.2l.3-.4c.6.4,1.1.8,1.6,1.2l-.3.4ZM958.6,389.9h-.5v-2h.5v2ZM1060,389.2l-.4-.3,1.2-1.6.4.3-1.2,1.6ZM1036.6,389.2c-.3-.2-.6-.4-.9-.6l-.7-.5.3-.4.7.5c.3.2.6.4.9.6l-.3.4ZM1063.1,388.2c-.8-.6-1.4-1-1.6-1.2l.3-.4c.2.2.8.6,1.6,1.2l-.3.4ZM1034.1,387.5c-.5-.4-1.1-.8-1.6-1.1l.3-.4c.6.4,1.1.8,1.6,1.1l-.3.4ZM902.7,387.3c0-.2,0-.3,0-.5,0-.5-.2-.9-.4-1.4l.5-.2c.2.5.3,1,.4,1.5,0,.2,0,.3,0,.5h-.5ZM958.6,386.9h-.5v-2h.5v2ZM1031.7,385.8l-.7-.5c-.4-.2-.7-.5-1-.7l.3-.4c.3.2.6.4,1,.7l.7.5-.3.4ZM901.9,384.5c-.3-.6-.7-1.1-1-1.7l.4-.3c.4.5.8,1.1,1.1,1.7l-.4.2ZM1029.2,384.1c-.5-.4-1.1-.7-1.7-1l.2-.5c.6.3,1.2.6,1.8,1l-.3.4ZM958.2,384c-.5-.5-.9-1.1-1.1-1.8h.5c.2.5.5,1,.9,1.4h0v.2h-.4ZM1026.6,382.7c-.3-.1-.7-.2-1.2-.4-.3,0-.5-.2-.7-.2l.2-.5c.2,0,.5.2.7.2.5.1.9.3,1.2.4l-.2.5ZM900.9,381.9h-.5v-2h.5v2ZM1023.8,381.7c-.5-.3-1-.6-1.4-.9l-.3-.2.3-.4.3.2c.4.3.9.6,1.4.8l-.2.4ZM957.8,381.4l-.4-.3c.2-.3.6-.5.9-.6.3-.1.6-.3.8-.4l.3.4c-.3.2-.6.4-.9.5-.3,0-.5.3-.7.5h0ZM1021.2,380.2c-.6-.3-1.2-.6-1.8-.8v-.5c.8.2,1.4.5,2,.8l-.2.4ZM960.2,379.7l-.4-.3c.4-.5.8-1,1.1-1.6l.4.2c-.3.6-.7,1.2-1.2,1.7h0ZM1018.5,379.2c-.5,0-1-.2-1.5-.2-.1,0-.3,0-.4,0v-.5c.2,0,.4,0,.5,0,.6,0,1.1.1,1.6.2v.5ZM900.5,378.9h0s0,0,0,0h0s-1.5-.9-1.5-.9l.2-.4,1.7,1v.3h-.4ZM1015.5,378.7c-.7-.1-1.3-.3-2-.5v-.5c.8.2,1.4.3,2.1.5v.5ZM1012.6,378c-.7-.2-1.3-.5-1.9-.7l.2-.5c.6.2,1.2.4,1.9.7l-.2.5ZM898,377.5l-1.6-.9-.2-.3.4-.3v.2c.1,0,1.6.8,1.6.8l-.2.4ZM961.8,377.1l-.5-.2c.1-.3.2-.5.2-.5h0s0,0,0,0c0,0,.4-.5.9-1.1l.4.3c-.4.5-.8,1-.8,1.1,0,0,0,.3-.2.5h0ZM1009.7,376.9c-.6-.3-1.2-.4-1.8-.3v-.5c.6,0,1.3,0,2,.3l-.2.5ZM1006.9,376.8c-.7-.2-1.3-.4-1.9-.8l.3-.4c.5.4,1.1.6,1.7.8v.5ZM895.8,375.5l-1-1.7.4-.3,1,1.7-.4.3ZM1004.1,375.4c-.5-.4-1.1-.7-1.7-1l.2-.5c.6.3,1.2.7,1.8,1l-.3.4ZM963.4,374.7l-.4-.3c.5-.6.9-1.1,1.4-1.5l.4.4c-.4.4-.9.9-1.3,1.5h0ZM990.4,374.2h-1.8v-.5h1.9c0,0,.1.4.1.4h-.2c0,0,0,0,0,0ZM987.6,374.2h-2v-.5h2v.5ZM1001.5,374c-.5-.3-1-.7-1.3-1.1,0,0-.1-.2-.2-.2l.4-.3c0,0,.2.2.2.2.3.4.7.7,1.2,1l-.2.4ZM991.7,373.8v-.5c.5-.2,1.2-.4,1.8-.5v.5c-.5.2-1.1.4-1.8.6h0ZM984.6,373.7l-1.8-.9.2-.4,1.8.9-.2.4ZM994.6,373v-.5c.6-.2,1.2-.4,1.8-.6v.5c-.4.2-1.1.4-1.8.6h0ZM894.3,372.9l-.5-.8-.8-.6.3-.4.9.6h0s.5.9.5.9l-.4.3ZM965.5,372.6l-.3-.4c.2-.2.4-.3.6-.5.3-.3.6-.5.9-.8l.4.3c-.3.3-.6.6-1,.9-.2.1-.3.3-.5.5h0ZM982,372.4l-.5-.3h0c0-.6-.2-1.1-.3-1.6l.5-.2c.1.5.3.9.3,1.4l.3.2-.2.4ZM997.4,372.1v-.5c.5-.3,1.3-.3,2,0l-.2.5c-.6-.2-1.2-.2-1.8,0h0ZM892.2,371l-1.6-1.1.3-.4,1.6,1.1-.3.4ZM967.7,370.5l-.4-.3c.2-.3.4-.6.6-.9.2-.3.3-.5.5-.7l.4.3c-.2.2-.3.5-.5.7-.2.3-.4.6-.6.9h0ZM980.7,369.6c-.2-.5-.6-.9-1-1.2,0,0-.2-.1-.3-.2l.4-.3c0,0,.1.1.2.2.5.4.9.9,1.1,1.4l-.4.2ZM889.7,369.3l-1.3-.9-.4-.3.3-.4.3.3,1.3.9-.3.4ZM969.5,368.1l-.3-.4h.1c.3-.4.8-.9,1.4-1.4l.3.4c-.6.5-1,.9-1.4,1.3h-.1ZM887.3,367.4l-1.5-1.3.3-.4,1.5,1.3-.3.4ZM978.9,367.2c-.1-.4-.2-.8-.3-1.2,0-.2-.1-.5-.2-.8h.5c0,.1.1.4.2.6.1.4.2.8.3,1.1l-.5.2ZM971.7,366.1l-.3-.4c.6-.5,1.1-.9,1.6-1.2l.3.4c-.5.3-1,.7-1.6,1.2h0ZM885,365.5l-1.6-1.2.3-.4,1.6,1.2-.3.4ZM978,364.4c-.2-.6-.7-1-1.3-1v-.5c.8,0,1.5.5,1.8,1.3l-.4.2ZM974.1,364.4l-.3-.4c.6-.4,1.2-.7,1.9-.9v.5c-.5.2-1.1.5-1.6.8h0ZM882.7,363.7l-.4-.3-1.2-1,.3-.4,1.2,1,.4.3-.3.4ZM880.4,361.7l-1.5-1.3.3-.4,1.5,1.3-.3.4ZM878.1,359.6l-1-1.7.4-.3,1,1.7-.4.3ZM876.6,357l-.2-.3-1.4-.4v-.5c.1,0,1.7.5,1.7.5l.3.5-.4.3ZM874.1,356l-1.9-.6v-.5c.1,0,2.1.6,2.1.6v.5ZM871.2,355.2l-1.9-.6v-.5c.1,0,2.1.6,2.1.6v.5ZM868.3,354.4l-1.9-.6v-.5c.1,0,2.1.6,2.1.6v.5Z"/>
</svg>