<?xml version="1.0" encoding="UTF-8"?>
<svg id="Layer_1" xmlns="http://www.w3.org/2000/svg" version="1.1" viewBox="0 0 1184 579">
  <!-- Generator: Adobe Illustrator 29.2.1, SVG Export Plug-In . SVG Version: 2.1.0 Build 116)  -->
  <defs>
    <style>
      .st0 {
        fill: none;
      }

      .st1 {
        fill: #fff;
      }
    </style>
  </defs>
  <rect class="st0" width="1184" height="579"/>
  <path class="st1" d="M297.8,281.3c.7,0,1.4.2,2,.5l-.2.4c-.6-.3-1.2-.5-1.8-.5v-.5ZM296.9,281.4v.5c-.6,0-1.3,0-2,0v-.5c.7,0,1.3,0,2,0ZM293.9,281.8l.5.2-.8,1.8-.5-.2.8-1.8ZM300.7,282.3c.3.2.5.3.8.5.3.2.6.4.9.6l-.3.4c-.2-.2-.5-.4-.8-.6-.3-.1-.6-.3-.8-.5l.3-.4ZM303.1,284.1c.4.4.8.9,1.3,1.5l-.4.3c-.5-.6-1-1.1-1.3-1.5l.4-.3ZM292.7,284.5l.5.2-.4,1c0,.3,0,.6,0,.8h-.5c0-.3,0-.6,0-.9h0c0,0,.5-1.1.5-1.1ZM305.1,286.4c.3.4.7.9,1.3,1.6l-.4.3c-.5-.7-.9-1.1-1.3-1.5l.4-.3ZM291.9,287.5h.5c-.2.8-.4,1.4-.7,2l-.5-.2c.3-.6.5-1.2.7-1.8h0ZM307,288.7c.4.5.9,1,1.4,1.4l-.3.4c-.5-.4-1-.9-1.4-1.4l.4-.3ZM290.8,290.2l.4.3c0,0-.1.2-.2.3-.3.5-.8.9-1.2,1.2l-.3-.4c.4-.3.8-.7,1.1-1.1,0-.1.1-.2.2-.3h0ZM309.2,290.7c.2.1.4.3.6.4.3.2.7.4,1,.7l-.3.4c-.4-.3-.7-.5-1-.7-.2-.1-.4-.3-.6-.4l.3-.4ZM288.7,292.1l.3.4c-.5.3-1.1.6-1.8,1l-.2-.4c.7-.3,1.2-.6,1.7-.9h0ZM311.6,292.5c.4.3.7.7,1.1,1.1.1.1.2.3.3.4l-.4.3c-.1-.1-.2-.2-.4-.4-.4-.4-.7-.7-1.1-1l.3-.4ZM286.1,293.4l.2.5c-.6.3-1.2.5-1.9.8l-.2-.5c.7-.3,1.3-.5,1.8-.8h0ZM283.3,294.6l.2.5c-.6.2-1.2.5-1.9.7l-.2-.5c.6-.2,1.3-.4,1.9-.7h0ZM313.8,294.6c1.1,1.1,1.4,1.2,1.4,1.2h0v.5c-.2,0-.6-.2-1.7-1.3l.3-.4ZM280.5,295.6l.2.5c-.4.1-.6.2-.6.2h0s0,0,0,0c-.4,0-.8.1-1.2.3l-.2-.5c.4-.2.9-.3,1.4-.3,0,0,.3,0,.5-.2h0ZM316.1,296.4c.6.4,1.1.8,1.6,1.2l-.3.4c-.5-.4-1-.8-1.6-1.2l.3-.4ZM277.7,296.6l.3.4c-.3.2-.6.5-.9.8-.2.2-.3.4-.4.6l-.4-.2c.1-.2.3-.5.5-.7.3-.3.6-.6,1-.9h0ZM318.5,298.1c.5.3.9.6,1.2.9.1,0,.3.2.4.3l-.3.4c-.1-.1-.3-.2-.4-.3-.3-.2-.7-.5-1.2-.9l.3-.4ZM275.9,299.2h.5c0,.5.2.9.6,1.2,0,0,.2,0,.2,0v.5c-.2,0-.4,0-.5-.2-.5-.4-.8-1-.8-1.6h0ZM320.9,300c.5.5,1,1,1.4,1.5l-.4.3c-.4-.4-.9-1-1.4-1.4l.4-.4ZM278.2,300.3h2v.5h-2v-.5ZM281.2,300.3h1.6v.9h-.5v-.4h-1.1v-.5ZM282.7,302.1l1.7.9-.2.4-1.8-.9v-.3h.4ZM322.9,302.2c.5.6,1,1.1,1.4,1.4l-.3.4c-.4-.4-.8-.9-1.4-1.5l.4-.3ZM285.3,303.4l1.3.7c0,0,.2,0,.3,0v.5c-.1,0-.3,0-.3,0h-.1s-1.5-.7-1.5-.7l.2-.5ZM289,303.7c.4,0,.7,0,1.1,0v.5c-.7,0-1.4-.1-2,0v-.5c.3,0,.6,0,.9,0h0ZM292.9,303.9v.5s-.1,0-.2,0c-.3.1-.7.2-1,.2-.2,0-.5,0-.7-.1l.2-.5c.2,0,.4,0,.5,0,.3,0,.6,0,.9-.2.1,0,.2,0,.4-.1h0ZM325,304.2c.2,0,.6.3,1,.5.2.1.5.3.8.4l-.2.5c-.3-.1-.6-.3-.8-.4-.4-.2-.8-.4-1-.5l.2-.5ZM294,304.4c.3.5.4,1.1.5,1.7,0,0,0,.2,0,.3h-.5s0-.1,0-.2c0-.5-.2-1.1-.4-1.6l.4-.3ZM327.7,305.5c.7.3,1.2.6,1.8.8l-.2.5c-.6-.2-1.2-.5-1.8-.8l.2-.5ZM330.5,306.7c.7.3,1.3.5,1.9.7v.5c-.7-.2-1.4-.4-2-.7l.2-.5ZM294.1,307.4h.5c0,.7-.2,1.4-.6,2l-.4-.2c.3-.5.5-1.2.5-1.8h0ZM333.3,307.6c.6.2,1.2.2,1.9.3h0v.5h0c-.7,0-1.3-.1-2-.3v-.5ZM336.2,307.9c.6,0,1.3,0,2,.1v.5c-.7,0-1.4,0-2-.1v-.5ZM339.2,308.1c.7,0,1.3.1,2,.2v.5c-.7,0-1.4-.2-2-.2v-.5ZM342.2,308.5c.7.1,1.3.2,2,.4v.5c-.7-.1-1.4-.3-2.1-.4v-.5ZM345.2,309.1c.7.2,1.3.4,1.9.6l-.2.5c-.6-.2-1.2-.4-1.9-.6v-.5ZM348.1,310c.6.2,1.2.5,1.8.8l-.2.4c-.6-.3-1.2-.6-1.8-.8l.2-.5ZM293.8,310.2c.1.3.3.6.6.8.2.2.4.4.6.6l-.3.4c-.2-.2-.4-.4-.6-.6-.3-.3-.6-.6-.8-1.1h.5ZM350.8,311.3c.6.3,1.2.7,1.7,1.2l-.4.3c-.5-.4-1-.8-1.6-1.1l.3-.4ZM295.8,312.2l.3.3c.4.3.8.7,1.2,1.1l-.4.3c-.3-.4-.7-.7-1.1-1l-.3-.3.3-.4ZM313.3,313.4h0v.5h0c-.4,0-.8.1-1.1.3-.2.1-.5.2-.7.3v-.5c.1,0,.3-.1.5-.2.4-.2.8-.3,1.3-.3h0ZM333.9,313.5h.2v.5c-.7,0-1.3,0-2,.2v-.5c.5-.1,1.2-.2,1.8-.2h0ZM353,313.5c0,.3,0,.6,0,1,0,.4,0,.7,0,1.1h-.5c0-.3,0-.7,0-1.1,0-.3,0-.6,0-.8h.5ZM314.4,313.6c.3,0,.6.2.9.3.3.1.6.2,1,.3v.5c-.5,0-.8-.2-1.2-.3-.3-.1-.6-.2-.9-.3v-.5ZM307.4,313.7v.5c-.4,0-.7,0-1.1.2-.3,0-.6.1-.9.2v-.5c.2,0,.5,0,.7-.1.4-.1.8-.2,1.2-.2h0ZM326.1,313.7c.6,0,1.1,0,1.7.2.1,0,.2,0,.3,0v.5c-.2,0-.3,0-.5,0-.5-.1-1-.2-1.6-.2v-.5ZM308.5,313.7c.3,0,.6,0,1,.2.3,0,.6.1.9.1v.5c-.4,0-.7,0-1.1-.1-.3,0-.7-.1-1-.2v-.5ZM325,313.7v.5c-.3,0-.7,0-1.1.1-.3,0-.6,0-.8.1v-.5c.2,0,.5,0,.8-.1.4,0,.8-.1,1.2-.1h0ZM320.9,313.8c.2,0,.5,0,.7.1.2,0,.4.1.6.1v.5c-.3,0-.5,0-.8-.2-.2,0-.3,0-.5,0-.2,0-.5,0-.7,0v-.5c.1,0,.4-.1.7-.1h0ZM335.1,313.8c0,0,.2.1.2.2.4.3,1,.6,1.5.7v.5c-.8-.1-1.3-.4-1.8-.8,0,0,0,0-.1,0l.3-.4ZM304.2,313.8c.1,0,.2,0,.3,0v.5c-.2,0-.2,0-.3,0-.5,0-1,.3-1.4.6l-.3-.4c.5-.4,1.1-.6,1.7-.7h0ZM331,313.9v.5c-.6.1-1.3.2-2,.2v-.5c.7,0,1.3,0,2-.2h0ZM319.1,314.2v.5c-.4.2-1,.2-1.6.2-.1,0-.2,0-.4,0v-.5c.1,0,.3,0,.4,0,.5,0,1.1,0,1.6-.2h0ZM297.9,314.4v.2c.5.5.7.9,1.2,1.1v.5c-.8-.2-1.3-.7-1.5-1.3v-.2c-.1,0,.3-.3.3-.3ZM337.8,314.9c.6.1,1.2.3,1.9.4v.5c-.8-.1-1.5-.3-2.1-.4v-.5ZM301.7,315.1l.3.4c-.5.4-1.1.6-1.7.8,0,0-.1,0-.2,0v-.5s0,0,.1,0c.6-.1,1.1-.3,1.5-.7h0ZM340.7,315.5c1.1.2,1.9.3,1.9.3h0s0,0,0,0h0s-.2.4-.2.4h0c0,0,0,0,0,0h0s0,0,0,0c-.2,0-.9-.1-1.9-.3v-.5ZM343.6,316.3c.6.3,1.2.7,1.7,1.1l-.3.4c-.5-.4-1.1-.7-1.7-1.1l.3-.4ZM353.3,316.5c0,.4.2.7.4,1.1.1.3.2.5.3.8l-.5.2c-.1-.2-.2-.5-.3-.8-.2-.4-.3-.7-.4-1.1h.5ZM346.1,318c.6.4,1.1.8,1.6,1.2l-.3.4c-.5-.4-1-.8-1.6-1.2l.3-.4ZM354.4,319.2c.1.3.2.5.3.6.2.3.3.6.3.9,0,.1,0,.2,0,.4h-.5s0-.2,0-.3c0-.3-.1-.6-.3-.8,0-.1-.2-.3-.3-.6l.5-.2ZM348.5,319.9c.5.5.9,1,1.3,1.5l-.4.3c-.4-.5-.8-1-1.3-1.5l.3-.4ZM355.3,322.1h0c.2.8.3,1.4.5,1.9l-.5.2c-.2-.5-.3-1.1-.5-1.8h0c0-.1.5-.3.5-.3ZM350.4,322.3c.3.6.5,1.2.7,1.9h-.5c-.2-.5-.4-1.1-.7-1.7l.5-.2ZM356.2,324.9h0c.2.4.3.9.2,1.3,0,.2,0,.4.2.6l-.4.3c-.2-.3-.3-.6-.3-.9,0-.4,0-.7-.2-1h0c0,0,.5-.3.5-.3ZM351.3,325.2c0,.7,0,1.4,0,2.1h-.5c.1-.7.1-1.4,0-2h.5ZM357.3,327.5c.4.4.9.7,1.3,1l.2.2-.3.4-.2-.2c-.4-.3-.9-.7-1.3-1.1l.3-.4ZM350.6,328.2h.5c-.1.6-.3,1.2-.5,2.1h-.5c.2-1,.4-1.6.5-2.1h0ZM359.6,329.4c.1.1.3.3.4.5,0,.2,0,.4,0,.6-.3.4-.7.6-1.1.7v-.5c.5-.2.7-.4.7-.4,0,0,0,0,0-.1,0-.1-.1-.2-.2-.3l.3-.4ZM357.8,330.8v.5c-.5,0-1.1,0-1.6,0-.1,0-.2,0-.3,0v-.5c0,0,.2,0,.4,0,.5,0,1.1,0,1.6,0h0ZM349.8,331.1h.5c-.2.8-.4,1.4-.6,2.1h-.5c.2-.8.4-1.4.6-2.1h0ZM354.7,331.3l.3.4c-.4.5-.6,1-.8,1.6h0c0,0-.5,0-.5,0h0c.2-.7.5-1.4.9-1.9h0ZM348.9,333.9l.5.2c-.2.7-.4,1.3-.6,1.9l-.5-.2c.2-.6.4-1.2.6-1.9h0ZM353.5,334.1l.5.2c0,.2-.2.3-.3.5l-.2.3c-.2.3-.4.6-.6.9l-.4-.3c.2-.3.4-.6.6-.9l.2-.3c0-.1.2-.3.2-.4h0ZM351.8,336.4l.4.4c-.5.5-1.2.9-1.9,1v-.5c.6,0,1.1-.4,1.5-.8h0ZM348,336.8l.5.2c0,.1-.1.3-.1.4.1,0,.3,0,.5,0h.4v.5h-.4c-.3,0-.6,0-.9,0h-.3s.1-.3.1-.3c0,0,.1-.2.3-.7h0Z"/>
</svg>