<?xml version="1.0" encoding="UTF-8"?>
<svg id="Layer_1" xmlns="http://www.w3.org/2000/svg" version="1.1" viewBox="0 0 1184 579">
  <!-- Generator: Adobe Illustrator 29.2.1, SVG Export Plug-In . SVG Version: 2.1.0 Build 116)  -->
  <defs>
    <style>
      .st0 {
        fill: none;
      }

      .st1 {
        fill: #fff;
        isolation: isolate;
        opacity: 1;
      }
    </style>
  </defs>
  <rect class="st0" width="1184" height="579"/>
  <path class="st1" d="M343.6,573.2v-.5c.6,0,1.3,0,1.9-.2v.5c-.6.1-1.3.2-1.9.2ZM342.6,573.2c-.7,0-1.4-.1-2-.2v-.5c.7.1,1.4.2,2,.2v.5ZM339.6,572.8c-.7-.2-1.3-.4-1.9-.7l.2-.5c.6.3,1.2.5,1.8.6v.5ZM336.7,571.7c-.5-.2-.9-.4-1.3-.6l-.5-.2.2-.5.5.2c.4.2.8.4,1.3.6l-.2.5ZM334,570.5c-.6-.3-1.2-.7-1.7-1.1l.3-.4c.5.4,1,.8,1.6,1l-.2.4ZM331.6,568.5c-.3-.5-.5-1.1-.7-1.7,0,0,0-.2,0-.2h.5c0,0,0,0,0,.1.1.5.4,1.1.6,1.5l-.4.3ZM330.5,565.7c-.2-.5-.4-.9-.6-1.4,0-.2-.1-.3-.2-.4l.5-.2c0,.1.1.3.2.4.2.5.4.9.6,1.4l-.5.2ZM329.3,562.9c-.2-.7-.2-1.4-.2-2h.5c0,.6,0,1.3.2,1.9h-.5ZM329.7,559.9h-.5c0-.7.2-1.4.5-2.1l.5.2c-.2.6-.4,1.2-.4,1.9h0ZM330.5,557.1l-.4-.2c.2-.4.5-.8.9-1.1,0,0,.2-.2.4-.5l.4.3c-.2.3-.4.5-.4.5h0s0,0,0,0c-.3.3-.6.7-.8,1h0ZM332.3,554.8l-.4-.3c.4-.5.8-1.1,1.2-1.6l.4.3c-.4.6-.8,1.1-1.2,1.6h0ZM334,552.3l-.4-.3c.3-.5.6-.9.9-1.4,0,0,.1-.2.2-.3l.4.3c0,0-.1.2-.2.3-.3.5-.6.9-.9,1.4h0ZM335.7,549.8l-.4-.3c.4-.5.8-1.1,1.2-1.6l.4.3c-.4.5-.8,1.1-1.2,1.6h0ZM337.4,547.4l-.4-.3c.5-.7,1-1.2,1.3-1.6l.4.3c-.3.3-.7.9-1.2,1.5h0ZM339.2,544.9h-.5c0-.1.5-2.1.5-2.1h.5c0,.1-.5,2.1-.5,2.1ZM339.9,542h-.5c0-.1.2-1,.2-1,0-.1-.1-.3-.5-.6l.3-.4c.4.3.8.6.7,1.1l-.2.9ZM338.3,539.8c-.6-.3-1.2-.7-1.7-1.2l.4-.3c.5.4,1,.8,1.6,1.1l-.3.4ZM336,537.7c-.1-.3-.2-.7-.1-1,0-.4.2-.8.4-1.1l.5.2c-.2.3-.3.6-.3,1,0,.3,0,.5,0,.8l-.5.2ZM337.2,535l-.4-.3c.4-.6.8-1.1,1.2-1.6l.4.3c-.4.5-.8,1-1.2,1.6h0ZM339.1,532.6l-.4-.3c.5-.5.9-1,1.4-1.5l.4.3c-.4.5-.9,1-1.4,1.5h0ZM341.1,530.5l-.4-.3c.5-.6,1-1,1.3-1.5l.4.3c-.4.4-.8.9-1.4,1.5h0ZM343.1,528.2l-.4-.3c.4-.5.6-1.1.7-1.7h.5c-.1.8-.4,1.4-.8,2h0ZM343.4,525.2c0-.2,0-.4-.1-.5v-.2c0,0,0-.1,0-.1l1.1-.8.3.4-1,.7c0,.1,0,.3.1.5h-.5ZM345.6,523.4l-.3-.4,1.6-1.2.3.4-1.6,1.2ZM347.7,521.2h-.5v-2h.5v2ZM347.8,518.4l-.4-.3c.5-.5,1-1,1.6-1.4l.3.4c-.5.4-1,.8-1.5,1.3h0ZM350,516.6l-.3-.4c.5-.3,1.1-.7,1.7-1.1l.3.4c-.6.4-1.2.8-1.7,1.1h0ZM352.5,514.9l-.3-.4c.2-.1.4-.2.5-.3v-1.2h.5v1.4h-.1c0,0-.2.2-.6.4h0ZM353.2,512.1h-.5v-.6c-.2,0-.6-.2-1-.3l.2-.5c.5.2,1.1.4,1.1.4h.2c0,0,0,1,0,1ZM350.8,510.6c-.2-.1-.3-.3-.2-.6.1-.3.6-.5,1.8-.6v.5c-.4,0-.8,0-1.3.3,0,0,0,0,0,0l-.3.4ZM353.4,509.9v-.5c.6,0,1.3-.1,1.9-.2v.5c-.6,0-1.3.2-1.9.2h0ZM356.4,509.5v-.5c.6-.1,1.2-.2,1.9-.4v.5c-.6.1-1.2.3-1.9.4h0ZM359.3,508.9v-.5c.5-.2,1.2-.3,1.8-.5v.5c-.5.2-1.1.4-1.8.5h0ZM362.2,508l-.2-.5c.2,0,.4-.1.5-.2l1.3-.7.2.4-1.3.7h0s-.2,0-.5.2h0ZM364.9,506.7l-.2-.4,1.2-.6.3-.5.4.3-.4.6-1.3.7ZM367.2,504.6l-.4-.3,1.2-1.6.4.3-1.2,1.6ZM369,502.3l-.4-.3,1.3-1.5.4.3-1.3,1.5ZM370.9,500l-.4-.3,1.3-1.5.4.3-1.3,1.5Z"/>
</svg>